<?xml version="1.0" encoding="utf-8"?>
<!-- Generator: Adobe Illustrator 16.0.4, SVG Export Plug-In . SVG Version: 6.00 Build 0)  -->
<!DOCTYPE svg PUBLIC "-//W3C//DTD SVG 1.1//EN" "http://www.w3.org/Graphics/SVG/1.1/DTD/svg11.dtd">
<svg version="1.1" id="Layer_1" xmlns="http://www.w3.org/2000/svg" xmlns:xlink="http://www.w3.org/1999/xlink" x="0px" y="0px"
	 width="399.988px" height="400.001px" viewBox="0 0 399.988 400.001" enable-background="new 0 0 399.988 400.001"
	 xml:space="preserve">
<rect y="-0.475" fill="#2E2E2E" width="399.988" height="400.476"/>
<g>
	<g opacity="0.1">
		<path d="M126.039,97.562c5.095-0.018,9.247,2.955,9.256,6.637l0.399,142.51c0.014,3.692-4.128,6.688-9.219,6.697l0,0
			c-5.108,0.024-9.251-2.948-9.266-6.642l-0.399-142.505C116.802,100.567,120.931,97.577,126.039,97.562L126.039,97.562z"/>
	</g>
	<g>
		<path fill="#D3D3D3" d="M126.039,96.236c5.095-0.018,9.247,2.955,9.256,6.637l0.399,142.51c0.014,3.692-4.128,6.688-9.219,6.697
			l0,0c-5.108,0.024-9.251-2.948-9.266-6.642l-0.399-142.505C116.802,99.242,120.931,96.252,126.039,96.236L126.039,96.236z"/>
	</g>
</g>
<g>
	<g opacity="0.1">
		<path d="M155.753,269.867c-0.053-16.298-13.298-29.485-29.598-29.432c-16.306,0.04-29.482,13.295-29.44,29.593
			c0.038,12.767,8.166,23.612,19.519,27.7l0.221,78.306c0.009,3.027,4.463,5.469,9.962,5.456c5.485-0.014,9.941-2.479,9.929-5.513
			l-0.217-78.216C147.592,293.685,155.787,282.729,155.753,269.867z"/>
	</g>
	<g>
		<path fill="#D3D3D3" d="M155.753,268.542c-0.053-16.298-13.298-29.485-29.598-29.432c-16.306,0.04-29.482,13.295-29.44,29.593
			c0.038,12.767,8.166,23.612,19.519,27.7l0.221,78.306c0.009,3.027,4.463,5.469,9.962,5.456c5.485-0.014,9.941-2.479,9.929-5.513
			l-0.217-78.216C147.592,292.359,155.787,281.404,155.753,268.542z"/>
	</g>
</g>
<g>
	<g opacity="0.1">
		<path d="M90.602,84.329c-0.058-19.689,15.853-35.695,35.533-35.742c19.689-0.054,35.685,15.858,35.737,35.537
			c0.062,19.689-15.849,35.686-35.537,35.742C106.654,119.925,90.654,104.003,90.602,84.329z"/>
	</g>
	<g>
		<path fill="#8E8E8E" d="M90.602,83.004c-0.058-19.689,15.853-35.695,35.533-35.742c19.689-0.054,35.685,15.858,35.737,35.537
			c0.062,19.689-15.849,35.686-35.537,35.742C106.654,118.6,90.654,102.678,90.602,83.004z"/>
	</g>
</g>
<path fill="#D3D3D3" d="M132.421,291.318c0,0-16.421-79.363,120.579-83.103v-14.693c-145,0-135.313,91.038-135.313,91.038
	L132.421,291.318z"/>
<g>
	<g opacity="0.1">
		<path d="M286.988,174.951v-20.823v-31.505c0-28.069-23.496-51.298-51.566-51.298h-24.566l22.682-22.842
			c1.026-1.021,3.976-4.477,0.729-7.7c-3.25-3.231-6.705-5.015-7.731-3.989l-29.663,29.867l-5.855,5.855l-5.834,5.902l41.588,41.347
			c1.032,1.022,4.478-0.779,7.71-4.025c3.224-3.242,0.26-6.712-0.771-7.732l-22.813-22.683h20.111
			c28.641,0,39.982,21.712,39.982,41.714v22.673l0.844,23.736c-13.102,1.927-24.064,12.042-26.435,25.797
			c-2.938,17.119,8.551,33.382,25.678,36.336c17.118,2.944,33.387-8.545,36.331-25.678
			C310.042,194.606,301.131,179.99,286.988,174.951z M297.315,208.167c-1.989,11.559-12.964,19.306-24.508,17.322
			c-11.55-1.992-19.302-12.961-17.318-24.507c1.993-11.551,12.962-19.301,24.517-17.323
			C291.547,185.652,299.303,196.627,297.315,208.167z"/>
	</g>
	<g>
		<g>
			<path fill="#D3D3D3" d="M286.988,173.626v-20.823v-31.505c0-28.069-23.496-51.298-51.566-51.298h-24.566l22.682-22.842
				c1.026-1.021,3.976-4.477,0.729-7.7c-3.25-3.231-6.705-5.015-7.731-3.989l-29.663,29.867l-5.855,5.855l-5.834,5.902
				l41.588,41.347c1.032,1.022,4.478-0.779,7.71-4.025c3.224-3.242,0.26-6.712-0.771-7.732L210.895,84h20.111
				c28.641,0,39.982,21.712,39.982,41.714v22.673l0.844,23.736c-13.102,1.927-24.064,12.042-26.435,25.797
				c-2.938,17.119,8.551,33.382,25.678,36.336c17.118,2.944,33.387-8.545,36.331-25.678
				C310.042,193.281,301.131,178.665,286.988,173.626z M297.315,206.842c-1.989,11.559-12.964,19.306-24.508,17.322
				c-11.55-1.992-19.302-12.961-17.318-24.507c1.993-11.551,12.962-19.301,24.517-17.323
				C291.547,184.327,299.303,195.302,297.315,206.842z"/>
		</g>
	</g>
</g>
<path fill="#444444" d="M400,25.001v-25H0l0,0v24.593v350.809v24.593v0.006h24.988l0,0h350l0,0H400l0,0l0,0v-25l0,0V25.001
	L400,25.001z M375,375.001H25v-350h350V375.001z"/>
</svg>
