<?xml version="1.0" encoding="utf-8"?>
<!-- Generator: Adobe Illustrator 16.0.4, SVG Export Plug-In . SVG Version: 6.00 Build 0)  -->
<!DOCTYPE svg PUBLIC "-//W3C//DTD SVG 1.1//EN" "http://www.w3.org/Graphics/SVG/1.1/DTD/svg11.dtd">
<svg version="1.1" id="Layer_1" xmlns="http://www.w3.org/2000/svg" xmlns:xlink="http://www.w3.org/1999/xlink" x="0px" y="0px"
	 width="399.988px" height="400.001px" viewBox="0 0 399.988 400.001" enable-background="new 0 0 399.988 400.001"
	 xml:space="preserve">
<rect x="-0.408" y="-0.001" fill="#2E2E2E" width="399.988" height="400.001"/>
<path fill="#444444" d="M399.988,25.001v-25h-0.408h-24.592H24.186H-0.012v24.591V375.4v24.594v0.007h24l0,0h351l0,0h25l0,0l0,0v-25
	l0,0V25.001L399.988,25.001z M374.988,375.001h-351v-350h351V375.001z"/>
<g>
	<g opacity="0.1">
		<path fill-rule="evenodd" clip-rule="evenodd" d="M199.68,106.605c-58.803,0-106.484,47.672-106.484,106.483
			c0,47.045,30.51,86.959,72.82,101.039c5.32,0.987,7.275-2.309,7.275-5.123c0-2.536-0.099-10.928-0.145-19.823
			c-29.624,6.44-35.875-12.563-35.875-12.563c-4.844-12.307-11.823-15.581-11.823-15.581c-9.66-6.608,0.729-6.475,0.729-6.475
			c10.692,0.751,16.323,10.977,16.323,10.977c9.498,16.276,24.91,11.569,30.986,8.849c0.958-6.879,3.715-11.58,6.762-14.238
			c-23.652-2.69-48.514-11.823-48.514-52.625c0-11.623,4.158-21.125,10.971-28.581c-1.105-2.683-4.752-13.513,1.033-28.179
			c0,0,8.941-2.862,29.289,10.916c8.492-2.359,17.602-3.543,26.652-3.584c9.048,0.041,18.164,1.225,26.674,3.584
			c20.324-13.778,29.254-10.916,29.254-10.916c5.797,14.666,2.152,25.496,1.047,28.179c6.828,7.456,10.957,16.958,10.957,28.581
			c0,40.901-24.91,49.904-48.623,52.54c3.82,3.305,7.225,9.786,7.225,19.719c0,14.248-0.123,25.716-0.123,29.222
			c0,2.837,1.916,6.154,7.314,5.111c42.287-14.097,72.76-53.996,72.76-101.027C306.164,154.277,258.488,106.605,199.68,106.605"/>
		<path d="M133.527,259.491c-0.235,0.53-1.066,0.688-1.824,0.325c-0.775-0.35-1.207-1.069-0.958-1.602
			c0.231-0.542,1.062-0.693,1.836-0.332C133.353,258.23,133.793,258.961,133.527,259.491"/>
		<path d="M137.84,264.303c-0.506,0.47-1.502,0.251-2.173-0.493c-0.699-0.742-0.827-1.735-0.313-2.214
			c0.523-0.469,1.488-0.248,2.184,0.492C138.236,262.839,138.37,263.823,137.84,264.303"/>
		<path d="M142.038,270.433c-0.651,0.455-1.72,0.031-2.38-0.916c-0.652-0.949-0.652-2.084,0.018-2.538
			c0.658-0.455,1.711-0.045,2.379,0.892C142.706,268.835,142.706,269.97,142.038,270.433"/>
		<path d="M147.789,276.359c-0.582,0.645-1.824,0.471-2.736-0.409c-0.932-0.857-1.189-2.077-0.605-2.719
			c0.592-0.646,1.842-0.464,2.76,0.407C148.131,274.495,148.411,275.723,147.789,276.359"/>
		<path d="M155.725,279.8c-0.258,0.834-1.453,1.211-2.66,0.856c-1.204-0.365-1.992-1.34-1.748-2.182
			c0.25-0.841,1.451-1.236,2.667-0.856C155.186,277.981,155.977,278.951,155.725,279.8"/>
		<path d="M164.441,280.438c0.029,0.878-0.994,1.604-2.26,1.622c-1.273,0.027-2.304-0.682-2.319-1.547
			c0-0.888,1.003-1.607,2.272-1.629C163.401,278.858,164.441,279.566,164.441,280.438"/>
		<path d="M172.549,279.057c0.15,0.855-0.727,1.735-1.984,1.97c-1.236,0.228-2.381-0.303-2.538-1.15
			c-0.153-0.878,0.741-1.76,1.978-1.987C171.262,277.672,172.391,278.185,172.549,279.057"/>
	</g>
	<g>
		<g>
			<g>
				<g>
					<path fill-rule="evenodd" clip-rule="evenodd" fill="#D3D3D3" d="M199.68,102.605c-58.803,0-106.484,47.672-106.484,106.483
						c0,47.045,30.51,86.959,72.82,101.039c5.32,0.987,7.275-2.309,7.275-5.123c0-2.536-0.099-10.928-0.145-19.823
						c-29.624,6.44-35.875-12.563-35.875-12.563c-4.844-12.307-11.823-15.581-11.823-15.581c-9.66-6.608,0.729-6.475,0.729-6.475
						c10.692,0.751,16.323,10.977,16.323,10.977c9.498,16.276,24.91,11.569,30.986,8.849c0.958-6.879,3.715-11.58,6.762-14.238
						c-23.652-2.69-48.514-11.823-48.514-52.625c0-11.623,4.158-21.125,10.971-28.581c-1.105-2.683-4.752-13.513,1.033-28.179
						c0,0,8.941-2.862,29.289,10.916c8.492-2.359,17.602-3.543,26.652-3.584c9.048,0.041,18.164,1.225,26.674,3.584
						c20.324-13.778,29.254-10.916,29.254-10.916c5.797,14.666,2.152,25.496,1.047,28.179c6.828,7.456,10.957,16.958,10.957,28.581
						c0,40.901-24.91,49.904-48.623,52.54c3.82,3.305,7.225,9.786,7.225,19.719c0,14.248-0.123,25.716-0.123,29.222
						c0,2.837,1.916,6.154,7.314,5.111c42.287-14.097,72.76-53.996,72.76-101.027C306.164,150.277,258.488,102.605,199.68,102.605"
						/>
					<path fill="#D3D3D3" d="M133.527,255.491c-0.235,0.53-1.066,0.688-1.824,0.325c-0.775-0.35-1.207-1.069-0.958-1.602
						c0.231-0.542,1.062-0.693,1.836-0.332C133.353,254.23,133.793,254.961,133.527,255.491"/>
					<path fill="#D3D3D3" d="M137.84,260.303c-0.506,0.47-1.502,0.251-2.173-0.493c-0.699-0.742-0.827-1.735-0.313-2.214
						c0.523-0.469,1.488-0.248,2.184,0.492C138.236,258.839,138.37,259.823,137.84,260.303"/>
					<path fill="#D3D3D3" d="M142.038,266.433c-0.651,0.455-1.72,0.031-2.38-0.916c-0.652-0.949-0.652-2.084,0.018-2.538
						c0.658-0.455,1.711-0.045,2.379,0.892C142.706,264.835,142.706,265.97,142.038,266.433"/>
					<path fill="#D3D3D3" d="M147.789,272.359c-0.582,0.645-1.824,0.471-2.736-0.409c-0.932-0.857-1.189-2.077-0.605-2.719
						c0.592-0.646,1.842-0.464,2.76,0.407C148.131,270.495,148.411,271.723,147.789,272.359"/>
					<path fill="#D3D3D3" d="M155.725,275.8c-0.258,0.834-1.453,1.211-2.66,0.856c-1.204-0.365-1.992-1.34-1.748-2.182
						c0.25-0.841,1.451-1.236,2.667-0.856C155.186,273.981,155.977,274.951,155.725,275.8"/>
					<path fill="#D3D3D3" d="M164.441,276.438c0.029,0.878-0.994,1.604-2.26,1.622c-1.273,0.027-2.304-0.682-2.319-1.547
						c0-0.888,1.003-1.607,2.272-1.629C163.401,274.858,164.441,275.566,164.441,276.438"/>
					<path fill="#D3D3D3" d="M172.549,275.057c0.15,0.855-0.727,1.735-1.984,1.97c-1.236,0.228-2.381-0.303-2.538-1.15
						c-0.153-0.878,0.741-1.76,1.978-1.987C171.262,273.672,172.391,274.185,172.549,275.057"/>
				</g>
			</g>
		</g>
	</g>
</g>
</svg>
