<?xml version="1.0" encoding="utf-8"?>
<!-- Generator: Adobe Illustrator 16.0.4, SVG Export Plug-In . SVG Version: 6.00 Build 0)  -->
<!DOCTYPE svg PUBLIC "-//W3C//DTD SVG 1.1//EN" "http://www.w3.org/Graphics/SVG/1.1/DTD/svg11.dtd">
<svg version="1.1" id="Layer_1" xmlns="http://www.w3.org/2000/svg" xmlns:xlink="http://www.w3.org/1999/xlink" x="0px" y="0px"
	 width="399.988px" height="400.001px" viewBox="0 0 399.988 400.001" enable-background="new 0 0 399.988 400.001"
	 xml:space="preserve">
<rect x="-0.033" y="0.813" fill="#2E2E2E" width="399.988" height="400.001"/>
<g>
	<g opacity="0.1">
		<path d="M194.793,236.223l-91.625-88.063v119.202c0,3.881,3.279,7.033,7.326,7.033h178.947c4.039,0,7.324-3.152,7.324-7.033
			v-119.21l-91.623,88.071C202.277,238.977,197.645,238.977,194.793,236.223z"/>
		<path d="M205.143,180.396c-2.852-2.748-7.498-2.748-10.35,0l-91.539,87.985c0.516,3.4,3.555,6.014,7.24,6.014h178.947
			c3.678,0,6.717-2.613,7.234-6.014L205.143,180.396z"/>
		<path d="M205.143,189.591c-2.852-2.482-7.498-2.482-10.35,0l-91.539,79.376c0.516,3.072,3.555,5.428,7.24,5.428h178.947
			c3.678,0,6.717-2.355,7.234-5.428L205.143,189.591z"/>
		<path d="M194.875,236.865c2.854,2.75,7.5,2.75,10.352,0l91.539-87.985c-0.518-3.4-3.555-6.01-7.24-6.01H110.578
			c-3.68,0-6.717,2.609-7.234,6.01L194.875,236.865z"/>
		<path d="M194.783,231.928c2.854,2.605,7.5,2.605,10.352,0l91.541-83.364c-0.52-3.221-3.559-5.693-7.244-5.693H110.486
			c-3.678,0-6.717,2.473-7.232,5.693L194.783,231.928z"/>
		<path d="M194.875,227.672c2.854,2.482,7.5,2.482,10.352,0l91.539-79.374c-0.518-3.074-3.555-5.428-7.24-5.428H110.578
			c-3.68,0-6.717,2.354-7.234,5.428L194.875,227.672z"/>
	</g>
	<g>
		<g>
			<g>
				<path fill="#D3D3D3" d="M194.793,232.223l-91.625-88.063v119.202c0,3.881,3.279,7.033,7.326,7.033h178.947
					c4.039,0,7.324-3.152,7.324-7.033v-119.21l-91.623,88.071C202.277,234.977,197.645,234.977,194.793,232.223z"/>
				<path fill="#8E8E8E" d="M205.143,176.396c-2.852-2.748-7.498-2.748-10.35,0l-91.539,87.985c0.516,3.4,3.555,6.014,7.24,6.014
					h178.947c3.678,0,6.717-2.613,7.234-6.014L205.143,176.396z"/>
				<path fill="#D3D3D3" d="M205.143,185.591c-2.852-2.482-7.498-2.482-10.35,0l-91.539,79.376c0.516,3.072,3.555,5.428,7.24,5.428
					h178.947c3.678,0,6.717-2.355,7.234-5.428L205.143,185.591z"/>
			</g>
			<path fill="#8E8E8E" d="M194.875,232.865c2.854,2.75,7.5,2.75,10.352,0l91.539-87.985c-0.518-3.4-3.555-6.01-7.24-6.01H110.578
				c-3.68,0-6.717,2.609-7.234,6.01L194.875,232.865z"/>
			<path fill="#8E8E8E" d="M194.783,227.928c2.854,2.605,7.5,2.605,10.352,0l91.541-83.364c-0.52-3.221-3.559-5.693-7.244-5.693
				H110.486c-3.678,0-6.717,2.473-7.232,5.693L194.783,227.928z"/>
			<path fill="#D3D3D3" d="M194.875,223.672c2.854,2.482,7.5,2.482,10.352,0l91.539-79.374c-0.518-3.074-3.555-5.428-7.24-5.428
				H110.578c-3.68,0-6.717,2.354-7.234,5.428L194.875,223.672z"/>
		</g>
	</g>
</g>
<path fill="#444444" d="M399.988,25.813V0.001h-0.033h-24.592H24.561H-0.012v25.404v350.81v24.594v-0.808h25l0,0h350l0,0h25l0,0l0,0
	v-24.188l0,0V25.813L399.988,25.813z M374.988,375.001h-350v-350h350V375.001z"/>
</svg>
