<?xml version="1.0" encoding="utf-8"?>
<!-- Generator: Adobe Illustrator 16.0.4, SVG Export Plug-In . SVG Version: 6.00 Build 0)  -->
<!DOCTYPE svg PUBLIC "-//W3C//DTD SVG 1.1//EN" "http://www.w3.org/Graphics/SVG/1.1/DTD/svg11.dtd">
<svg version="1.1" id="Layer_1" xmlns="http://www.w3.org/2000/svg" xmlns:xlink="http://www.w3.org/1999/xlink" x="0px" y="0px"
	 width="399.988px" height="400.001px" viewBox="0 0 399.988 400.001" enable-background="new 0 0 399.988 400.001"
	 xml:space="preserve">
<rect x="-0.004" y="0.366" fill="#2E2E2E" width="399.996" height="399.994"/>
<g>
	<g opacity="0.1">
		<path d="M323.466,363.694H96.125c-21.471,0-37.89-16.419-37.89-37.895c0-21.468,16.419-37.886,37.89-37.886h227.341
			c21.472,0,37.891,16.418,37.891,37.886C361.356,347.275,344.938,363.694,323.466,363.694z M96.125,300.545
			c-13.894,0-25.258,11.361-25.258,25.255s11.364,25.263,25.258,25.263h227.341c13.894,0,25.259-11.369,25.259-25.263
			s-11.365-25.255-25.259-25.255H96.125z M102.438,338.432c-2.525,0-6.312-2.525-6.312-6.32c0-3.787,2.525-6.312,6.312-6.312
			c3.795,0,6.319,2.524,6.319,6.312C108.757,335.906,106.232,338.432,102.438,338.432z"/>
		<path d="M323.466,362.369H96.125c-21.471,0-37.89-16.419-37.89-37.895c0-21.468,16.419-37.886,37.89-37.886h227.341
			c21.472,0,37.891,16.418,37.891,37.886C361.356,345.95,344.938,362.369,323.466,362.369z M96.125,299.22
			c-13.894,0-25.258,11.361-25.258,25.255s11.364,25.263,25.258,25.263h227.341c13.894,0,25.259-11.369,25.259-25.263
			s-11.365-25.255-25.259-25.255H96.125z M102.438,337.106c-2.525,0-6.312-2.525-6.312-6.32c0-3.787,2.525-6.312,6.312-6.312
			c3.795,0,6.319,2.524,6.319,6.312C108.757,334.581,106.232,337.106,102.438,337.106z"/>
		<path d="M323.466,313.168c6.973,0,12.632,5.659,12.632,12.632s-5.659,12.632-12.632,12.632c-6.972,0-12.631-5.659-12.631-12.632
			S316.494,313.168,323.466,313.168z"/>
		<path d="M323.466,311.843c6.973,0,12.632,5.659,12.632,12.632s-5.659,12.632-12.632,12.632c-6.972,0-12.631-5.659-12.631-12.632
			S316.494,311.843,323.466,311.843z"/>
		<path d="M127.7,338.432c-2.524,0-6.316-2.525-6.316-6.32c0-3.787,2.529-6.312,6.316-6.312c3.791,0,6.315,2.524,6.315,6.312
			C134.016,335.906,131.491,338.432,127.7,338.432z M323.466,300.545H96.125c-21.471,0-37.89-16.418-37.89-37.894
			c0-21.468,16.419-37.886,37.89-37.886h227.341c21.472,0,37.891,16.418,37.891,37.886
			C361.356,284.127,344.938,300.545,323.466,300.545z M96.125,237.389c-13.894,0-25.258,11.369-25.258,25.263
			s11.364,25.263,25.258,25.263h227.341c13.894,0,25.259-11.369,25.259-25.263s-11.365-25.263-25.259-25.263H96.125z
			 M102.438,275.282c-2.525,0-6.312-2.524-6.312-6.312c0-3.795,2.525-6.319,6.312-6.319c3.795,0,6.319,2.524,6.319,6.319
			C108.757,272.758,106.232,275.282,102.438,275.282z"/>
		<path d="M127.7,337.106c-2.524,0-6.316-2.525-6.316-6.32c0-3.787,2.529-6.312,6.316-6.312c3.791,0,6.315,2.524,6.315,6.312
			C134.016,334.581,131.491,337.106,127.7,337.106z M323.466,299.22H96.125c-21.471,0-37.89-16.418-37.89-37.894
			c0-21.468,16.419-37.886,37.89-37.886h227.341c21.472,0,37.891,16.418,37.891,37.886
			C361.356,282.802,344.938,299.22,323.466,299.22z M96.125,236.063c-13.894,0-25.258,11.369-25.258,25.263
			s11.364,25.263,25.258,25.263h227.341c13.894,0,25.259-11.369,25.259-25.263s-11.365-25.263-25.259-25.263H96.125z
			 M102.438,273.957c-2.525,0-6.312-2.524-6.312-6.312c0-3.795,2.525-6.319,6.312-6.319c3.795,0,6.319,2.524,6.319,6.319
			C108.757,271.433,106.232,273.957,102.438,273.957z"/>
		<path d="M323.466,250.02c6.973,0,12.632,5.659,12.632,12.632s-5.659,12.631-12.632,12.631c-6.972,0-12.631-5.658-12.631-12.631
			S316.494,250.02,323.466,250.02z"/>
		<path d="M323.466,248.694c6.973,0,12.632,5.659,12.632,12.632s-5.659,12.631-12.632,12.631c-6.972,0-12.631-5.658-12.631-12.631
			S316.494,248.694,323.466,248.694z"/>
		<path d="M128.138,262.84c3.435,0,6.222,2.782,6.222,6.226c0,3.435-2.787,6.217-6.222,6.217s-6.222-2.782-6.222-6.217
			C121.916,265.622,124.703,262.84,128.138,262.84z"/>
		<path d="M128.138,261.515c3.435,0,6.222,2.782,6.222,6.226c0,3.435-2.787,6.217-6.222,6.217s-6.222-2.782-6.222-6.217
			C121.916,264.297,124.703,261.515,128.138,261.515z"/>
		<path d="M276.882,96.325c-13.517-28.448-42.175-46.747-73.401-46.747c-41.261,0-75.656,31.037-79.104,70.997
			c-21.081,3.345-36.762,21.244-36.762,42.347c0,23.099,20.094,42.617,43.876,42.617h143.982c31.153,0,56.502-24.215,56.502-53.986
			C331.976,121.554,307.392,97.06,276.882,96.325z M275.474,188.511H131.491c-14.058,0-26.856-12.794-26.856-26.852
			c0-14.108,12.048-25.589,26.856-25.589c5.011,0,8.51-3.499,8.51-8.514c0-33.609,28.479-60.951,63.479-60.951
			c26.606,0,51.165,16.702,61.187,41.725c1.541,3.087,4.714,5.006,8.277,5.006h2.529c22.142,0,39.483,16.234,39.483,36.954
			C314.957,171.363,297.246,188.511,275.474,188.511z"/>
		<path d="M276.882,95c-13.517-28.448-42.175-46.747-73.401-46.747c-41.261,0-75.656,31.037-79.104,70.997
			c-21.081,3.345-36.762,21.244-36.762,42.347c0,23.099,20.094,42.617,43.876,42.617h143.982c31.153,0,56.502-24.215,56.502-53.986
			C331.976,120.229,307.392,95.734,276.882,95z M275.474,187.186H131.491c-14.058,0-26.856-12.794-26.856-26.852
			c0-14.108,12.048-25.589,26.856-25.589c5.011,0,8.51-3.499,8.51-8.514c0-33.609,28.479-60.951,63.479-60.951
			c26.606,0,51.165,16.702,61.187,41.725c1.541,3.087,4.714,5.006,8.277,5.006h2.529c22.142,0,39.483,16.234,39.483,36.954
			C314.957,170.038,297.246,187.186,275.474,187.186z"/>
	</g>
	<g>
		<g>
			<g>
				<g opacity="0.1">
					<path d="M323.466,359.694H96.125c-21.471,0-37.89-16.419-37.89-37.895c0-21.468,16.419-37.886,37.89-37.886h227.341
						c21.472,0,37.891,16.418,37.891,37.886C361.356,343.275,344.938,359.694,323.466,359.694z M96.125,296.545
						c-13.894,0-25.258,11.361-25.258,25.255s11.364,25.263,25.258,25.263h227.341c13.894,0,25.259-11.369,25.259-25.263
						s-11.365-25.255-25.259-25.255H96.125z M102.438,334.432c-2.525,0-6.312-2.525-6.312-6.32c0-3.787,2.525-6.312,6.312-6.312
						c3.795,0,6.319,2.524,6.319,6.312C108.757,331.906,106.232,334.432,102.438,334.432z"/>
				</g>
				<g>
					<g>
						<path fill="#D3D3D3" d="M323.466,358.369H96.125c-21.471,0-37.89-16.419-37.89-37.895c0-21.468,16.419-37.886,37.89-37.886
							h227.341c21.472,0,37.891,16.418,37.891,37.886C361.356,341.95,344.938,358.369,323.466,358.369z M96.125,295.22
							c-13.894,0-25.258,11.361-25.258,25.255s11.364,25.263,25.258,25.263h227.341c13.894,0,25.259-11.369,25.259-25.263
							s-11.365-25.255-25.259-25.255H96.125z M102.438,333.106c-2.525,0-6.312-2.525-6.312-6.32c0-3.787,2.525-6.312,6.312-6.312
							c3.795,0,6.319,2.524,6.319,6.312C108.757,330.581,106.232,333.106,102.438,333.106z"/>
					</g>
				</g>
			</g>
			<g>
				<g opacity="0.1">
					<path d="M323.466,309.168c6.973,0,12.632,5.659,12.632,12.632s-5.659,12.632-12.632,12.632
						c-6.972,0-12.631-5.659-12.631-12.632S316.494,309.168,323.466,309.168z"/>
				</g>
				<g>
					<path fill="#D3D3D3" d="M323.466,307.843c6.973,0,12.632,5.659,12.632,12.632s-5.659,12.632-12.632,12.632
						c-6.972,0-12.631-5.659-12.631-12.632S316.494,307.843,323.466,307.843z"/>
				</g>
			</g>
			<g>
				<g opacity="0.1">
					<path d="M127.7,334.432c-2.524,0-6.316-2.525-6.316-6.32c0-3.787,2.529-6.312,6.316-6.312c3.791,0,6.315,2.524,6.315,6.312
						C134.016,331.906,131.491,334.432,127.7,334.432z M323.466,296.545H96.125c-21.471,0-37.89-16.418-37.89-37.894
						c0-21.468,16.419-37.886,37.89-37.886h227.341c21.472,0,37.891,16.418,37.891,37.886
						C361.356,280.127,344.938,296.545,323.466,296.545z M96.125,233.389c-13.894,0-25.258,11.369-25.258,25.263
						s11.364,25.263,25.258,25.263h227.341c13.894,0,25.259-11.369,25.259-25.263s-11.365-25.263-25.259-25.263H96.125z
						 M102.438,271.282c-2.525,0-6.312-2.524-6.312-6.312c0-3.795,2.525-6.319,6.312-6.319c3.795,0,6.319,2.524,6.319,6.319
						C108.757,268.758,106.232,271.282,102.438,271.282z"/>
				</g>
				<g>
					<g>
						<path fill="#D3D3D3" d="M127.7,333.106c-2.524,0-6.316-2.525-6.316-6.32c0-3.787,2.529-6.312,6.316-6.312
							c3.791,0,6.315,2.524,6.315,6.312C134.016,330.581,131.491,333.106,127.7,333.106z M323.466,295.22H96.125
							c-21.471,0-37.89-16.418-37.89-37.894c0-21.468,16.419-37.886,37.89-37.886h227.341c21.472,0,37.891,16.418,37.891,37.886
							C361.356,278.802,344.938,295.22,323.466,295.22z M96.125,232.063c-13.894,0-25.258,11.369-25.258,25.263
							s11.364,25.263,25.258,25.263h227.341c13.894,0,25.259-11.369,25.259-25.263s-11.365-25.263-25.259-25.263H96.125z
							 M102.438,269.957c-2.525,0-6.312-2.524-6.312-6.312c0-3.795,2.525-6.319,6.312-6.319c3.795,0,6.319,2.524,6.319,6.319
							C108.757,267.433,106.232,269.957,102.438,269.957z"/>
					</g>
				</g>
			</g>
			<g>
				<g opacity="0.1">
					<path d="M323.466,246.02c6.973,0,12.632,5.659,12.632,12.632s-5.659,12.631-12.632,12.631c-6.972,0-12.631-5.658-12.631-12.631
						S316.494,246.02,323.466,246.02z"/>
				</g>
				<g>
					<path fill="#D3D3D3" d="M323.466,244.694c6.973,0,12.632,5.659,12.632,12.632s-5.659,12.631-12.632,12.631
						c-6.972,0-12.631-5.658-12.631-12.631S316.494,244.694,323.466,244.694z"/>
				</g>
			</g>
			<g>
				<g opacity="0.1">
					<path d="M128.138,258.84c3.435,0,6.222,2.782,6.222,6.226c0,3.435-2.787,6.217-6.222,6.217s-6.222-2.782-6.222-6.217
						C121.916,261.622,124.703,258.84,128.138,258.84z"/>
				</g>
				<g>
					<path fill="#D3D3D3" d="M128.138,257.515c3.435,0,6.222,2.782,6.222,6.226c0,3.435-2.787,6.217-6.222,6.217
						s-6.222-2.782-6.222-6.217C121.916,260.297,124.703,257.515,128.138,257.515z"/>
				</g>
			</g>
			<g>
				<g opacity="0.1">
					<path d="M276.882,92.325c-13.517-28.448-42.175-46.747-73.401-46.747c-41.261,0-75.656,31.037-79.104,70.997
						c-21.081,3.345-36.762,21.244-36.762,42.347c0,23.099,20.094,42.617,43.876,42.617h143.982
						c31.153,0,56.502-24.215,56.502-53.986C331.976,117.554,307.392,93.06,276.882,92.325z M275.474,184.511H131.491
						c-14.058,0-26.856-12.794-26.856-26.852c0-14.108,12.048-25.589,26.856-25.589c5.011,0,8.51-3.499,8.51-8.514
						c0-33.609,28.479-60.951,63.479-60.951c26.606,0,51.165,16.702,61.187,41.725c1.541,3.087,4.714,5.006,8.277,5.006h2.529
						c22.142,0,39.483,16.234,39.483,36.954C314.957,167.363,297.246,184.511,275.474,184.511z"/>
				</g>
				<g>
					<g>
						<path fill="#8E8E8E" d="M276.882,91c-13.517-28.448-42.175-46.747-73.401-46.747c-41.261,0-75.656,31.037-79.104,70.997
							c-21.081,3.345-36.762,21.244-36.762,42.347c0,23.099,20.094,42.617,43.876,42.617h143.982
							c31.153,0,56.502-24.215,56.502-53.986C331.976,116.229,307.392,91.734,276.882,91z M275.474,183.186H131.491
							c-14.058,0-26.856-12.794-26.856-26.852c0-14.108,12.048-25.589,26.856-25.589c5.011,0,8.51-3.499,8.51-8.514
							c0-33.609,28.479-60.951,63.479-60.951c26.606,0,51.165,16.702,61.187,41.725c1.541,3.087,4.714,5.006,8.277,5.006h2.529
							c22.142,0,39.483,16.234,39.483,36.954C314.957,166.038,297.246,183.186,275.474,183.186z"/>
					</g>
				</g>
			</g>
		</g>
	</g>
</g>
<path fill="#444444" d="M399.988,25.366V0H-0.006h-0.006v24.959v350.809v24.593V400h25l0,0h350l0,0h25l0,0l0,0v-24.634l0,0V25.366
	L399.988,25.366z M374.988,375h-350V25h350V375z"/>
</svg>
