<?xml version="1.0" encoding="utf-8"?>
<!-- Generator: Adobe Illustrator 16.0.4, SVG Export Plug-In . SVG Version: 6.00 Build 0)  -->
<!DOCTYPE svg PUBLIC "-//W3C//DTD SVG 1.1//EN" "http://www.w3.org/Graphics/SVG/1.1/DTD/svg11.dtd">
<svg version="1.1" id="Layer_1" xmlns="http://www.w3.org/2000/svg" xmlns:xlink="http://www.w3.org/1999/xlink" x="0px" y="0px"
	 width="1920px" height="1215.934px" viewBox="0 0 1920 1215.934" enable-background="new 0 0 1920 1215.934" xml:space="preserve">
<g>
	<linearGradient id="SVGID_1_" gradientUnits="userSpaceOnUse" x1="960" y1="719" x2="959.9999" y2="-1">
		<stop  offset="0.0608" style="stop-color:#555569"/>
		<stop  offset="0.2474" style="stop-color:#8D8DA1"/>
		<stop  offset="0.6968" style="stop-color:#434357"/>
		<stop  offset="1" style="stop-color:#1A1A1A"/>
	</linearGradient>
	<rect y="-1" fill="url(#SVGID_1_)" width="1920" height="720"/>
	<linearGradient id="SVGID_2_" gradientUnits="userSpaceOnUse" x1="1058.5254" y1="781.998" x2="1058.5254" y2="459.2578">
		<stop  offset="0.2213" style="stop-color:#9A9AAE"/>
		<stop  offset="0.9333" style="stop-color:#2E2E42"/>
	</linearGradient>
	<path fill="url(#SVGID_2_)" d="M1738.834,527.998c0,0-91.332,17.334-117.332,28c-1.334,4.668-35.336-13.334-48.002-14
		s-38.666-8.666-44.666-8c-6,0.668-16,2-25.332,0c-9.334-2-13.836,1.334-24.252,2c-10.416,0.668-42.414-4.666-47.082-4
		c-4.666,0.668-18.668,9.438-27.334,10.387c-0.666,0.281-73.332-34.387-99.332-35.719c0.666,1.334-16.668-6.766-30,8.283
		c-1.334,1.051-33.597,10.883-60.834,12.217c-0.572,0.666-5.166,7.5-25.166,0.166c0.666,1.334-8.668-6.666-22.668-2.666
		c0.668,0.666-10.199-6-27.766-5.334c-17.566,0.668-20.568-2.084-26.068-2.834s-18.75-3.75-24.5-3.75s-6.25-6.75-17.25-8.75
		s-18.5-4.5-18.5-4.5s-9.25-12.832-18.25-12.498c-9,0.332-13.666-1.014-16-0.008c-2.332,1.008-17.666-11.994-23.332-11.326
		c-5.668,0.666-23.668-12.334-38.334-11.668c-14.668,0.668-30.668-12.666-40.668,2.668c-10,15.332-19.332,11.332-28,13.332
		c-8.666,2-19.332,5.334-30,5.334c-10.666,0-19.332-8-28,0c-2.666,4.166-19.166,4.416-24.666,7.666s-16.5,1.25-22,2.25
		s-38,2.75-42.75,5.5s-36.75,13.25-42,18.75s-15.25,5-25.75,13.75c0,0-41.25,5.654-75.25,2.953c-0.5,0.047-46.5-5.203-94.75-20.203
		c-0.5,0.25-14.5-6.5-19-5.25c0,0-15-6.25-24.25-0.25c-2.25,1.75-24.25-3-27.75-5s-14.498-0.25-23.498-0.75
		c0,0-8.502-2.5-12.252,1.5c0.25-0.25-6.75,1-9.25,3.25s-10.755-2.746-14.75-1.484c-3.996,1.264-12.25,3.234-12.25,3.234
		l381.602,244.086l784.461,26.664l230.988-225.635L1738.834,527.998z"/>
	<linearGradient id="SVGID_3_" gradientUnits="userSpaceOnUse" x1="1342.7822" y1="712.3691" x2="1342.7822" y2="619.1919">
		<stop  offset="0.2137" style="stop-color:#79798D"/>
		<stop  offset="1" style="stop-color:#2C2C40"/>
	</linearGradient>
	<path fill="url(#SVGID_3_)" d="M1128.5,658.998c0,0,8.5-9,33.805-16.561c8.135-2.43,13.865-9.373,17.197-10.773
		c0.171-0.086,10.658-3.264,20.998-2.561c6.539,0.443,15.092-4.33,24.75-3.605c7.373,0.553,18.936,4.297,27.75,5
		c6.23,0.498,17.698-1.281,24.51-0.713c7.873,0.656,21.74-13.537,34.74-10.037c6.285,1.693,14.071,7.652,31.5,9.355
		c6.529,0.637,19,9.67,32.586,8.912c11.995-0.668,22.275,5.174,28.164,6.232c7.969,1.436,19.697-0.664,28.002,3.719
		c3.373,1.781,11.977-1.893,14.998,1.137c7,7.02,9.15,1.633,13.495,2.445c54.976,10.291,85.456,20.264,94.507,29.709
		c24.666,25.74-250.936,31.111-250.936,31.111L1184,683.773L1128.5,658.998z"/>
	<linearGradient id="SVGID_4_" gradientUnits="userSpaceOnUse" x1="931.5195" y1="671.376" x2="931.5195" y2="569.8149">
		<stop  offset="0.0533" style="stop-color:#88889C"/>
		<stop  offset="0.5608" style="stop-color:#444458"/>
		<stop  offset="1" style="stop-color:#2B2B3F"/>
	</linearGradient>
	<path fill="url(#SVGID_4_)" d="M724.093,631.885c0,0,28.661-24.664,37.33-25.33c1.331-0.666,15.329-4.971,19.329-10.151
		c4-5.179,49.676-1.142,69.328-12.743c0,0,8.663-19.099,121.317-12.434c8,2.666,8.997,8.864,36.329,13.334
		c27.992,4.574,25.748,13.328,46.37,19.329c20.622,5.999,58.618,26.514,83.282,52.253c24.664,25.737-249.972,11.074-249.972,11.074
		l-121.487-8.559L724.093,631.885z"/>
	<linearGradient id="SVGID_5_" gradientUnits="userSpaceOnUse" x1="695.2031" y1="656.1426" x2="695.2031" y2="576.6602">
		<stop  offset="0.2098" style="stop-color:#5E5E72"/>
		<stop  offset="1" style="stop-color:#2A2A3E"/>
	</linearGradient>
	<path fill="url(#SVGID_5_)" d="M575.658,576.66c0,0,58.11,16.597,86.441,23.581c0,0,14.333,7.317,19.997,11.982
		c5.666,4.667,37.329,10.998,38.663,10.998c1.333,0,17.996,8.239,27.996,3.954c2-1.953,12.667,5.046,12.667,5.046
		s18.663,9.998,22.329,10.667c3.666,0.666,14.998,2.998,17.666,4.332c2.666,1.333,13.329,8.922,13.329,8.922l-144.982-16.848
		L575.658,576.66z"/>
	<linearGradient id="SVGID_6_" gradientUnits="userSpaceOnUse" x1="286.3184" y1="625.332" x2="286.3184" y2="487.3945">
		<stop  offset="0.0467" style="stop-color:#9090A4"/>
		<stop  offset="0.244" style="stop-color:#6C6C80"/>
		<stop  offset="0.8498" style="stop-color:#2D2D41"/>
	</linearGradient>
	<path fill="url(#SVGID_6_)" d="M109.5,530.498c0,0,32-7.5,45.5-7.5s47.166-4,55-6.332c7.834-2.334,51.834-25.334,54.5-28
		c2.668-2.666,13.668-0.666,16.334,1.666c-0.334-0.666,17.334,1.334,21.334,2.668c4,1.332,19.945,5.998,28.306,5.666
		c8.36-0.334,56.36,18.332,67.36,18c11-0.334,42,14.666,48.334,13.832C452.5,529.666,463.137,545,463.137,545l-54.635,68.332
		l-98.002,12L109.5,530.498z"/>
	<linearGradient id="SVGID_7_" gradientUnits="userSpaceOnUse" x1="496.1582" y1="664.498" x2="496.1582" y2="536.2007">
		<stop  offset="0.1167" style="stop-color:#79798D"/>
		<stop  offset="0.7876" style="stop-color:#2C2C40"/>
	</linearGradient>
	<path fill="url(#SVGID_7_)" d="M345,616.498c0,0,34.5-28,52.5-43.5s16.5-17,31-23.5s17-15,27.5-13s31.5,5.5,45.5,13
		s29.5,5.5,37.5,12s25.5,13.703,34.5,14.852s22.885,10.148,34.443,13.148c11.557,3,28.393,7,36.725,13s-5.668,34.5-5.668,34.5
		l-152,27.5L345,616.498z"/>
	<linearGradient id="SVGID_8_" gradientUnits="userSpaceOnUse" x1="209.75" y1="636.998" x2="209.75" y2="485.998">
		<stop  offset="0.2664" style="stop-color:#727286"/>
		<stop  offset="0.5431" style="stop-color:#5C5C70"/>
		<stop  offset="0.8303" style="stop-color:#2C2C40"/>
	</linearGradient>
	<path fill="url(#SVGID_8_)" d="M0,485.998c0,0,10.75,3.5,20.25,6s19.125,9.5,36.625,14.5c0,0,7.229,3.166,13.396,6.998
		c6.166,3.834,8.697,2.168,16.697,4.5c8,2.334,21.684,5.502,29.516,8.168c7.834,2.666,65.175,12,76.675,19.834
		c11.5,7.832,50.005,22.5,59.338,25.5s43.003,18.166,55.003,23.666s26.334,16.668,38.5,17.668c12.168,1,11.334-1.834,26.668,2
		c15.332,3.834,21,7.834,27.166,10.834s19.666,9.832,19.666,9.832l-123.166,1.5l-150.416-23.5L0,603.998V485.998z"/>
	<linearGradient id="SVGID_9_" gradientUnits="userSpaceOnUse" x1="1650.125" y1="781.998" x2="1650.125" y2="516.2075">
		<stop  offset="0.188" style="stop-color:#6B6B7F"/>
		<stop  offset="0.5262" style="stop-color:#49495D"/>
		<stop  offset="1" style="stop-color:#2D2D41"/>
	</linearGradient>
	<path fill="url(#SVGID_9_)" d="M1384.5,698.248c0,0,78.5-45.125,116-44.125c1,1.5,35-3.062,54-21.062
		c-0.5,1.5,43.5-28.531,68-35.531s58.5-39.016,64-41.516s47.5-35.508,60.5-38.008c0,1,0-4.504,25.5-0.004c1,0.5,27,8.498,31.5,8.998
		s23.5,3,29.5,4s23.5,4.498,36,9.498s22.5,6.5,27.5,5s11.75-0.5,16.25,1.5s6.75,3,6.75,3v232l-539.75-26.664L1384.5,698.248z"/>
	<linearGradient id="SVGID_10_" gradientUnits="userSpaceOnUse" x1="1083.7861" y1="756.7207" x2="1083.7861" y2="615.751">
		<stop  offset="0.4844" style="stop-color:#646478"/>
		<stop  offset="1" style="stop-color:#2A2A3E"/>
	</linearGradient>
	<path fill="url(#SVGID_10_)" d="M835,667.998c0,0,17-17.5,36-20.5c0,0,24.5-1,35-5c0.5,0,28-18.5,45.5-25c1,1,34.5-8.922,62,9.789
		c2.5,1.711,8,5.711,24.5,8.211s23.5-0.5,29.5,4s21.5,4.252,29,2.377c7.5-1.877,18.5-2.877,33,3.123s17,5.5,60.5,23
		c21,13.5,32,4,35,2.5s6.5-6.711,24.5,4.645s32,14.322,42,15.84c10,1.516,39,18.016,41,20.516s-38,45.223-38,45.223L988,732.498
		l-143.5,7L835,667.998z"/>
	<linearGradient id="SVGID_11_" gradientUnits="userSpaceOnUse" x1="1715.918" y1="755.334" x2="1715.918" y2="576.334">
		<stop  offset="0.1209" style="stop-color:#5E5E72"/>
		<stop  offset="1" style="stop-color:#2C2C40"/>
	</linearGradient>
	<path fill="url(#SVGID_11_)" d="M1511.836,729.166c0,0,18.666-11.584,43.666-31.584c5.334-1.332,24.666-9.955,45-18.289
		s49-16.648,56.668-23.314c7.666-6.666,35.332-15.988,45.332-16.322c10-0.332,75-18.326,82.334-20.994
		c7.334-2.666,7.334-9.664,29.334-8.664s25.334-7.33,35-11.664s11.666-8.17,14.666-8.502c3-0.334,15.334-3.832,15.334-3.832h19.33
		c0,0,12.418-6.998,16.086-7.666c3.666-0.666,5.414-2,5.414-2v157.664l-169.08,21.336l-235.541-8.658L1511.836,729.166z"/>
	<linearGradient id="SVGID_12_" gradientUnits="userSpaceOnUse" x1="644.668" y1="706.5137" x2="644.668" y2="596.5117">
		<stop  offset="0.2098" style="stop-color:#5E5E72"/>
		<stop  offset="1" style="stop-color:#2A2A3E"/>
	</linearGradient>
	<path fill="url(#SVGID_12_)" d="M463.137,639.408c0,0,38.029,0.258,52.363,2.592c0.334,0.332,32,4.666,38.334-10
		c0.666,0.332,6.664-4,10.666-2.668c0.334,0,2.1-4.666,11.217-5.666C576.168,624,608.166,604,610.5,602s11-6.002,15.334-5.334
		c4.332,0.666,8.041-1.668,19.041,1.832s6.875,6.125,12.875,8.375s-4.25,4.375,32.5,17.875c8.25,3.25,12,9.5,23.75,11
		s28.5,5.25,28.5,5.25s24.25,8.5,40.25,10s15.5,2.25,21.5,2s6-4.482,27.5,3.26c21.5,7.74,4.084,15.75,25.084,20.912
		s24,13.812,24,13.812L696.5,706.514l-136-11.646l-151.998-13.201L463.137,639.408z"/>
	<linearGradient id="SVGID_13_" gradientUnits="userSpaceOnUse" x1="287.8584" y1="697.5815" x2="287.8584" y2="581.2349">
		<stop  offset="0.2098" style="stop-color:#56566A"/>
		<stop  offset="1" style="stop-color:#2A2A3E"/>
	</linearGradient>
	<path fill="url(#SVGID_13_)" d="M0,591.998c0,0,33.25-5,49.75-4.5c0,0,8.291,0.598,14.625-0.035
		c6.334-0.631,52.062-14.633,107.396,1.535c55.332,16.166,57.363,23.5,75.697,25.668c18.334,2.166,5.35-6.668,50.682,0
		c8.834,0.584,34.342,1.832,40.092,10.082c0,0,4.254,4.578,21.004,2.539s17.002-3.664,23.752,0.523s16.752,6.938,29.002,2.438
		s20.75-3.625,37.5,2.312s42.5,8.938,64,21.688s39.25,19.5,59.75,36s-93.5,0-93.5,0l-241-15.5l-152.5-15l-86.25-8V591.998z"/>
	<linearGradient id="SVGID_14_" gradientUnits="userSpaceOnUse" x1="29.3945" y1="650" x2="29.3945" y2="612.373">
		<stop  offset="0.4089" style="stop-color:#505064"/>
		<stop  offset="1" style="stop-color:#26263A"/>
	</linearGradient>
	<path fill="url(#SVGID_14_)" d="M0,612.373c0,0,24.5,8.938,49.5,17.438s-8.375,10.094-8.375,10.094L7.5,650H0V612.373z"/>
	<linearGradient id="SVGID_15_" gradientUnits="userSpaceOnUse" x1="874" y1="728.498" x2="874" y2="682.248">
		<stop  offset="0.3043" style="stop-color:#444458"/>
		<stop  offset="1" style="stop-color:#252539"/>
	</linearGradient>
	<path fill="url(#SVGID_15_)" d="M766,682.248c0,0,35.5,9.5,63.25,2.5s49.75,5,67.5,5.25s21.75,14.25,46.5,15s38.75,12,38.75,12
		l-50.25,11.5l-93.25-4.25l-63-17L766,682.248z"/>
	<linearGradient id="SVGID_16_" gradientUnits="userSpaceOnUse" x1="331.752" y1="739.3301" x2="331.752" y2="627.2876">
		<stop  offset="0.2992" style="stop-color:#48485C"/>
		<stop  offset="1" style="stop-color:#242438"/>
	</linearGradient>
	<path fill="url(#SVGID_16_)" d="M0,640.664c0,0,29.588-14,42.588-13.334c1.334-0.334,30.459,1.332,46.459,3.666
		c0.333,0.668,56.396,5.334,75.396,15.334c0,0,16.032,9.334,40.032-2.334c0.666,1,14.016-0.998,35.016-2.332s12.008-8,45.674-1.668
		c0.334,0.334,24.672,11.404,47.338,9.869c1,0.465,21.668,5.799,48.668,13.131c0.666,1,22.334,2.668,26,7
		c0.334,0.666,34.932,9.332,50.133,6.666c0.203,0.668,44.201,3,64.869,8.668c0,0.332,30.321-3.334,42.328,0
		c0,0,56.672-23.666,97.672-9.334c0.666,0.334,1.332,48.334,1.332,48.334l-331.502,15l-315.08-6.668L0,732.5V640.664z"/>
	<linearGradient id="SVGID_17_" gradientUnits="userSpaceOnUse" x1="463.1367" y1="749.666" x2="463.1367" y2="691.4561">
		<stop  offset="0.4793" style="stop-color:#48485C"/>
		<stop  offset="1" style="stop-color:#232337"/>
	</linearGradient>
	<path fill="url(#SVGID_17_)" d="M327.834,692c0,0,27.666-2.334,40.332,2.666c12.668,5,37.334,8.334,44.334,8.334
		s64.334-11.211,100.666-5.773c36.334,5.439,83.002,9.771,94.334,25.439c11.334,15.666-198.666,27-198.666,27L318.332,718
		L327.834,692z"/>
	<linearGradient id="SVGID_18_" gradientUnits="userSpaceOnUse" x1="1710.25" y1="879.998" x2="1710.25" y2="716.3691">
		<stop  offset="0.5183" style="stop-color:#3A3A4E"/>
		<stop  offset="1" style="stop-color:#222236"/>
	</linearGradient>
	<path fill="url(#SVGID_18_)" d="M1500.5,716.498c0,0,18.25,4.875,43-0.125c0.25,0,55.75-0.562,87.75,11.438s32,6.469,64.5,14.469
		c0.75,0.75,36-1.266,56.5,3.234s16-0.258,35.75-0.008s16-6.004,44.5-3.504c12,0.5,10.25-2.002,17.25-4.502
		c-0.25-0.25,10.75-6.75,25.75-8s23-4.252,32-1.252s12.5,0.25,12.5,0.25v151.5l-390-61.75L1500.5,716.498z"/>
	<linearGradient id="SVGID_19_" gradientUnits="userSpaceOnUse" x1="1206.7383" y1="761.748" x2="1206.7383" y2="677.1689">
		<stop  offset="0.3043" style="stop-color:#444458"/>
		<stop  offset="1" style="stop-color:#26263A"/>
	</linearGradient>
	<path fill="url(#SVGID_19_)" d="M1063.5,703.998c0,0,8.75,4.25,18.75-6.5s12-6.5,16.5-9.5s3.5-11.75,11.25-10.75s16,4,26.25,9
		s17,8.75,38.25,13.5s22.5,5.25,43.5,6.5s26.5,6.5,51.5,3s14,3.5,36-1.5s10.25-6.75,18.75-6.75s16.5-4.75,25-0.5
		s-60.25,48.75-60.25,48.75l-61.5,12.5l-68.5-19.25l-87.75-10L1063.5,703.998z"/>
	<linearGradient id="SVGID_20_" gradientUnits="userSpaceOnUse" x1="1054.209" y1="798.334" x2="1054.209" y2="694.8667">
		<stop  offset="0.4049" style="stop-color:#404054"/>
		<stop  offset="1" style="stop-color:#232337"/>
	</linearGradient>
	<path fill="url(#SVGID_20_)" d="M863.584,717.998c0,0,23.918,4.668,36.25,2.668c0.666-0.334,59.332-20.668,79.666-21.334
		c-0.332,0.334,11-7.666,39-3c1,0.334,38.668,1.666,54,6.334c15.334,4.666,55.334,21.666,87,23.334c-0.666,0,32.332,7,52.666,16.666
		c20.334,9.668,32.668,15.668,32.668,15.668l-54.668,40L1054.209,796l-186.375-47L863.584,717.998z"/>
	<linearGradient id="SVGID_21_" gradientUnits="userSpaceOnUse" x1="495.8242" y1="756.7207" x2="495.8242" y2="706.5127">
		<stop  offset="0.1624" style="stop-color:#3C3C50"/>
		<stop  offset="1" style="stop-color:#232337"/>
	</linearGradient>
	<path fill="url(#SVGID_21_)" d="M378.709,713.002c0,0,30.123-4.998,58.791,4.336c28.666,9.334,74.666,9.66,97,8.66
		c0.334,0,26.332-0.666,48.666-11.666c-0.332-1,30-11.668,38.668-6.334c8.666,5.334-19.668,18.387-19.668,18.387l-83.332,30.336
		l-89.668-0.754l-61-22.635L378.709,713.002z"/>
	<linearGradient id="SVGID_22_" gradientUnits="userSpaceOnUse" x1="793.5" y1="854.666" x2="793.5" y2="658.7739">
		<stop  offset="0" style="stop-color:#212121"/>
		<stop  offset="0.7351" style="stop-color:#353549"/>
	</linearGradient>
	<path fill="url(#SVGID_22_)" d="M380.5,717.498c0,0,59,23.26,125.5,28.631c0.5-0.131,44-5.631,96-36.631c0.5,1,61.5-47.5,103-50
		c1.5,1,14.5-11,98.5,34.5c1,1,37,13.5,68,27.5c1.5,2,77,37,108,42s39.5,11.5,58.5,13s26,4.5,43,5s48.666-22.332,63.334-25.5
		c14.666-3.166,15.334-4.332,29.666-1.5c14.334,2.834,11.166,5.834,24.166,5.668c13-0.168,14,4.5,14,4.5l-25.998,48l-181.625,21.67
		l-335.139,20.33l-294.57-48.533L380.5,717.498z"/>
	<linearGradient id="SVGID_23_" gradientUnits="userSpaceOnUse" x1="1746.625" y1="921.998" x2="1746.625" y2="746.6743">
		<stop  offset="0.0441" style="stop-color:#212121"/>
		<stop  offset="0.2957" style="stop-color:#353549"/>
	</linearGradient>
	<path fill="url(#SVGID_23_)" d="M1581.5,747.748c0,0,35.5-5.625,67,8.875c19.5,6.5,30,15.438,64,13.938s4,2.469,39.5,12.469
		c2.5,2.5,26.5,16.484,36.5,21.484s33.5,11.992,46,26.492s38.75,20.496,52.75,23.496s32.75,16.996,32.75,16.996v50.5l-346.75-113.5
		L1581.5,747.748z"/>
	<linearGradient id="SVGID_24_" gradientUnits="userSpaceOnUse" x1="330.2236" y1="835.998" x2="330.2236" y2="656.2578">
		<stop  offset="0" style="stop-color:#212121"/>
		<stop  offset="0.7351" style="stop-color:#353549"/>
	</linearGradient>
	<path fill="url(#SVGID_24_)" d="M0,705c0,0,25.582-8,45.916-5.332c-0.334-0.334,32.459-2.334,65.791-13.668c0,0,27.73-10,58.73-14
		c0,0,24.031-7.998,37.697-9.998s14.683-4.334,28.35-4c13.666,0.334,20.174-4.062,28.508-0.033
		c8.334,4.031,15.004,2.779,28.004,13.279s16.502,7.5,24.252,11c0,0,16.002,5.25,18.502,11.75c6,2,15.75,5.75,20,8.75
		c0.25,0.5,24.25,9.25,31.75,15.75c0,0,31,19.5,62.5,30c0.5,0.25,46.5,16.75,72.25,23.25c-0.25,0,78.25,27.75,98.5,42.25
		s27,15.75,39.25,19.25s-231-12.25-231-12.25l-260,1l-102.75,14l-66.25-20V705z"/>
	<linearGradient id="SVGID_25_" gradientUnits="userSpaceOnUse" x1="318.333" y1="892.6641" x2="318.333" y2="755.9673">
		<stop  offset="0" style="stop-color:#202020"/>
		<stop  offset="0.7351" style="stop-color:#303044"/>
	</linearGradient>
	<path fill="url(#SVGID_25_)" d="M76.02,811.236c0,0,18.48-6.57,26.48-10.57c0.334,0.666,21.334-9,30-12.666
		c1.666,0.332,16.666-7.666,32.666-8c0.334,0.666,17.334-3.002,25.666-6.502c-0.332,0.502,15.334-3.166,21.334-3.166
		c0.334,0,10.666-6.332,33-8c0,0,19.334-4.998,42.666-4.666c0.334,0.334,36.334-2,44-1.666c7.668,0.334,37,1.998,47.334,8.666
		c0-0.334,21,12.666,41.666,13c1,0.334,29,8,49,16c1,1,17,10.602,36.666,12.467c19.668,1.867,48.334,3.201,53.002,3.533
		c4.666,0.334,5,14.766,5,14.766l-155.334,35.566l-122,30.668l-86.334,1.998l-128.666-66L76.02,811.236z"/>
	<linearGradient id="SVGID_26_" gradientUnits="userSpaceOnUse" x1="1479" y1="981.998" x2="1479" y2="690.9819">
		<stop  offset="0" style="stop-color:#202020"/>
		<stop  offset="0.7351" style="stop-color:#303044"/>
	</linearGradient>
	<path fill="url(#SVGID_26_)" d="M1038,817.998c0,0,48.5-18.5,66-22c2.5,0,66.5-17.561,76-23.029c9.5-5.471,38-21.971,60.5-30.471
		c1,0,18.5-15.5,47.5-18.5c0,1,33.861-17,51.681-23c1.319,0.5,23.819-16,72.819-7.5c20.5,5.5,33.5-2.375,37-2.438
		s9-1.562,31.5,11.938s70,27.5,70,27.5s37.5,4,43.5,14c0,0,24.5,19,51,22c3,2,13.5,5,30,19c1,0,42,18.5,91.5,24
		c1.5,0,24-1.5,37.5,8.5c2,2.5,8,6.5,24,23.5c0,0,11.75,21.5,37.25,26.5c0,0,48.25,20.5,54.25,31v83l-750.75-23l-122.875-29
		L1038,817.998z"/>
	<linearGradient id="SVGID_27_" gradientUnits="userSpaceOnUse" x1="109.4844" y1="908.998" x2="109.4844" y2="773.498">
		<stop  offset="0" style="stop-color:#202020"/>
		<stop  offset="0.8197" style="stop-color:#2B2B3F"/>
	</linearGradient>
	<path fill="url(#SVGID_27_)" d="M0,773.498c0,0,17.75,18,48.25,27c0,0,12.078,4.336,27.645,10.738
		c16.588,6.824,37.34,15.992,52.043,24.762c1.5,2.5,33.531,7.5,91.031,47.5c0,0.5-45.484,20-45.484,20l-105.492,3.17l-52.746,2.33
		L0,906.668V773.498z"/>
	<linearGradient id="SVGID_28_" gradientUnits="userSpaceOnUse" x1="1004.543" y1="960.998" x2="1004.543" y2="772.9688">
		<stop  offset="0" style="stop-color:#202020"/>
		<stop  offset="0.7342" style="stop-color:#2B2B3F"/>
	</linearGradient>
	<path fill="url(#SVGID_28_)" d="M676.186,833.584c0,0,48.646-27.25,107.646-37.916c23.332-3.668,20.999-8.666,37.332-10
		c0.334,0.332,8.334-0.668,27.668-7.334c0.332,0,13.666-1,21.666-4.334c1.666-0.332,12.666-4.666,32,7.334
		c0,1.334,38.998,18.549,80.666,21.941c0.667,0.061,7.666,2.395,32,5.061s37.668,6.666,51.002,11.334
		c13.332,4.666,54.666,28.334,71,33.666c16.332,5.334,58.67,11.996,82.336,26.996S1257.168,899,1270.168,902
		s35.666,9.666,49.666,16.666S1333.502,936,1339.502,937S1199.5,960.998,1199.5,960.998l-235.332-2.666l-186.002-0.666L669.404,909
		L676.186,833.584z"/>
	<linearGradient id="SVGID_29_" gradientUnits="userSpaceOnUse" x1="457.0527" y1="1036.9238" x2="457.0527" y2="806.1328">
		<stop  offset="0" style="stop-color:#202020"/>
		<stop  offset="0.7342" style="stop-color:#27273B"/>
	</linearGradient>
	<path fill="url(#SVGID_29_)" d="M0,906.668c0,0,29.25-13.17,79.25-11.67c0,0,10.793-6.832,36.625-4.166
		c0.334,0,19.812,1.166,27.312,0.916c0.75-0.25,7.031,5.25,39.531-8.25c-0.25,0,27.516-10.25,35.516-11.5
		c0.75,0.25,13.758-5.5,39.758,0c6.75,1.75,16.004,0.221,23.254-2.389c-0.5,0.389,20.502-12.361,46.752-12.611
		c0.75,0.5,31.502-4.998,51.836-7.998c20.332-3,34.998-8.334,55.666-9.334c20.666-1,48-18.334,76.334-20
		c28.334-1.668,29-15.334,50.666-13.334c21.668,2,61.334,18.197,69,18.1c7.668-0.1,56.334,10.234,86,22.568
		c29.666,12.332,43.666,31.332,93,49.332c49.332,18,90.332,27.334,101.998,33c11.668,5.666-44,14.666-44,14.666l-209,62.258
		l-94,30.668l-115.582-22.262L0,934.662V906.668z"/>
	<linearGradient id="SVGID_30_" gradientUnits="userSpaceOnUse" x1="1231.958" y1="1082.998" x2="1231.958" y2="913.0762">
		<stop  offset="0" style="stop-color:#202020"/>
		<stop  offset="1" style="stop-color:#202020"/>
	</linearGradient>
	<path fill="url(#SVGID_30_)" d="M555,1023.666c0,0,31.5-30.666,65-41.666c0.166,0,17-26.002,45.5-30.752s25.25-17.5,38-19
		s50.5-7.5,83.25-4.75s26.25-5,55.75,3.5c9.25,4.5,23.25-8.75,35.5-7s21.5-2.5,32.25-4s14-4.5,38.75-5.75s70.25-0.75,78.5,1.5
		s35-13.25,92.25,12c28.5,14,75.75,5.25,82,8s57-1,62.75-1s40.5-6.75,55.75-2.25c0.25,0.25,53-0.75,68.5,4s69.5,11.75,79.25,9.25
		s32.75-0.25,41.75,1.75s30.916-8.998,42.916-4.998s30.834,3.166,43.5,0.5c12.668-2.668,52-10.668,68.668-11.668
		c16.666-1,23.416-5.834,49.416,3.666s82.25,18,97.5,18.75s36.5,8.5,70.75,7s18.5,3,37.5,4v118.25l-1376.084-24.334L555,1023.666z"
		/>
	<linearGradient id="SVGID_31_" gradientUnits="userSpaceOnUse" x1="334.6982" y1="1085.3359" x2="334.6982" y2="906.668">
		<stop  offset="0" style="stop-color:#202020"/>
		<stop  offset="1" style="stop-color:#202020"/>
	</linearGradient>
	<path fill="url(#SVGID_31_)" d="M0,906.668c0,0,16.584,14,85.25,9.332c-3.334,0.668,65.459,0.668,134.125,28
		c33.75,2.998,62.729,2,132.729-10c1.334,0,20.031-4,57.365,17.334c-2,0,78.016,37.029,115.35,53.516
		c37.332,16.486,62.008,39.818,125.341,35.818s-49.996,25.334-49.996,25.334l-369.997,12.666l-202.25,6.668L0,1082.998V906.668z"/>
	<path fill="#1C1C1C" d="M0,1012.998c0,0,39.25,4,50.5,0.25c0.25-0.25,18.375-9.555,33.125,0.973c24.5,0.277,19.062,11.723,49.062,0
		c-0.25,0.277,4.281-4.412,19.281,0.184c-0.25,0.094,1.766,2.904,18.016,0c0.75,0.344,37.508-12.406,68.008-6.656
		s40.754,7,51.254,6.25s7.752,3.75,18.752,4.5s7.752,6.338,21.502,1.17c13.75-5.17,16-8.67,38.5-9.17
		c1.5,0.25,22.75-3.75,43.25,0.75c1,0.25,10.5-7.5,26.5-3.75s59.25,0.25,89.25,8.75s36.198,12.893,65.975,16.822
		c29.775,3.928,7.775,3.928,7.775,3.928l-283.25,11.25l-224.5,5.25L12.75,1051H0V1012.998z"/>
	<path fill="#1C1C1C" d="M637.25,1036.248c0,0,78.75-24.75,99.5-24.25s47.75,7.75,70.75,4s15.25,4.484,45.5-4.008
		s37.5-7.492,48.25-6.492s30,2.75,53,1s30.75,0,72.5,5s36,1,72.5,4s42-2.25,74.5,2.75s83.75,7,100.5,4s38.25-2.75,61.75,1.5
		s32.75,1.25,84.75,6s65.25,5.25,117.25,6.5c11.5-0.25,45.75-6,79.5,3.25s70-1.5,95,5.25c8.5,0.75,95,8.5,122.5,5.75
		s85,11.25,85,11.25v7.25l-1300.25-27.5L637.25,1036.248z"/>
	<path fill="#161616" d="M0,1038.748c0,0,113.75,0.51,179.25,3.943c0-0.068,206.625-9.631,243.625-8.631s83.562,3.32,131.562-0.105
		c2,0.574,130.531-4.441,188.531-2.941s137.016-8.072,219.516-0.289c82.5,7.781,150.508,5.475,222.508,4.377
		c-0.5,1.4,136.504,1.398,169.004,3.898s168.502,12.5,200.502,10c0,0.5,153.752,10.498,223.752,6.498s134.75,7,141.75,9V1083H0
		V1038.748z"/>
	<path fill="#0E0E0E" d="M0,1080.279c0,0,53.918,6.596,151.918-0.023c98-6.617,288.791-33.104,310.125-32.002
		c21.334,1.105,181.395-13.309,277.395-0.039c24,2.24,130.698,3.908,212.699,14.658c82,10.746,136.682-12.42,258.682-12.42
		s240.676,1.098,302.008,18.75c61.334,17.65,128.174-1.203,213.756,7.975c77.35,8.297,136.418-19.871,193.418,5.498V1216H0V1080.279
		z"/>
</g>
</svg>
