<?xml version="1.0" encoding="utf-8"?>
<!-- Generator: Adobe Illustrator 16.0.4, SVG Export Plug-In . SVG Version: 6.00 Build 0)  -->
<!DOCTYPE svg PUBLIC "-//W3C//DTD SVG 1.1//EN" "http://www.w3.org/Graphics/SVG/1.1/DTD/svg11.dtd">
<svg version="1.1" id="Layer_1" xmlns="http://www.w3.org/2000/svg" xmlns:xlink="http://www.w3.org/1999/xlink" x="0px" y="0px"
	 width="399.988px" height="400.001px" viewBox="0 0 399.988 400.001" enable-background="new 0 0 399.988 400.001"
	 xml:space="preserve">
<rect x="-0.045" y="0.814" fill="#1B5668" width="399.988" height="400.001"/>
<g>
	<g opacity="0.1">
		<path d="M194.781,236.224l-91.625-88.063v119.202c0,3.881,3.279,7.033,7.326,7.033H289.43c4.039,0,7.324-3.152,7.324-7.033
			v-119.21l-91.623,88.071C202.266,238.978,197.633,238.978,194.781,236.224z"/>
		<path d="M205.131,180.396c-2.852-2.748-7.498-2.748-10.35,0l-91.539,87.985c0.516,3.4,3.555,6.014,7.24,6.014H289.43
			c3.678,0,6.717-2.613,7.234-6.014L205.131,180.396z"/>
		<path d="M205.131,189.592c-2.852-2.482-7.498-2.482-10.35,0l-91.539,79.376c0.516,3.072,3.555,5.428,7.24,5.428H289.43
			c3.678,0,6.717-2.355,7.234-5.428L205.131,189.592z"/>
		<path d="M194.863,236.866c2.854,2.75,7.5,2.75,10.352,0l91.539-87.985c-0.518-3.4-3.555-6.01-7.24-6.01H110.566
			c-3.68,0-6.717,2.609-7.234,6.01L194.863,236.866z"/>
		<path d="M194.771,231.929c2.854,2.605,7.5,2.605,10.352,0l91.541-83.364c-0.52-3.221-3.559-5.693-7.244-5.693H110.475
			c-3.678,0-6.717,2.473-7.232,5.693L194.771,231.929z"/>
		<path d="M194.863,227.673c2.854,2.482,7.5,2.482,10.352,0l91.539-79.374c-0.518-3.074-3.555-5.428-7.24-5.428H110.566
			c-3.68,0-6.717,2.354-7.234,5.428L194.863,227.673z"/>
	</g>
	<g>
		<g>
			<g>
				<path fill="#FCFFD4" d="M194.781,232.224l-91.625-88.063v119.202c0,3.881,3.279,7.033,7.326,7.033H289.43
					c4.039,0,7.324-3.152,7.324-7.033v-119.21l-91.623,88.071C202.266,234.978,197.633,234.978,194.781,232.224z"/>
				<path fill="#7FD9FF" d="M205.131,176.396c-2.852-2.748-7.498-2.748-10.35,0l-91.539,87.985c0.516,3.4,3.555,6.014,7.24,6.014
					H289.43c3.678,0,6.717-2.613,7.234-6.014L205.131,176.396z"/>
				<path fill="#FCFFD4" d="M205.131,185.592c-2.852-2.482-7.498-2.482-10.35,0l-91.539,79.376c0.516,3.072,3.555,5.428,7.24,5.428
					H289.43c3.678,0,6.717-2.355,7.234-5.428L205.131,185.592z"/>
			</g>
			<path fill="#7FD9FF" d="M194.863,232.866c2.854,2.75,7.5,2.75,10.352,0l91.539-87.985c-0.518-3.4-3.555-6.01-7.24-6.01H110.566
				c-3.68,0-6.717,2.609-7.234,6.01L194.863,232.866z"/>
			<path fill="#7FD9FF" d="M194.771,227.929c2.854,2.605,7.5,2.605,10.352,0l91.541-83.364c-0.52-3.221-3.559-5.693-7.244-5.693
				H110.475c-3.678,0-6.717,2.473-7.232,5.693L194.771,227.929z"/>
			<path fill="#FCFFD4" d="M194.863,223.673c2.854,2.482,7.5,2.482,10.352,0l91.539-79.374c-0.518-3.074-3.555-5.428-7.24-5.428
				H110.566c-3.68,0-6.717,2.354-7.234,5.428L194.863,223.673z"/>
		</g>
	</g>
</g>
<path fill="#A9DEFF" d="M399.988,25.814V0.001h-0.045h-24.592H24.549H-0.012v25.405v350.81v24.594v-0.809h24.988l0,0h350l0,0h25.012
	l0,0l0,0v-24.187l0,0V25.814L399.988,25.814z M374.988,375.001h-350v-350h350V375.001z"/>
</svg>
