<?xml version="1.0" encoding="utf-8"?>
<!-- Generator: Adobe Illustrator 16.0.4, SVG Export Plug-In . SVG Version: 6.00 Build 0)  -->
<!DOCTYPE svg PUBLIC "-//W3C//DTD SVG 1.1//EN" "http://www.w3.org/Graphics/SVG/1.1/DTD/svg11.dtd">
<svg version="1.1" id="Layer_1" xmlns="http://www.w3.org/2000/svg" xmlns:xlink="http://www.w3.org/1999/xlink" x="0px" y="0px"
	 width="399.988px" height="400.001px" viewBox="0 0 399.988 400.001" enable-background="new 0 0 399.988 400.001"
	 xml:space="preserve">
<rect x="-0.396" y="-0.002" fill="#1B5668" width="399.988" height="400.001"/>
<path fill="#A9DEFF" d="M400,25V0h-0.408H375H24.197H0v24.591v350.809v24.594V400h24l0,0h351l0,0h25l0,0l0,0v-25l0,0V25L400,25z
	 M375,375H24V25h351V375z"/>
<g>
	<g opacity="0.1">
		<path fill-rule="evenodd" clip-rule="evenodd" d="M199.691,106.604c-58.803,0-106.484,47.672-106.484,106.483
			c0,47.045,30.51,86.959,72.82,101.039c5.32,0.987,7.275-2.309,7.275-5.123c0-2.536-0.099-10.928-0.145-19.823
			c-29.624,6.44-35.875-12.563-35.875-12.563c-4.844-12.307-11.823-15.581-11.823-15.581c-9.66-6.608,0.729-6.475,0.729-6.475
			c10.692,0.751,16.323,10.977,16.323,10.977c9.498,16.276,24.91,11.569,30.986,8.849c0.958-6.879,3.715-11.58,6.762-14.238
			c-23.652-2.69-48.514-11.823-48.514-52.625c0-11.623,4.158-21.125,10.971-28.581c-1.105-2.683-4.752-13.513,1.033-28.179
			c0,0,8.941-2.862,29.289,10.916c8.492-2.359,17.602-3.543,26.652-3.584c9.048,0.041,18.164,1.225,26.674,3.584
			c20.324-13.778,29.254-10.916,29.254-10.916c5.797,14.666,2.152,25.496,1.047,28.179c6.828,7.456,10.957,16.958,10.957,28.581
			c0,40.901-24.91,49.904-48.623,52.54c3.82,3.305,7.225,9.786,7.225,19.719c0,14.248-0.123,25.716-0.123,29.222
			c0,2.837,1.916,6.154,7.314,5.111c42.287-14.097,72.76-53.996,72.76-101.027C306.176,154.276,258.5,106.604,199.691,106.604"/>
		<path d="M133.539,259.49c-0.235,0.53-1.066,0.688-1.824,0.325c-0.775-0.35-1.207-1.069-0.958-1.602
			c0.231-0.542,1.062-0.693,1.836-0.332C133.364,258.229,133.805,258.96,133.539,259.49"/>
		<path d="M137.852,264.302c-0.506,0.47-1.502,0.251-2.173-0.493c-0.699-0.742-0.827-1.735-0.313-2.214
			c0.523-0.469,1.488-0.248,2.184,0.492C138.248,262.838,138.382,263.822,137.852,264.302"/>
		<path d="M142.05,270.432c-0.651,0.455-1.72,0.031-2.38-0.916c-0.652-0.949-0.652-2.084,0.018-2.538
			c0.658-0.455,1.711-0.045,2.379,0.892C142.718,268.834,142.718,269.969,142.05,270.432"/>
		<path d="M147.801,276.358c-0.582,0.645-1.824,0.471-2.736-0.409c-0.932-0.857-1.189-2.077-0.605-2.719
			c0.592-0.646,1.842-0.464,2.76,0.407C148.143,274.494,148.423,275.722,147.801,276.358"/>
		<path d="M155.736,279.799c-0.258,0.834-1.453,1.211-2.66,0.856c-1.204-0.365-1.992-1.34-1.748-2.182
			c0.25-0.841,1.451-1.236,2.667-0.856C155.197,277.98,155.988,278.95,155.736,279.799"/>
		<path d="M164.453,280.437c0.029,0.878-0.994,1.604-2.26,1.622c-1.273,0.027-2.304-0.682-2.319-1.547
			c0-0.888,1.003-1.607,2.272-1.629C163.413,278.857,164.453,279.565,164.453,280.437"/>
		<path d="M172.561,279.056c0.15,0.855-0.727,1.735-1.984,1.97c-1.236,0.228-2.381-0.303-2.538-1.15
			c-0.153-0.878,0.741-1.76,1.978-1.987C171.273,277.671,172.402,278.184,172.561,279.056"/>
	</g>
	<g>
		<g>
			<g>
				<g>
					<path fill-rule="evenodd" clip-rule="evenodd" fill="#FCFFD4" d="M199.691,102.604c-58.803,0-106.484,47.672-106.484,106.483
						c0,47.045,30.51,86.959,72.82,101.039c5.32,0.987,7.275-2.309,7.275-5.123c0-2.536-0.099-10.928-0.145-19.823
						c-29.624,6.44-35.875-12.563-35.875-12.563c-4.844-12.307-11.823-15.581-11.823-15.581c-9.66-6.608,0.729-6.475,0.729-6.475
						c10.692,0.751,16.323,10.977,16.323,10.977c9.498,16.276,24.91,11.569,30.986,8.849c0.958-6.879,3.715-11.58,6.762-14.238
						c-23.652-2.69-48.514-11.823-48.514-52.625c0-11.623,4.158-21.125,10.971-28.581c-1.105-2.683-4.752-13.513,1.033-28.179
						c0,0,8.941-2.862,29.289,10.916c8.492-2.359,17.602-3.543,26.652-3.584c9.048,0.041,18.164,1.225,26.674,3.584
						c20.324-13.778,29.254-10.916,29.254-10.916c5.797,14.666,2.152,25.496,1.047,28.179c6.828,7.456,10.957,16.958,10.957,28.581
						c0,40.901-24.91,49.904-48.623,52.54c3.82,3.305,7.225,9.786,7.225,19.719c0,14.248-0.123,25.716-0.123,29.222
						c0,2.837,1.916,6.154,7.314,5.111c42.287-14.097,72.76-53.996,72.76-101.027C306.176,150.276,258.5,102.604,199.691,102.604"/>
					<path fill="#FCFFD4" d="M133.539,255.49c-0.235,0.53-1.066,0.688-1.824,0.325c-0.775-0.35-1.207-1.069-0.958-1.602
						c0.231-0.542,1.062-0.693,1.836-0.332C133.364,254.229,133.805,254.96,133.539,255.49"/>
					<path fill="#FCFFD4" d="M137.852,260.302c-0.506,0.47-1.502,0.251-2.173-0.493c-0.699-0.742-0.827-1.735-0.313-2.214
						c0.523-0.469,1.488-0.248,2.184,0.492C138.248,258.838,138.382,259.822,137.852,260.302"/>
					<path fill="#FCFFD4" d="M142.05,266.432c-0.651,0.455-1.72,0.031-2.38-0.916c-0.652-0.949-0.652-2.084,0.018-2.538
						c0.658-0.455,1.711-0.045,2.379,0.892C142.718,264.834,142.718,265.969,142.05,266.432"/>
					<path fill="#FCFFD4" d="M147.801,272.358c-0.582,0.645-1.824,0.471-2.736-0.409c-0.932-0.857-1.189-2.077-0.605-2.719
						c0.592-0.646,1.842-0.464,2.76,0.407C148.143,270.494,148.423,271.722,147.801,272.358"/>
					<path fill="#FCFFD4" d="M155.736,275.799c-0.258,0.834-1.453,1.211-2.66,0.856c-1.204-0.365-1.992-1.34-1.748-2.182
						c0.25-0.841,1.451-1.236,2.667-0.856C155.197,273.98,155.988,274.95,155.736,275.799"/>
					<path fill="#FCFFD4" d="M164.453,276.437c0.029,0.878-0.994,1.604-2.26,1.622c-1.273,0.027-2.304-0.682-2.319-1.547
						c0-0.888,1.003-1.607,2.272-1.629C163.413,274.857,164.453,275.565,164.453,276.437"/>
					<path fill="#FCFFD4" d="M172.561,275.056c0.15,0.855-0.727,1.735-1.984,1.97c-1.236,0.228-2.381-0.303-2.538-1.15
						c-0.153-0.878,0.741-1.76,1.978-1.987C171.273,273.671,172.402,274.184,172.561,275.056"/>
				</g>
			</g>
		</g>
	</g>
</g>
</svg>
