<?xml version="1.0" encoding="utf-8"?>
<!-- Generator: Adobe Illustrator 16.0.4, SVG Export Plug-In . SVG Version: 6.00 Build 0)  -->
<!DOCTYPE svg PUBLIC "-//W3C//DTD SVG 1.1//EN" "http://www.w3.org/Graphics/SVG/1.1/DTD/svg11.dtd">
<svg version="1.1" id="Layer_1" xmlns="http://www.w3.org/2000/svg" xmlns:xlink="http://www.w3.org/1999/xlink" x="0px" y="0px"
	 width="1920px" height="1215.934px" viewBox="0 0 1920 1215.934" enable-background="new 0 0 1920 1215.934" xml:space="preserve">
<g>
	<linearGradient id="SVGID_1_" gradientUnits="userSpaceOnUse" x1="960" y1="755.8311" x2="959.9999" y2="-4.882812e-04">
		<stop  offset="0" style="stop-color:#FCFFD4"/>
		<stop  offset="0.4339" style="stop-color:#7FD9FF"/>
		<stop  offset="0.7459" style="stop-color:#A9DEFF"/>
	</linearGradient>
	<polygon fill="url(#SVGID_1_)" points="0,0 0,754.662 1920,755.831 1920,0 	"/>
	<linearGradient id="SVGID_2_" gradientUnits="userSpaceOnUse" x1="1058.4111" y1="782.8682" x2="1058.4111" y2="460.1646">
		<stop  offset="0.3484" style="stop-color:#959EAD"/>
		<stop  offset="0.9333" style="stop-color:#1A7B99"/>
	</linearGradient>
	<path fill="url(#SVGID_2_)" d="M1738.644,528.897c0,0-91.321,17.332-117.318,27.996c-1.334,4.668-35.332-13.331-47.996-13.998
		c-12.665-0.665-38.663-8.664-44.661-7.999c-6,0.669-16,2-25.33,0c-9.333-2-13.833,1.333-24.249,2
		c-10.415,0.667-42.409-4.665-47.076-4c-4.666,0.668-18.666,9.437-27.331,10.387c-0.666,0.28-73.322-34.384-99.32-35.716
		c0.666,1.334-16.667-6.765-29.997,8.283c-1.334,1.051-33.594,10.882-60.827,12.216c-0.572,0.666-5.165,7.499-25.163,0.165
		c0.666,1.334-8.667-6.664-22.666-2.666c0.669,0.667-10.197-5.999-27.762-5.333c-17.565,0.667-20.565-2.084-26.065-2.834
		s-18.748-3.749-24.498-3.749s-6.25-6.749-17.248-8.749s-18.497-4.5-18.497-4.5s-9.25-12.831-18.248-12.496
		c-8.999,0.332-13.666-1.015-15.999-0.008c-2.331,1.008-17.664-11.992-23.328-11.325c-5.669,0.666-23.666-12.333-38.33-11.666
		c-14.667,0.667-30.664-12.666-40.664,2.667c-10,15.33-19.33,11.331-27.996,13.33c-8.665,2-19.332,5.334-29.996,5.334
		c-10.667,0-19.332-8-27.997,0c-2.666,4.165-19.164,4.416-24.665,7.665c-5.499,3.249-16.497,1.249-21.996,2.25
		c-5.5,0.999-37.996,2.749-42.745,5.499s-36.746,13.249-41.995,18.748c-5.251,5.5-15.248,4.999-25.747,13.749
		c0,0-41.245,5.653-75.241,2.951c-0.5,0.048-46.495-5.201-94.739-20.199c-0.501,0.25-14.499-6.5-18.999-5.25
		c0,0-15-6.25-24.247-0.251c-2.25,1.751-24.247-2.999-27.746-4.999c-3.5-1.999-14.496-0.249-23.496-0.749
		c0,0-8.501-2.5-12.251,1.499c0.25-0.249-6.749,1-9.248,3.25c-2.5,2.249-10.755-2.745-14.748-1.484
		c-3.996,1.265-12.25,3.234-12.25,3.234l381.56,244.058l784.373,26.661l230.96-225.608L1738.644,528.897z"/>
	<linearGradient id="SVGID_3_" gradientUnits="userSpaceOnUse" x1="931.519" y1="672.376" x2="931.519" y2="570.8149">
		<stop  offset="0.3476" style="stop-color:#828D9E"/>
		<stop  offset="1" style="stop-color:#1A6B84"/>
	</linearGradient>
	<path fill="url(#SVGID_3_)" d="M724.093,632.885c0,0,28.662-24.664,37.33-25.33c1.331-0.666,15.329-4.971,19.329-10.151
		c3.999-5.179,49.676-1.142,69.328-12.743c0,0,8.663-19.099,121.317-12.434c8,2.666,8.997,8.864,36.33,13.334
		c27.991,4.574,25.747,13.328,46.369,19.329c20.622,5.999,58.618,26.514,83.282,52.253c24.664,25.737-249.972,11.074-249.972,11.074
		l-121.487-8.559L724.093,632.885z"/>
	<linearGradient id="SVGID_4_" gradientUnits="userSpaceOnUse" x1="1342.6372" y1="713.248" x2="1342.6372" y2="620.0811">
		<stop  offset="0.2137" style="stop-color:#717E91"/>
		<stop  offset="1" style="stop-color:#1B738E"/>
	</linearGradient>
	<path fill="url(#SVGID_4_)" d="M1128.38,659.883c0,0,8.498-8.999,33.801-16.558c8.133-2.43,13.863-9.374,17.194-10.774
		c0.171-0.085,10.656-3.263,20.996-2.56c6.538,0.444,15.09-4.33,24.746-3.604c7.373,0.552,18.935,4.296,27.748,4.998
		c6.229,0.498,17.695-1.279,24.508-0.712c7.871,0.657,21.735-13.535,34.734-10.036c6.285,1.692,14.07,7.651,31.497,9.354
		c6.528,0.638,18.997,9.67,32.583,8.912c11.992-0.669,22.272,5.173,28.159,6.23c7.968,1.436,19.696-0.663,28,3.719
		c3.372,1.78,11.976-1.893,14.996,1.136c6.999,7.02,9.149,1.634,13.493,2.445c54.969,10.291,85.447,20.262,94.496,29.707
		c24.664,25.736-250.907,31.107-250.907,31.107l-120.552-28.593L1128.38,659.883z"/>
	<linearGradient id="SVGID_5_" gradientUnits="userSpaceOnUse" x1="286.292" y1="626.2207" x2="286.292" y2="488.2983">
		<stop  offset="0.2242" style="stop-color:#8B94A3"/>
		<stop  offset="1" style="stop-color:#1B7793"/>
	</linearGradient>
	<path fill="url(#SVGID_5_)" d="M109.494,531.397c0,0,31.996-7.5,45.494-7.5c13.499,0,47.161-3.999,54.995-6.331
		c7.832-2.334,51.826-25.33,54.493-27.997c2.666-2.665,13.665-0.665,16.332,1.666c-0.334-0.665,17.331,1.335,21.331,2.668
		c4,1.332,19.942,5.997,28.303,5.665c8.358-0.334,56.354,18.33,67.354,17.998c10.999-0.334,41.995,14.665,48.327,13.831
		c6.332-0.833,16.967,14.499,16.967,14.499l-54.628,68.325l-97.991,11.999L109.494,531.397z"/>
	<linearGradient id="SVGID_6_" gradientUnits="userSpaceOnUse" x1="695.2026" y1="657.1426" x2="695.2026" y2="577.6602">
		<stop  offset="0.0888" style="stop-color:#7A8699"/>
		<stop  offset="1" style="stop-color:#1B738E"/>
	</linearGradient>
	<path fill="url(#SVGID_6_)" d="M575.658,577.66c0,0,58.11,16.597,86.441,23.581c0,0,14.333,7.317,19.997,11.982
		c5.666,4.667,37.329,10.998,38.663,10.998c1.333,0,17.996,8.239,27.996,3.954c2-1.953,12.667,5.046,12.667,5.046
		s18.663,9.998,22.328,10.667c3.667,0.666,14.999,2.998,17.667,4.332c2.666,1.333,13.329,8.922,13.329,8.922l-144.982-16.848
		L575.658,577.66z"/>
	<linearGradient id="SVGID_7_" gradientUnits="userSpaceOnUse" x1="496.1074" y1="665.3818" x2="496.1074" y2="537.0986">
		<stop  offset="0.235" style="stop-color:#717E91"/>
		<stop  offset="1" style="stop-color:#1B738E"/>
	</linearGradient>
	<path fill="url(#SVGID_7_)" d="M344.968,617.387c0,0,34.496-27.997,52.493-43.495c17.998-15.497,16.499-16.998,30.997-23.496
		c14.499-6.5,16.997-14.999,27.497-12.999c10.499,2,31.496,5.499,45.494,12.999c14,7.499,29.498,5.499,37.497,11.998
		c7.997,6.499,25.496,13.701,34.494,14.85c9.001,1.148,22.884,10.147,34.439,13.147c11.556,2.999,28.391,6.999,36.721,12.999
		c8.331,5.998-5.667,34.496-5.667,34.496l-151.982,27.496L344.968,617.387z"/>
	<linearGradient id="SVGID_8_" gradientUnits="userSpaceOnUse" x1="209.729" y1="637.8857" x2="209.729" y2="486.9023">
		<stop  offset="0.2773" style="stop-color:#6B7789"/>
		<stop  offset="1" style="stop-color:#1B738E"/>
	</linearGradient>
	<path fill="url(#SVGID_8_)" d="M0,486.902c0,0,10.753,3.499,20.251,5.998c9.5,2.5,19.124,9.5,36.622,14.5
		c0,0,7.229,3.165,13.396,6.996c6.165,3.834,8.695,2.169,16.695,4.5c7.999,2.334,21.681,5.501,29.512,8.166
		c7.834,2.666,65.168,12,76.667,19.833c11.499,7.831,49.999,22.498,59.331,25.497s42.996,18.163,54.994,23.663
		c12,5.499,26.332,16.667,38.496,17.665c12.168,1.001,11.335-1.832,26.667,2.002c15.33,3.834,20.999,7.832,27.162,10.832
		c6.167,3,19.664,9.83,19.664,9.83l-123.15,1.501l-150.402-23.498L0,604.89V486.902z"/>
	<linearGradient id="SVGID_9_" gradientUnits="userSpaceOnUse" x1="1650.1025" y1="782.8682" x2="1650.1025" y2="517.1079">
		<stop  offset="0.2405" style="stop-color:#637084"/>
		<stop  offset="1" style="stop-color:#1B7793"/>
	</linearGradient>
	<path fill="url(#SVGID_9_)" d="M1384.35,699.129c0,0,78.492-45.121,115.986-44.121c1,1.5,34.998-3.062,53.995-21.06
		c-0.5,1.5,43.495-28.529,67.992-35.528c24.497-6.998,58.493-39.01,63.991-41.51c5.5-2.5,47.496-35.504,60.493-38.004
		c0,1,0-4.504,25.499-0.003c0.999,0.499,26.994,8.496,31.494,8.996c4.5,0.501,23.499,2.999,29.498,4
		c6.001,0.999,23.498,4.496,35.997,9.497c12.498,4.999,22.497,6.499,27.497,4.999c4.998-1.499,11.854-0.5,16.354,1.5
		c4.5,1.999,6.854,3,6.854,3v231.973l-539.795-26.661L1384.35,699.129z"/>
	<linearGradient id="SVGID_10_" gradientUnits="userSpaceOnUse" x1="1083.6704" y1="757.5947" x2="1083.6704" y2="616.6406">
		<stop  offset="0.4844" style="stop-color:#5C687C"/>
		<stop  offset="1" style="stop-color:#19677F"/>
	</linearGradient>
	<path fill="url(#SVGID_10_)" d="M834.912,668.882c0,0,16.998-17.499,35.995-20.498c0,0,24.498-1,34.997-5
		c0.5,0,27.996-18.497,45.496-24.996c0.998,1,34.495-8.921,61.991,9.788c2.5,1.71,7.999,5.71,24.497,8.209
		c16.498,2.5,23.498-0.499,29.496,4c5.999,4.5,21.498,4.252,28.996,2.377c7.5-1.877,18.499-2.878,32.998,3.123
		c14.498,5.998,16.998,5.498,60.492,22.997c20.999,13.499,31.998,3.999,34.996,2.5c3-1.499,6.5-6.71,24.498,4.643
		c17.998,11.356,31.996,14.321,41.995,15.839c10,1.516,38.995,18.015,40.995,20.514c2.001,2.499-37.996,45.218-37.996,45.218
		l-306.465-24.22l-143.484,6.999L834.912,668.882z"/>
	<linearGradient id="SVGID_11_" gradientUnits="userSpaceOnUse" x1="1715.8359" y1="756.207" x2="1715.8359" y2="577.2275">
		<stop  offset="0.1209" style="stop-color:#566277"/>
		<stop  offset="1" style="stop-color:#1B738E"/>
	</linearGradient>
	<path fill="url(#SVGID_11_)" d="M1511.672,730.042c0,0,18.664-11.583,43.66-31.579c5.334-1.333,24.664-9.955,44.995-18.288
		c20.333-8.332,48.995-16.646,56.662-23.312c7.665-6.665,35.329-15.986,45.327-16.32c9.997-0.333,74.99-18.323,82.324-20.992
		c7.333-2.666,7.333-9.663,29.331-8.662c21.997,1,25.331-7.329,34.995-11.663c9.665-4.333,11.666-7.613,14.665-7.947
		c3-0.334,15.332-3.278,15.332-3.278h19.329c0,0,12.521-7.55,16.189-8.218c3.664-0.665,5.518-2.555,5.518-2.555v157.647
		l-169.166,21.332l-235.568-8.657L1511.672,730.042z"/>
	<linearGradient id="SVGID_12_" gradientUnits="userSpaceOnUse" x1="644.6011" y1="707.3936" x2="644.6011" y2="597.4028">
		<stop  offset="0.2098" style="stop-color:#566277"/>
		<stop  offset="1" style="stop-color:#1A6B84"/>
	</linearGradient>
	<path fill="url(#SVGID_12_)" d="M463.09,640.295c0,0,38.025,0.258,52.359,2.592c0.333,0.331,31.995,4.665,38.329-9.999
		c0.664,0.332,6.663-4,10.663-2.667c0.336,0,2.101-4.666,11.217-5.666c0.449,0.334,32.445-19.664,34.779-21.664
		c2.332-1.999,10.999-6.001,15.332-5.333c4.331,0.665,8.04-1.668,19.038,1.832c11,3.499,6.874,6.124,12.874,8.375
		c5.999,2.249-4.249,4.374,32.496,17.872c8.25,3.249,11.999,9.499,23.749,10.999c11.749,1.5,28.496,5.249,28.496,5.249
		s24.247,8.499,40.244,9.998c15.998,1.502,15.499,2.251,21.498,2.001c5.998-0.25,5.998-4.483,27.497,3.259
		c21.498,7.739,4.084,15.748,25.082,20.91c20.996,5.162,23.996,13.811,23.996,13.811l-184.313,15.53l-135.984-11.646l-151.98-13.198
		L463.09,640.295z"/>
	<linearGradient id="SVGID_13_" gradientUnits="userSpaceOnUse" x1="287.8291" y1="698.4624" x2="287.8291" y2="582.1284">
		<stop  offset="0.2098" style="stop-color:#4F5B70"/>
		<stop  offset="1" style="stop-color:#19677F"/>
	</linearGradient>
	<path fill="url(#SVGID_13_)" d="M0,592.89c0,0,33.249-4.999,49.748-4.498c0,0,8.291,0.596,14.625-0.036
		c6.334-0.631,52.057-14.631,107.385,1.535c55.326,16.164,57.356,23.497,75.688,25.666c18.334,2.164,5.352-6.669,50.678,0
		c8.833,0.583,34.338,1.83,40.087,10.08c0,0,4.255,4.577,21.001,2.539c16.749-2.039,17.003-3.664,23.751,0.523
		c6.748,4.186,16.748,6.937,28.997,2.438c12.248-4.5,20.748-3.625,37.497,2.312c16.748,5.937,42.495,8.938,63.991,21.685
		c21.498,12.749,39.247,19.498,59.744,35.997c20.498,16.497-93.49,0-93.49,0l-240.973-15.499L86.244,660.633L0,652.635V592.89z"/>
	<linearGradient id="SVGID_14_" gradientUnits="userSpaceOnUse" x1="29.394" y1="651" x2="29.394" y2="613.2627">
		<stop  offset="0.4089" style="stop-color:#48556B"/>
		<stop  offset="1" style="stop-color:#1B5668"/>
	</linearGradient>
	<path fill="url(#SVGID_14_)" d="M0,613.263c0,0,24.499,8.937,49.499,17.436c24.996,8.499-8.374,10.15-8.374,10.15L7.507,651H0
		V613.263z"/>
	<linearGradient id="SVGID_15_" gradientUnits="userSpaceOnUse" x1="873.9077" y1="729.374" x2="873.9077" y2="683.1309">
		<stop  offset="0.3043" style="stop-color:#3B495E"/>
		<stop  offset="1" style="stop-color:#1B4E5E"/>
	</linearGradient>
	<path fill="url(#SVGID_15_)" d="M765.92,683.131c0,0,35.496,9.498,63.241,2.499c27.748-6.999,49.746,5,67.494,5.25
		c17.747,0.25,21.747,14.248,46.495,14.998c24.745,0.748,38.745,11.997,38.745,11.997l-50.245,11.499l-93.239-4.25l-62.993-16.997
		L765.92,683.131z"/>
	<linearGradient id="SVGID_16_" gradientUnits="userSpaceOnUse" x1="331.7178" y1="740.2061" x2="331.7178" y2="628.1753">
		<stop  offset="0.2992" style="stop-color:#425066"/>
		<stop  offset="1" style="stop-color:#1B4A59"/>
	</linearGradient>
	<path fill="url(#SVGID_16_)" d="M0,641.552c0,0,29.588-14,42.586-13.334c1.334-0.333,30.458,1.333,46.456,3.665
		c0.333,0.668,56.39,5.334,75.388,15.333c0,0,16.03,9.334,40.028-2.333c0.666,0.999,14.014-0.998,35.011-2.332
		c20.997-1.333,12.008-7.999,45.669-1.668c0.334,0.335,24.67,11.403,47.332,9.868c1.001,0.464,21.665,5.799,48.663,13.129
		c0.666,1,22.334,2.668,25.998,6.999c0.334,0.667,34.927,9.331,50.127,6.665c0.203,0.669,44.195,3.001,64.861,8.668
		c0,0.332,30.318-3.334,42.322,0c0.006,0,56.666-23.664,97.663-9.334c0.665,0.334,1.331,48.331,1.331,48.331L331.97,740.206
		l-315.048-6.668L0,733.375V641.552z"/>
	<linearGradient id="SVGID_17_" gradientUnits="userSpaceOnUse" x1="463.0913" y1="750.5405" x2="463.0913" y2="692.3369">
		<stop  offset="0.4793" style="stop-color:#425066"/>
		<stop  offset="1" style="stop-color:#1A4654"/>
	</linearGradient>
	<path fill="url(#SVGID_17_)" d="M327.803,692.881c0,0,27.662-2.333,40.329,2.666c12.664,4.999,37.329,8.333,44.328,8.333
		c6.998,0,64.325-11.21,100.653-5.773c36.331,5.439,82.994,9.771,94.324,25.437c11.332,15.665-198.645,26.998-198.645,26.998
		l-90.49-31.663L327.803,692.881z"/>
	<linearGradient id="SVGID_18_" gradientUnits="userSpaceOnUse" x1="1710.168" y1="880.8574" x2="1710.168" y2="717.2461">
		<stop  offset="0.5183" style="stop-color:#323F54"/>
		<stop  offset="1" style="stop-color:#1A3E49"/>
	</linearGradient>
	<path fill="url(#SVGID_18_)" d="M1500.336,717.376c0,0,18.25,4.874,42.996-0.126c0.249,0,55.743-0.562,87.74,11.438
		c31.996,11.999,31.996,6.468,64.492,14.467c0.75,0.751,35.996-1.266,56.494,3.234c20.497,4.5,15.998-0.257,35.744-0.008
		c19.749,0.25,15.998-6.004,44.497-3.503c11.998,0.499,10.248-2.003,17.248-4.503c-0.251-0.249,10.749-6.748,25.746-7.999
		c14.999-1.249,23.104-4.25,32.103-1.251c8.998,3,12.604,0.249,12.604,0.249v151.483l-390.062-61.743L1500.336,717.376z"/>
	<linearGradient id="SVGID_19_" gradientUnits="userSpaceOnUse" x1="1206.6089" y1="762.6211" x2="1206.6089" y2="678.0508">
		<stop  offset="0.3043" style="stop-color:#3B495E"/>
		<stop  offset="1" style="stop-color:#1B5668"/>
	</linearGradient>
	<path fill="url(#SVGID_19_)" d="M1063.387,704.877c0,0,8.748,4.25,18.746-6.498c9.999-10.75,12-6.5,16.5-9.5
		c4.499-3,3.499-11.747,11.248-10.749c7.75,1.001,15.998,4,26.247,9.001c10.249,4.999,16.999,8.748,38.245,13.497
		c21.249,4.75,22.498,5.25,43.496,6.5c20.997,1.249,26.498,6.498,51.494,2.999c24.996-3.501,13.997,3.499,35.995-1.499
		c21.998-5,10.249-6.75,18.749-6.75c8.499,0,16.496-4.75,24.996-0.5c8.501,4.249-60.243,48.744-60.243,48.744l-61.494,12.499
		l-68.489-19.247l-87.742-9.999L1063.387,704.877z"/>
	<linearGradient id="SVGID_20_" gradientUnits="userSpaceOnUse" x1="1054.0952" y1="799.2031" x2="1054.0952" y2="695.7471">
		<stop  offset="0.4049" style="stop-color:#37455B"/>
		<stop  offset="1" style="stop-color:#1A434F"/>
	</linearGradient>
	<path fill="url(#SVGID_20_)" d="M863.492,718.876c0,0,23.915,4.667,36.246,2.668c0.666-0.334,59.326-20.665,79.657-21.332
		c-0.332,0.334,10.998-7.666,38.995-2.999c1,0.334,38.664,1.665,53.994,6.333c15.332,4.665,55.327,21.663,86.992,23.331
		c-0.669,0,32.326,6.999,52.658,16.664c20.331,9.667,32.663,15.667,32.663,15.667l-54.661,39.995l-135.94-2.334L867.74,749.875
		L863.492,718.876z"/>
	<linearGradient id="SVGID_21_" gradientUnits="userSpaceOnUse" x1="495.7739" y1="757.5947" x2="495.7739" y2="707.3921">
		<stop  offset="0.1624" style="stop-color:#344156"/>
		<stop  offset="1" style="stop-color:#1A4654"/>
	</linearGradient>
	<path fill="url(#SVGID_21_)" d="M378.673,713.88c0,0,30.12-4.997,58.783,4.337c28.664,9.333,74.658,9.659,96.989,8.658
		c0.333,0,26.329-0.667,48.662-11.665c-0.334-1,29.996-11.666,38.661-6.332c8.665,5.332-19.664,18.384-19.664,18.384l-83.325,30.333
		l-89.655-0.754l-60.992-22.633L378.673,713.88z"/>
	<linearGradient id="SVGID_22_" gradientUnits="userSpaceOnUse" x1="793.4165" y1="855.5293" x2="793.4165" y2="659.6587">
		<stop  offset="0.2649" style="stop-color:#2D3A4F"/>
		<stop  offset="1" style="stop-color:#1A3A44"/>
	</linearGradient>
	<path fill="url(#SVGID_22_)" d="M380.464,718.375c0,0,58.993,23.259,125.485,28.629c0.5-0.13,43.995-5.631,95.99-36.627
		c0.499,0.999,61.491-47.494,102.986-49.993c1.501,0.998,14.498-10.999,98.489,34.495c1.001,1,36.996,13.498,67.992,27.497
		c1.501,2,76.991,36.996,107.988,41.994c30.997,5.001,39.496,11.499,58.493,13c18.999,1.499,25.998,4.499,42.995,4.999
		c16.999,0.499,48.66-22.33,63.326-25.497c14.667-3.165,15.334-4.332,29.664-1.5c14.332,2.834,11.166,5.833,24.161,5.667
		c13-0.168,14,4.5,14,4.5l-25.994,47.994l-181.605,21.668l-335.1,20.328L374.798,807L380.464,718.375z"/>
	<linearGradient id="SVGID_23_" gradientUnits="userSpaceOnUse" x1="1746.5918" y1="922.8525" x2="1746.5918" y2="747.5488">
		<stop  offset="0.7043" style="stop-color:#2D3A4F"/>
		<stop  offset="0.9559" style="stop-color:#1A3A44"/>
	</linearGradient>
	<path fill="url(#SVGID_23_)" d="M1581.327,748.622c0,0,35.497-5.623,66.993,8.875c19.497,6.499,29.996,15.435,63.992,13.936
		c33.996-1.5,4,2.469,39.496,12.467c2.5,2.5,26.497,16.482,36.494,21.482c10,4.999,33.498,11.991,45.996,26.489
		c12.499,14.498,38.852,20.494,52.85,23.493c13.998,3,32.852,16.995,32.852,16.995v50.493l-346.816-113.487L1581.327,748.622z"/>
	<linearGradient id="SVGID_24_" gradientUnits="userSpaceOnUse" x1="330.1899" y1="836.8633" x2="330.1899" y2="657.1431">
		<stop  offset="0.2649" style="stop-color:#2D3A4F"/>
		<stop  offset="1" style="stop-color:#19363F"/>
	</linearGradient>
	<path fill="url(#SVGID_24_)" d="M0,705.879c0,0,25.583-7.998,45.915-5.331c-0.334-0.334,32.454-2.334,65.784-13.666
		c0,0,27.728-9.999,58.726-13.999c0,0,24.028-7.997,37.692-9.996c13.664-2.001,14.682-4.335,28.347-4
		c13.666,0.334,20.173-4.062,28.505-0.033c8.332,4.031,15.001,2.779,28.001,13.277c12.998,10.5,16.499,7.5,24.249,11
		c0,0,15.998,5.249,18.498,11.748c5.999,2,15.748,5.749,19.998,8.749c0.252,0.499,24.249,9.249,31.749,15.748
		c0,0,30.996,19.498,62.491,29.996c0.5,0.25,46.496,16.749,72.242,23.248c-0.25,0,78.24,27.747,98.489,42.246
		c20.247,14.497,26.997,15.747,39.245,19.246c12.249,3.501-230.973-12.247-230.973-12.247l-259.971,0.998l-102.742,14L0,816.864
		V705.879z"/>
	<linearGradient id="SVGID_25_" gradientUnits="userSpaceOnUse" x1="318.3022" y1="893.5234" x2="318.3022" y2="756.8413">
		<stop  offset="0.2649" style="stop-color:#283549"/>
		<stop  offset="1" style="stop-color:#19323A"/>
	</linearGradient>
	<path fill="url(#SVGID_25_)" d="M76.018,812.104c0,0,18.478-6.57,26.477-10.57c0.334,0.666,21.333-8.999,29.996-12.664
		c1.667,0.332,16.665-7.665,32.664-7.999c0.333,0.666,17.33-3.002,25.662-6.501c-0.332,0.501,15.333-3.167,21.331-3.167
		c0.334,0,10.665-6.33,32.997-7.998c0,0,19.331-4.998,42.661-4.665c0.334,0.333,36.329-2,43.995-1.666
		c7.666,0.333,36.997,1.997,47.329,8.665c0-0.334,20.997,12.665,41.661,12.998c1,0.334,28.997,7.999,48.994,15.998
		c1,1,16.998,10.602,36.662,12.465c19.666,1.867,48.328,3.201,52.995,3.533c4.667,0.334,4.999,14.764,4.999,14.764l-155.316,35.562
		L287.14,891.523l-86.325,2L72.163,827.53L76.018,812.104z"/>
	<linearGradient id="SVGID_26_" gradientUnits="userSpaceOnUse" x1="1478.9443" y1="982.8457" x2="1478.9443" y2="691.8633">
		<stop  offset="0.2649" style="stop-color:#283549"/>
		<stop  offset="1" style="stop-color:#19323A"/>
	</linearGradient>
	<path fill="url(#SVGID_26_)" d="M1037.889,818.865c0,0,48.495-18.498,65.992-21.998c2.5,0,66.493-17.559,75.991-23.027
		c9.5-5.47,37.997-21.968,60.494-30.466c1.001,0,18.498-15.498,47.494-18.498c0,0.999,33.858-16.999,51.675-22.998
		c1.32,0.5,23.816-15.999,72.812-7.498c20.498,5.499,33.496-2.377,36.997-2.438c3.499-0.063,8.998-1.563,31.495,11.936
		c22.497,13.498,69.991,27.497,69.991,27.497s37.496,4,43.497,13.997c0,0,24.495,18.998,50.993,21.998
		c3,2.001,13.498,5,29.997,18.998c1,0,41.995,18.498,91.49,23.997c1.498,0,23.995-1.5,37.495,8.5
		c1.998,2.499,7.998,6.499,23.996,23.497c0,0,11.855,21.497,37.352,26.496c0,0,47.35,20.499,54.35,30.997v82.99l-750.77-22.998
		l-122.916-28.995L1037.889,818.865z"/>
	<linearGradient id="SVGID_27_" gradientUnits="userSpaceOnUse" x1="109.4756" y1="909.8555" x2="109.4756" y2="774.3701">
		<stop  offset="0.1803" style="stop-color:#233044"/>
		<stop  offset="1" style="stop-color:#1A3138"/>
	</linearGradient>
	<path fill="url(#SVGID_27_)" d="M0,774.37c0,0,17.751,17.998,48.248,26.996c0,0,12.079,4.336,27.643,10.738
		c16.586,6.822,37.336,15.989,52.037,24.759c1.501,2.499,33.528,7.498,91.023,47.494c0,0.5-45.48,19.997-45.48,19.997l-105.479,3.17
		l-52.745,2.331L0,907.524V774.37z"/>
	<linearGradient id="SVGID_28_" gradientUnits="userSpaceOnUse" x1="1004.436" y1="961.8486" x2="1004.436" y2="773.8398">
		<stop  offset="0.2658" style="stop-color:#233044"/>
		<stop  offset="1" style="stop-color:#1A3138"/>
	</linearGradient>
	<path fill="url(#SVGID_28_)" d="M676.117,834.447c0,0,48.639-27.244,107.632-37.91c23.33-3.668,20.997-8.664,37.328-9.999
		c0.334,0.332,8.334-0.669,27.666-7.334c0.331,0,13.663-0.999,21.663-4.333c1.666-0.332,12.665-4.665,31.996,7.334
		c0,1.334,38.995,18.546,80.655,21.938c0.669,0.061,7.666,2.396,31.998,5.061c24.331,2.665,37.663,6.664,50.996,11.332
		c13.332,4.666,54.659,28.331,70.991,33.662c16.331,5.335,58.665,11.995,82.328,26.993c23.662,14.999,37.66,18.666,50.659,21.667
		c12.999,2.998,35.663,9.665,49.661,16.663c13.998,6.999,13.666,17.333,19.665,18.332c6,0.999-139.985,23.995-139.985,23.995
		l-235.307-2.666l-185.979-0.666l-108.75-48.659L676.117,834.447z"/>
	<linearGradient id="SVGID_29_" gradientUnits="userSpaceOnUse" x1="457.0039" y1="1037.7656" x2="457.0039" y2="807.0005">
		<stop  offset="0.2658" style="stop-color:#1F2A3D"/>
		<stop  offset="1" style="stop-color:#1A3138"/>
	</linearGradient>
	<path fill="url(#SVGID_29_)" d="M0,907.524c0,0,29.25-13.169,79.244-11.669c0,0,10.793-6.831,36.623-4.166
		c0.332,0,19.811,1.167,27.309,0.916c0.752-0.249,7.03,5.25,39.529-8.248c-0.25,0,27.512-10.248,35.512-11.5
		c0.75,0.251,13.756-5.498,39.753,0c6.749,1.751,16.002,0.223,23.251-2.388c-0.5,0.39,20.5-12.359,46.744-12.61
		c0.751,0.501,31.5-4.996,51.831-7.997c20.331-2.999,34.995-8.333,55.661-9.332c20.664-1,47.994-18.331,76.325-19.998
		c28.33-1.667,28.996-15.333,50.659-13.332c21.666,1.999,61.327,18.195,68.994,18.097c7.665-0.099,56.326,10.233,85.99,22.566
		c29.661,12.331,43.66,31.328,92.989,49.326c49.326,17.999,90.321,27.332,101.985,32.997c11.666,5.665-43.994,14.663-43.994,14.663
		l-208.977,62.252l-93.991,30.664l-115.571-22.26L0,935.516V907.524z"/>
	<linearGradient id="SVGID_30_" gradientUnits="userSpaceOnUse" x1="1231.9834" y1="1083.835" x2="1231.9834" y2="913.9321">
		<stop  offset="0" style="stop-color:#192435"/>
		<stop  offset="1" style="stop-color:#1A3138"/>
	</linearGradient>
	<path fill="url(#SVGID_30_)" d="M554.943,1024.51c0,0,31.495-30.662,64.993-41.661c0.165,0,16.997-26,45.494-30.75
		c28.496-4.749,25.248-17.497,37.996-18.997c12.749-1.499,50.493-7.499,83.241-4.75c32.746,2.751,26.246-4.999,55.744,3.5
		c9.247,4.499,23.247-8.748,35.494-6.998c12.25,1.749,21.498-2.5,32.247-4s13.997-4.501,38.745-5.75
		c24.748-1.251,70.243-0.75,78.491,1.5c8.25,2.25,34.995-13.248,92.24,11.999c28.497,13.999,75.741,5.249,81.99,7.998
		c6.249,2.75,56.993-0.998,62.743-0.998s40.496-6.751,55.744-2.251c0.249,0.25,52.994-0.75,68.492,4s69.491,11.748,79.241,9.248
		c9.749-2.5,32.745-0.248,41.745,1.75c9,2,30.911-8.996,42.912-4.998c11.998,4,30.828,3.168,43.495,0.502
		c12.666-2.669,51.993-10.667,68.659-11.668c16.665-0.999,23.414-5.833,49.41,3.666c25.997,9.499,82.24,17.997,97.489,18.748
		c15.249,0.75,36.601,8.499,70.847,6.999s18.602,2.999,37.602,3.999v118.237l-1376.033-24.331L554.943,1024.51z"/>
	<linearGradient id="SVGID_31_" gradientUnits="userSpaceOnUse" x1="334.6636" y1="1086.1729" x2="334.6636" y2="907.5244">
		<stop  offset="0" style="stop-color:#192435"/>
		<stop  offset="1" style="stop-color:#1A3138"/>
	</linearGradient>
	<path fill="url(#SVGID_31_)" d="M0,907.524c0,0,16.584,13.998,85.244,9.331c-3.335,0.668,65.451,0.668,134.11,27.997
		c33.747,2.997,62.723,2.001,132.716-9.999c1.332,0,20.026-3.999,57.358,17.332c-2.001,0,78.007,37.026,115.336,53.51
		c37.327,16.484,62.001,39.813,125.327,35.814c63.326-4-49.99,25.33-49.99,25.33l-369.956,12.665l-202.229,6.668L0,1083.835V907.524
		z"/>
	<path fill="#172133" d="M0,1013.843c0,0,39.249,4,50.497,0.251c0.249-0.251,18.374-9.555,33.123,0.971
		c24.497,0.277,19.062,11.722,49.058,0c-0.249,0.277,4.281-4.411,19.28,0.184c-0.251,0.094,1.765,2.904,18.015,0
		c0.748,0.345,37.502-12.404,67.998-6.655c30.497,5.751,40.751,7,51.25,6.251c10.497-0.75,7.751,3.748,18.749,4.497
		c10.999,0.751,7.749,6.338,21.498,1.171c13.748-5.17,15.999-8.669,38.497-9.169c1.5,0.249,22.747-3.749,43.246,0.75
		c0.999,0.249,10.497-7.499,26.495-3.75c15.999,3.75,59.244,0.25,89.24,8.749c29.996,8.5,36.194,12.892,65.969,16.821
		c29.771,3.927,7.774,3.927,7.774,3.927l-283.22,11.248l-224.474,5.33L12.754,1052H0V1013.843z"/>
	<path fill="#172133" d="M637.184,1037.09c0,0,78.74-24.748,99.49-24.247c20.746,0.5,47.743,7.749,70.741,3.999
		c22.997-3.749,15.248,4.484,45.495-4.008c30.246-8.49,37.495-7.49,48.244-6.49c10.748,0.999,29.996,2.749,52.994,0.999
		c22.998-1.749,30.747,0,72.493,4.999c41.743,5.001,35.993,1.001,72.49,4s41.995-2.248,74.493,2.751
		c32.494,4.998,83.739,6.999,100.486,3.999c16.75-3,38.248-2.75,61.743,1.5c23.497,4.249,32.747,1.249,84.741,5.998
		c51.994,4.75,65.243,5.25,117.236,6.5c11.5-0.249,45.746-5.999,79.492,3.251c33.744,9.248,69.99-1.501,94.988,5.248
		c8.5,0.75,95.094,8.499,122.592,5.75c27.496-2.75,85.096,11.249,85.096,11.249v7.249L619.793,1042.34L637.184,1037.09z"/>
	<path fill="#101826" d="M0,1039.59c0,0,113.74,0.51,179.232,3.942c0-0.068,206.603-9.629,243.6-8.629
		c36.996,0.999,83.553,3.319,131.549-0.106c1.999,0.574,130.516-4.44,188.511-2.94c57.992,1.499,136.999-8.071,219.489-0.288
		c82.49,7.779,150.492,5.474,222.484,4.376c-0.501,1.4,136.488,1.397,168.984,3.898c32.495,2.498,168.482,12.498,200.479,9.997
		c0,0.5,153.842,10.497,223.832,6.498c69.992-3.998,133.84,7,141.84,8.998V1083H0V1039.59z"/>
	<path fill="#0D1521" d="M0,1216v-149.805c0,0,53.914,3.987,151.903-0.014c97.988-3.999,288.761-20.003,310.093-19.336
		c21.329,0.667,181.374-8.043,277.363-0.024c23.997,1.354,130.684,2.361,212.675,8.857c81.99,6.493,136.665-7.505,258.653-7.505
		c121.987,0,240.648,0.663,301.974,11.33c61.328,10.665,136.513,13.559,213.837,8.443c77.324-5.112,136.502-7.778,193.502,7.554
		v140.238L0.158,1216.127"/>
</g>
</svg>
