<?xml version="1.0" encoding="utf-8"?>
<!-- Generator: Adobe Illustrator 16.0.4, SVG Export Plug-In . SVG Version: 6.00 Build 0)  -->
<!DOCTYPE svg PUBLIC "-//W3C//DTD SVG 1.1//EN" "http://www.w3.org/Graphics/SVG/1.1/DTD/svg11.dtd">
<svg version="1.1" id="Layer_1" xmlns="http://www.w3.org/2000/svg" xmlns:xlink="http://www.w3.org/1999/xlink" x="0px" y="0px"
	 width="399.988px" height="400.001px" viewBox="0 0 399.988 400.001" enable-background="new 0 0 399.988 400.001"
	 xml:space="preserve">
<rect x="0.008" y="0.367" fill="#1B5668" width="399.996" height="399.994"/>
<g>
	<g opacity="0.1">
		<path d="M323.478,363.695H96.137c-21.471,0-37.89-16.419-37.89-37.895c0-21.468,16.419-37.886,37.89-37.886h227.341
			c21.472,0,37.891,16.418,37.891,37.886C361.368,347.276,344.949,363.695,323.478,363.695z M96.137,300.546
			c-13.894,0-25.258,11.361-25.258,25.255s11.364,25.263,25.258,25.263h227.341c13.894,0,25.259-11.369,25.259-25.263
			s-11.365-25.255-25.259-25.255H96.137z M102.449,338.433c-2.525,0-6.312-2.525-6.312-6.32c0-3.787,2.525-6.312,6.312-6.312
			c3.795,0,6.319,2.524,6.319,6.312C108.769,335.907,106.244,338.433,102.449,338.433z"/>
		<path d="M323.478,362.37H96.137c-21.471,0-37.89-16.419-37.89-37.895c0-21.468,16.419-37.886,37.89-37.886h227.341
			c21.472,0,37.891,16.418,37.891,37.886C361.368,345.951,344.949,362.37,323.478,362.37z M96.137,299.221
			c-13.894,0-25.258,11.361-25.258,25.255s11.364,25.263,25.258,25.263h227.341c13.894,0,25.259-11.369,25.259-25.263
			s-11.365-25.255-25.259-25.255H96.137z M102.449,337.107c-2.525,0-6.312-2.525-6.312-6.32c0-3.787,2.525-6.312,6.312-6.312
			c3.795,0,6.319,2.524,6.319,6.312C108.769,334.582,106.244,337.107,102.449,337.107z"/>
		<path d="M323.478,313.169c6.973,0,12.632,5.659,12.632,12.632s-5.659,12.632-12.632,12.632c-6.972,0-12.631-5.659-12.631-12.632
			S316.506,313.169,323.478,313.169z"/>
		<path d="M323.478,311.844c6.973,0,12.632,5.659,12.632,12.632s-5.659,12.632-12.632,12.632c-6.972,0-12.631-5.659-12.631-12.632
			S316.506,311.844,323.478,311.844z"/>
		<path d="M127.712,338.433c-2.524,0-6.316-2.525-6.316-6.32c0-3.787,2.529-6.312,6.316-6.312c3.791,0,6.315,2.524,6.315,6.312
			C134.027,335.907,131.503,338.433,127.712,338.433z M323.478,300.546H96.137c-21.471,0-37.89-16.418-37.89-37.894
			c0-21.468,16.419-37.886,37.89-37.886h227.341c21.472,0,37.891,16.418,37.891,37.886
			C361.368,284.128,344.949,300.546,323.478,300.546z M96.137,237.39c-13.894,0-25.258,11.369-25.258,25.263
			s11.364,25.263,25.258,25.263h227.341c13.894,0,25.259-11.369,25.259-25.263s-11.365-25.263-25.259-25.263H96.137z
			 M102.449,275.283c-2.525,0-6.312-2.524-6.312-6.312c0-3.795,2.525-6.319,6.312-6.319c3.795,0,6.319,2.524,6.319,6.319
			C108.769,272.759,106.244,275.283,102.449,275.283z"/>
		<path d="M127.712,337.107c-2.524,0-6.316-2.525-6.316-6.32c0-3.787,2.529-6.312,6.316-6.312c3.791,0,6.315,2.524,6.315,6.312
			C134.027,334.582,131.503,337.107,127.712,337.107z M323.478,299.221H96.137c-21.471,0-37.89-16.418-37.89-37.894
			c0-21.468,16.419-37.886,37.89-37.886h227.341c21.472,0,37.891,16.418,37.891,37.886
			C361.368,282.803,344.949,299.221,323.478,299.221z M96.137,236.064c-13.894,0-25.258,11.369-25.258,25.263
			s11.364,25.263,25.258,25.263h227.341c13.894,0,25.259-11.369,25.259-25.263s-11.365-25.263-25.259-25.263H96.137z
			 M102.449,273.958c-2.525,0-6.312-2.524-6.312-6.312c0-3.795,2.525-6.319,6.312-6.319c3.795,0,6.319,2.524,6.319,6.319
			C108.769,271.434,106.244,273.958,102.449,273.958z"/>
		<path d="M323.478,250.021c6.973,0,12.632,5.659,12.632,12.632s-5.659,12.631-12.632,12.631c-6.972,0-12.631-5.658-12.631-12.631
			S316.506,250.021,323.478,250.021z"/>
		<path d="M323.478,248.695c6.973,0,12.632,5.659,12.632,12.632s-5.659,12.631-12.632,12.631c-6.972,0-12.631-5.658-12.631-12.631
			S316.506,248.695,323.478,248.695z"/>
		<path d="M128.149,262.841c3.435,0,6.222,2.782,6.222,6.226c0,3.435-2.787,6.217-6.222,6.217s-6.222-2.782-6.222-6.217
			C121.928,265.623,124.715,262.841,128.149,262.841z"/>
		<path d="M128.149,261.516c3.435,0,6.222,2.782,6.222,6.226c0,3.435-2.787,6.217-6.222,6.217s-6.222-2.782-6.222-6.217
			C121.928,264.298,124.715,261.516,128.149,261.516z"/>
		<path d="M276.894,96.326c-13.517-28.448-42.175-46.747-73.401-46.747c-41.261,0-75.656,31.037-79.104,70.997
			c-21.081,3.345-36.762,21.244-36.762,42.347c0,23.099,20.094,42.617,43.876,42.617h143.982c31.153,0,56.502-24.215,56.502-53.986
			C331.987,121.555,307.403,97.061,276.894,96.326z M275.485,188.512H131.503c-14.058,0-26.856-12.794-26.856-26.852
			c0-14.108,12.048-25.589,26.856-25.589c5.011,0,8.51-3.499,8.51-8.514c0-33.609,28.479-60.951,63.479-60.951
			c26.606,0,51.165,16.702,61.187,41.725c1.541,3.087,4.714,5.006,8.277,5.006h2.529c22.142,0,39.483,16.234,39.483,36.954
			C314.969,171.364,297.258,188.512,275.485,188.512z"/>
		<path d="M276.894,95.001c-13.517-28.448-42.175-46.747-73.401-46.747c-41.261,0-75.656,31.037-79.104,70.997
			c-21.081,3.345-36.762,21.244-36.762,42.347c0,23.099,20.094,42.617,43.876,42.617h143.982c31.153,0,56.502-24.215,56.502-53.986
			C331.987,120.229,307.403,95.735,276.894,95.001z M275.485,187.187H131.503c-14.058,0-26.856-12.794-26.856-26.852
			c0-14.108,12.048-25.589,26.856-25.589c5.011,0,8.51-3.499,8.51-8.514c0-33.609,28.479-60.951,63.479-60.951
			c26.606,0,51.165,16.702,61.187,41.725c1.541,3.087,4.714,5.006,8.277,5.006h2.529c22.142,0,39.483,16.234,39.483,36.954
			C314.969,170.039,297.258,187.187,275.485,187.187z"/>
	</g>
	<g>
		<g>
			<g>
				<g opacity="0.1">
					<path d="M323.478,359.695H96.137c-21.471,0-37.89-16.419-37.89-37.895c0-21.468,16.419-37.886,37.89-37.886h227.341
						c21.472,0,37.891,16.418,37.891,37.886C361.368,343.276,344.949,359.695,323.478,359.695z M96.137,296.546
						c-13.894,0-25.258,11.361-25.258,25.255s11.364,25.263,25.258,25.263h227.341c13.894,0,25.259-11.369,25.259-25.263
						s-11.365-25.255-25.259-25.255H96.137z M102.449,334.433c-2.525,0-6.312-2.525-6.312-6.32c0-3.787,2.525-6.312,6.312-6.312
						c3.795,0,6.319,2.524,6.319,6.312C108.769,331.907,106.244,334.433,102.449,334.433z"/>
				</g>
				<g>
					<g>
						<path fill="#FCFFD4" d="M323.478,358.37H96.137c-21.471,0-37.89-16.419-37.89-37.895c0-21.468,16.419-37.886,37.89-37.886
							h227.341c21.472,0,37.891,16.418,37.891,37.886C361.368,341.951,344.949,358.37,323.478,358.37z M96.137,295.221
							c-13.894,0-25.258,11.361-25.258,25.255s11.364,25.263,25.258,25.263h227.341c13.894,0,25.259-11.369,25.259-25.263
							s-11.365-25.255-25.259-25.255H96.137z M102.449,333.107c-2.525,0-6.312-2.525-6.312-6.32c0-3.787,2.525-6.312,6.312-6.312
							c3.795,0,6.319,2.524,6.319,6.312C108.769,330.582,106.244,333.107,102.449,333.107z"/>
					</g>
				</g>
			</g>
			<g>
				<g opacity="0.1">
					<path d="M323.478,309.169c6.973,0,12.632,5.659,12.632,12.632s-5.659,12.632-12.632,12.632
						c-6.972,0-12.631-5.659-12.631-12.632S316.506,309.169,323.478,309.169z"/>
				</g>
				<g>
					<path fill="#FCFFD4" d="M323.478,307.844c6.973,0,12.632,5.659,12.632,12.632s-5.659,12.632-12.632,12.632
						c-6.972,0-12.631-5.659-12.631-12.632S316.506,307.844,323.478,307.844z"/>
				</g>
			</g>
			<g>
				<g opacity="0.1">
					<path d="M127.712,334.433c-2.524,0-6.316-2.525-6.316-6.32c0-3.787,2.529-6.312,6.316-6.312c3.791,0,6.315,2.524,6.315,6.312
						C134.027,331.907,131.503,334.433,127.712,334.433z M323.478,296.546H96.137c-21.471,0-37.89-16.418-37.89-37.894
						c0-21.468,16.419-37.886,37.89-37.886h227.341c21.472,0,37.891,16.418,37.891,37.886
						C361.368,280.128,344.949,296.546,323.478,296.546z M96.137,233.39c-13.894,0-25.258,11.369-25.258,25.263
						s11.364,25.263,25.258,25.263h227.341c13.894,0,25.259-11.369,25.259-25.263s-11.365-25.263-25.259-25.263H96.137z
						 M102.449,271.283c-2.525,0-6.312-2.524-6.312-6.312c0-3.795,2.525-6.319,6.312-6.319c3.795,0,6.319,2.524,6.319,6.319
						C108.769,268.759,106.244,271.283,102.449,271.283z"/>
				</g>
				<g>
					<g>
						<path fill="#FCFFD4" d="M127.712,333.107c-2.524,0-6.316-2.525-6.316-6.32c0-3.787,2.529-6.312,6.316-6.312
							c3.791,0,6.315,2.524,6.315,6.312C134.027,330.582,131.503,333.107,127.712,333.107z M323.478,295.221H96.137
							c-21.471,0-37.89-16.418-37.89-37.894c0-21.468,16.419-37.886,37.89-37.886h227.341c21.472,0,37.891,16.418,37.891,37.886
							C361.368,278.803,344.949,295.221,323.478,295.221z M96.137,232.064c-13.894,0-25.258,11.369-25.258,25.263
							s11.364,25.263,25.258,25.263h227.341c13.894,0,25.259-11.369,25.259-25.263s-11.365-25.263-25.259-25.263H96.137z
							 M102.449,269.958c-2.525,0-6.312-2.524-6.312-6.312c0-3.795,2.525-6.319,6.312-6.319c3.795,0,6.319,2.524,6.319,6.319
							C108.769,267.434,106.244,269.958,102.449,269.958z"/>
					</g>
				</g>
			</g>
			<g>
				<g opacity="0.1">
					<path d="M323.478,246.021c6.973,0,12.632,5.659,12.632,12.632s-5.659,12.631-12.632,12.631
						c-6.972,0-12.631-5.658-12.631-12.631S316.506,246.021,323.478,246.021z"/>
				</g>
				<g>
					<path fill="#FCFFD4" d="M323.478,244.695c6.973,0,12.632,5.659,12.632,12.632s-5.659,12.631-12.632,12.631
						c-6.972,0-12.631-5.658-12.631-12.631S316.506,244.695,323.478,244.695z"/>
				</g>
			</g>
			<g>
				<g opacity="0.1">
					<path d="M128.149,258.841c3.435,0,6.222,2.782,6.222,6.226c0,3.435-2.787,6.217-6.222,6.217s-6.222-2.782-6.222-6.217
						C121.928,261.623,124.715,258.841,128.149,258.841z"/>
				</g>
				<g>
					<path fill="#FCFFD4" d="M128.149,257.516c3.435,0,6.222,2.782,6.222,6.226c0,3.435-2.787,6.217-6.222,6.217
						s-6.222-2.782-6.222-6.217C121.928,260.298,124.715,257.516,128.149,257.516z"/>
				</g>
			</g>
			<g>
				<g opacity="0.1">
					<path d="M276.894,92.326c-13.517-28.448-42.175-46.747-73.401-46.747c-41.261,0-75.656,31.037-79.104,70.997
						c-21.081,3.345-36.762,21.244-36.762,42.347c0,23.099,20.094,42.617,43.876,42.617h143.982
						c31.153,0,56.502-24.215,56.502-53.986C331.987,117.555,307.403,93.061,276.894,92.326z M275.485,184.512H131.503
						c-14.058,0-26.856-12.794-26.856-26.852c0-14.108,12.048-25.589,26.856-25.589c5.011,0,8.51-3.499,8.51-8.514
						c0-33.609,28.479-60.951,63.479-60.951c26.606,0,51.165,16.702,61.187,41.725c1.541,3.087,4.714,5.006,8.277,5.006h2.529
						c22.142,0,39.483,16.234,39.483,36.954C314.969,167.364,297.258,184.512,275.485,184.512z"/>
				</g>
				<g>
					<g>
						<path fill="#7FD9FF" d="M276.894,91.001c-13.517-28.448-42.175-46.747-73.401-46.747c-41.261,0-75.656,31.037-79.104,70.997
							c-21.081,3.345-36.762,21.244-36.762,42.347c0,23.099,20.094,42.617,43.876,42.617h143.982
							c31.153,0,56.502-24.215,56.502-53.986C331.987,116.229,307.403,91.735,276.894,91.001z M275.485,183.187H131.503
							c-14.058,0-26.856-12.794-26.856-26.852c0-14.108,12.048-25.589,26.856-25.589c5.011,0,8.51-3.499,8.51-8.514
							c0-33.609,28.479-60.951,63.479-60.951c26.606,0,51.165,16.702,61.187,41.725c1.541,3.087,4.714,5.006,8.277,5.006h2.529
							c22.142,0,39.483,16.234,39.483,36.954C314.969,166.039,297.258,183.187,275.485,183.187z"/>
					</g>
				</g>
			</g>
		</g>
	</g>
</g>
<path fill="#A9DEFF" d="M400,25.367V0.001H0.006H0V24.96v350.809v24.593v-0.36h25l0,0h350l0,0h25l0,0l0,0v-24.634l0,0V25.367
	L400,25.367z M375,375.001H25v-350h350V375.001z"/>
</svg>
