<?xml version="1.0" encoding="utf-8"?>
<!-- Generator: Adobe Illustrator 16.0.4, SVG Export Plug-In . SVG Version: 6.00 Build 0)  -->
<!DOCTYPE svg PUBLIC "-//W3C//DTD SVG 1.1//EN" "http://www.w3.org/Graphics/SVG/1.1/DTD/svg11.dtd">
<svg version="1.1" id="Layer_1" xmlns="http://www.w3.org/2000/svg" xmlns:xlink="http://www.w3.org/1999/xlink" x="0px" y="0px"
	 width="399.988px" height="400.001px" viewBox="0 0 399.988 400.001" enable-background="new 0 0 399.988 400.001"
	 xml:space="preserve">
<rect x="-0.012" y="-0.476" fill="#1B5668" width="399.988" height="400.476"/>
<g>
	<g opacity="0.1">
		<path d="M126.027,97.561c5.095-0.018,9.247,2.955,9.256,6.637l0.399,142.51c0.014,3.692-4.128,6.688-9.219,6.697l0,0
			c-5.108,0.024-9.251-2.948-9.266-6.642l-0.399-142.505C116.79,100.566,120.919,97.576,126.027,97.561L126.027,97.561z"/>
	</g>
	<g>
		<path fill="#FCFFD4" d="M126.027,96.235c5.095-0.018,9.247,2.955,9.256,6.637l0.399,142.51c0.014,3.692-4.128,6.688-9.219,6.697
			l0,0c-5.108,0.024-9.251-2.948-9.266-6.642l-0.399-142.505C116.79,99.241,120.919,96.251,126.027,96.235L126.027,96.235z"/>
	</g>
</g>
<g>
	<g opacity="0.1">
		<path d="M155.741,269.866c-0.053-16.298-13.298-29.485-29.598-29.432c-16.306,0.04-29.482,13.295-29.44,29.593
			c0.038,12.767,8.166,23.612,19.519,27.7l0.221,78.306c0.009,3.027,4.463,5.469,9.962,5.456c5.485-0.014,9.941-2.479,9.929-5.513
			l-0.217-78.216C147.58,293.684,155.775,282.729,155.741,269.866z"/>
	</g>
	<g>
		<path fill="#FCFFD4" d="M155.741,268.541c-0.053-16.298-13.298-29.485-29.598-29.432c-16.306,0.04-29.482,13.295-29.44,29.593
			c0.038,12.767,8.166,23.612,19.519,27.7l0.221,78.306c0.009,3.027,4.463,5.469,9.962,5.456c5.485-0.014,9.941-2.479,9.929-5.513
			l-0.217-78.216C147.58,292.358,155.775,281.403,155.741,268.541z"/>
	</g>
</g>
<g>
	<g opacity="0.1">
		<path d="M90.59,84.328c-0.058-19.689,15.853-35.695,35.533-35.742c19.689-0.054,35.685,15.858,35.737,35.537
			c0.062,19.689-15.849,35.686-35.537,35.742C106.643,119.924,90.643,104.002,90.59,84.328z"/>
	</g>
	<g>
		<path fill="#7FD9FF" d="M90.59,83.003c-0.058-19.689,15.853-35.695,35.533-35.742c19.689-0.054,35.685,15.858,35.737,35.537
			c0.062,19.689-15.849,35.686-35.537,35.742C106.643,118.599,90.643,102.677,90.59,83.003z"/>
	</g>
</g>
<path fill="#FCFFD4" d="M132.409,291.317c0,0-16.421-79.363,120.579-83.103v-14.693c-145,0-135.313,91.038-135.313,91.038
	L132.409,291.317z"/>
<g>
	<g opacity="0.1">
		<path d="M286.977,174.95v-20.823v-31.505c0-28.069-23.496-51.298-51.566-51.298h-24.566l22.682-22.842
			c1.026-1.021,3.976-4.477,0.729-7.7c-3.25-3.231-6.705-5.015-7.731-3.989L196.859,66.66l-5.855,5.855l-5.834,5.902l41.588,41.347
			c1.032,1.022,4.478-0.779,7.71-4.025c3.224-3.242,0.26-6.712-0.771-7.732l-22.813-22.683h20.111
			c28.641,0,39.982,21.712,39.982,41.714v22.673l0.844,23.736c-13.102,1.927-24.064,12.042-26.435,25.797
			c-2.938,17.119,8.551,33.382,25.678,36.336c17.118,2.944,33.387-8.545,36.331-25.678
			C310.03,194.605,301.119,179.989,286.977,174.95z M297.304,208.166c-1.989,11.559-12.964,19.306-24.508,17.322
			c-11.55-1.992-19.302-12.961-17.318-24.507c1.993-11.551,12.962-19.301,24.517-17.323
			C291.535,185.651,299.291,196.626,297.304,208.166z"/>
	</g>
	<g>
		<g>
			<path fill="#FCFFD4" d="M286.977,173.625v-20.823v-31.505c0-28.069-23.496-51.298-51.566-51.298h-24.566l22.682-22.842
				c1.026-1.021,3.976-4.477,0.729-7.7c-3.25-3.231-6.705-5.015-7.731-3.989l-29.663,29.867l-5.855,5.855l-5.834,5.902
				l41.588,41.347c1.032,1.022,4.478-0.779,7.71-4.025c3.224-3.242,0.26-6.712-0.771-7.732l-22.813-22.683h20.111
				c28.641,0,39.982,21.712,39.982,41.714v22.673l0.844,23.736c-13.102,1.927-24.064,12.042-26.435,25.797
				c-2.938,17.119,8.551,33.382,25.678,36.336c17.118,2.944,33.387-8.545,36.331-25.678
				C310.03,193.28,301.119,178.664,286.977,173.625z M297.304,206.841c-1.989,11.559-12.964,19.306-24.508,17.322
				c-11.55-1.992-19.302-12.961-17.318-24.507c1.993-11.551,12.962-19.301,24.517-17.323
				C291.535,184.326,299.291,195.301,297.304,206.841z"/>
		</g>
	</g>
</g>
<path fill="#A9DEFF" d="M399.988,25V0h-400l0,0v24.593v350.809v24.593V400h24.988l0,0h350l0,0h25.012l0,0l0,0v-25l0,0V25L399.988,25
	z M374.988,375h-350V25h350V375z"/>
</svg>
