<?xml version="1.0" encoding="utf-8"?>
<!-- Generator: Adobe Illustrator 16.0.4, SVG Export Plug-In . SVG Version: 6.00 Build 0)  -->
<!DOCTYPE svg PUBLIC "-//W3C//DTD SVG 1.1//EN" "http://www.w3.org/Graphics/SVG/1.1/DTD/svg11.dtd">
<svg version="1.1" id="Layer_1" xmlns="http://www.w3.org/2000/svg" xmlns:xlink="http://www.w3.org/1999/xlink" x="0px" y="0px"
	 width="399.988px" height="400.001px" viewBox="0 0 399.988 400.001" enable-background="new 0 0 399.988 400.001"
	 xml:space="preserve">
<rect x="-0.072" fill="#1B5668" width="399.996" height="399.994"/>
<g>
	<g opacity="0.1">
		<path d="M39.777,183.961l97.477-40.931v33.833l-43.297,16.798c-2.208,0.789-4.613,1.656-7.218,2.601
			c-2.6,0.948-5.006,1.814-7.213,2.604l-8.045,2.838v0.474l8.045,2.367c2.208,0.789,4.614,1.539,7.213,2.246
			c2.604,0.712,5.01,1.462,7.218,2.251l43.297,15.616v35.252l-97.477-40.935V183.961z"/>
		<path d="M247.527,116.407l-63.173,169.17h-33.126l63.173-169.17H247.527z"/>
		<path d="M306.213,209.041c2.207-0.789,4.613-1.656,7.217-2.604c2.604-0.948,5.006-1.815,7.218-2.604
			c2.682-0.789,5.364-1.655,8.041-2.6v-0.475l-8.041-2.366c-2.212-0.789-4.613-1.578-7.218-2.363
			c-2.604-0.793-5.01-1.582-7.217-2.367l-43.297-15.616V143.03l97.481,40.931v35.014l-97.481,40.935v-34.07L306.213,209.041z"/>
	</g>
	<g>
		<g>
			<path fill="#FCFFD4" d="M39.777,179.961l97.477-40.931v33.833l-43.297,16.798c-2.208,0.789-4.613,1.656-7.218,2.601
				c-2.6,0.948-5.006,1.814-7.213,2.604l-8.045,2.838v0.474l8.045,2.367c2.208,0.789,4.614,1.539,7.213,2.246
				c2.604,0.712,5.01,1.462,7.218,2.251l43.297,15.616v35.252l-97.477-40.935V179.961z"/>
			<path fill="#7FD9FF" d="M247.527,112.407l-63.173,169.17h-33.126l63.173-169.17H247.527z"/>
			<path fill="#FCFFD4" d="M306.213,205.041c2.207-0.789,4.613-1.656,7.217-2.604c2.604-0.948,5.006-1.815,7.218-2.604
				c2.682-0.789,5.364-1.655,8.041-2.6v-0.475l-8.041-2.366c-2.212-0.789-4.613-1.578-7.218-2.363
				c-2.604-0.793-5.01-1.582-7.217-2.367l-43.297-15.616V139.03l97.481,40.931v35.014l-97.481,40.935v-34.07L306.213,205.041z"/>
		</g>
	</g>
</g>
<path fill="#A9DEFF" d="M400,25V0H-0.074H0v24.593v350.809v24.593V400h25l0,0h350l0,0h25l0,0l0,0v-25l0,0V25L400,25z M375,375H25V25
	h350V375z"/>
</svg>
