<?xml version="1.0" encoding="utf-8"?>
<!-- Generator: Adobe Illustrator 16.0.4, SVG Export Plug-In . SVG Version: 6.00 Build 0)  -->
<!DOCTYPE svg PUBLIC "-//W3C//DTD SVG 1.1//EN" "http://www.w3.org/Graphics/SVG/1.1/DTD/svg11.dtd">
<svg version="1.1" id="Layer_1" xmlns="http://www.w3.org/2000/svg" xmlns:xlink="http://www.w3.org/1999/xlink" x="0px" y="0px"
	 width="399.988px" height="400.001px" viewBox="0 0 399.988 400.001" enable-background="new 0 0 399.988 400.001"
	 xml:space="preserve">
<rect x="-0.016" y="-0.001" fill="#1B5668" width="399.996" height="399.994"/>
<g id="TtcH9Q.tif_2_">
	<g opacity="0.1">
		<path fill-rule="evenodd" clip-rule="evenodd" d="M292.167,266.903c-8.199,8.021-16.104,15.757-24.253,23.732
			c-49.964-51.463-99.919-102.926-150.063-154.582c7.976-8.083,15.773-15.992,23.84-24.166
			C192.083,163.801,242.03,215.259,292.167,266.903z"/>
		<path fill-rule="evenodd" clip-rule="evenodd" d="M92.227,142.071c-11.8-12.304-23.559-24.079-34.727-36.392
			c-6.319-6.964-8.463-15.848-7.612-25.182c0.339-3.742,1.169-7.624,2.701-11.032c7.013-15.596,25.851-31.592,46.527-26.301
			c6.174,1.582,11.763,4.205,16.252,8.752c11.275,11.42,22.448,22.951,33.983,34.772C130.34,105.122,111.478,123.407,92.227,142.071
			z"/>
		<path fill-rule="evenodd" clip-rule="evenodd" d="M318.175,260.56c11.605,32.6,22.96,64.484,34.528,96.944
			c-30.836-13.96-61.057-27.647-91.959-41.641C279.904,297.422,298.783,279.236,318.175,260.56z"/>
		<path fill-rule="evenodd" clip-rule="evenodd" d="M149.509,105.077c3.135-3.049,6.018-5.849,9.115-8.843
			c50.079,51.599,100.092,103.119,150.258,154.817c-3.077,2.994-5.943,5.782-9.091,8.839
			C249.679,208.274,199.753,156.837,149.509,105.077z"/>
		<path fill-rule="evenodd" clip-rule="evenodd" d="M260.153,297.942c-3.027,2.92-5.754,5.547-8.702,8.4
			c-49.96-51.611-99.749-103.049-149.845-154.809c2.907-2.834,5.679-5.531,8.678-8.442
			C160.247,194.707,210.024,246.145,260.153,297.942z"/>
	</g>
	<g>
		<g>
			<g>
				<path fill-rule="evenodd" clip-rule="evenodd" fill="#FCFFD4" d="M292.167,262.903c-8.199,8.021-16.104,15.757-24.253,23.732
					c-49.964-51.463-99.919-102.926-150.063-154.582c7.976-8.083,15.773-15.992,23.84-24.166
					C192.083,159.801,242.03,211.259,292.167,262.903z"/>
				<path fill-rule="evenodd" clip-rule="evenodd" fill="#7FD9FF" d="M92.227,138.071c-11.8-12.304-23.559-24.079-34.727-36.392
					c-6.319-6.964-8.463-15.848-7.612-25.182c0.339-3.742,1.169-7.624,2.701-11.032c7.013-15.596,25.851-31.592,46.527-26.301
					c6.174,1.582,11.763,4.205,16.252,8.752c11.275,11.42,22.448,22.951,33.983,34.772
					C130.34,101.122,111.478,119.407,92.227,138.071z"/>
				<path fill-rule="evenodd" clip-rule="evenodd" fill="#7FD9FF" d="M318.175,256.56c11.605,32.6,22.96,64.484,34.528,96.944
					c-30.836-13.96-61.057-27.647-91.959-41.641C279.904,293.422,298.783,275.236,318.175,256.56z"/>
				<path fill-rule="evenodd" clip-rule="evenodd" fill="#FCFFD4" d="M149.509,101.077c3.135-3.049,6.018-5.849,9.115-8.843
					c50.079,51.599,100.092,103.119,150.258,154.817c-3.077,2.994-5.943,5.782-9.091,8.839
					C249.679,204.274,199.753,152.837,149.509,101.077z"/>
				<path fill-rule="evenodd" clip-rule="evenodd" fill="#FCFFD4" d="M260.153,293.942c-3.027,2.92-5.754,5.547-8.702,8.4
					c-49.96-51.611-99.749-103.049-149.845-154.809c2.907-2.834,5.679-5.531,8.678-8.442
					C160.247,190.707,210.024,242.145,260.153,293.942z"/>
			</g>
		</g>
	</g>
</g>
<path fill="#A9DEFF" d="M399.988,24.999V0H-0.018h0.006v24.592V375.4v24.593V400h25l0,0h350l0,0h25l0,0l0,0v-25.001l0,0V24.999
	L399.988,24.999z M374.988,375h-350V25h350V375z"/>
</svg>
