<?xml version="1.0" encoding="utf-8"?>
<!-- Generator: Adobe Illustrator 16.0.4, SVG Export Plug-In . SVG Version: 6.00 Build 0)  -->
<!DOCTYPE svg PUBLIC "-//W3C//DTD SVG 1.1//EN" "http://www.w3.org/Graphics/SVG/1.1/DTD/svg11.dtd">
<svg version="1.1" id="Layer_1" xmlns="http://www.w3.org/2000/svg" xmlns:xlink="http://www.w3.org/1999/xlink" x="0px" y="0px"
	 width="399.988px" height="400.001px" viewBox="0 0 399.988 400.001" enable-background="new 0 0 399.988 400.001"
	 xml:space="preserve">
<rect x="-0.271" y="0.448" fill="#1B5668" width="399.99" height="400"/>
<path fill="#A9DEFF" d="M400,25.449V0H-0.271H0v25.04v350.809v24.594V400h24l0,0h351l0,0h25l0,0l0,0v-24.551l0,0V25.449L400,25.449z
	 M375,375H24V25h351V375z"/>
<g>
	<g opacity="0.1">
		<path d="M125.014,178.549h32.051v102.993h-32.051V178.549z M141.039,127.353c10.246,0,18.562,8.32,18.562,18.552
			c0,10.247-8.316,18.577-18.562,18.577c-10.268,0-18.584-8.33-18.584-18.577C122.455,135.673,130.771,127.353,141.039,127.353"/>
		<path d="M177.164,178.549h30.703v14.077h0.436c4.26-8.102,14.715-16.64,30.305-16.64c32.406,0,38.393,21.321,38.393,49.062v56.494
			h-31.99v-50.078c0-11.947-0.248-27.312-16.648-27.312c-16.67,0-19.207,13.002-19.207,26.434v50.957h-31.99V178.549z"/>
	</g>
	<g>
		<g>
			<g>
				<path fill="#FCFFD4" d="M125.014,174.549h32.051v102.993h-32.051V174.549z M141.039,123.353c10.246,0,18.562,8.32,18.562,18.552
					c0,10.247-8.316,18.577-18.562,18.577c-10.268,0-18.584-8.33-18.584-18.577C122.455,131.673,130.771,123.353,141.039,123.353"/>
				<path fill="#FCFFD4" d="M177.164,174.549h30.703v14.077h0.436c4.26-8.102,14.715-16.64,30.305-16.64
					c32.406,0,38.393,21.321,38.393,49.062v56.494h-31.99v-50.078c0-11.947-0.248-27.312-16.648-27.312
					c-16.67,0-19.207,13.002-19.207,26.434v50.957h-31.99V174.549z"/>
			</g>
		</g>
	</g>
</g>
</svg>
