<?xml version="1.0" encoding="utf-8"?>
<!-- Generator: Adobe Illustrator 16.0.4, SVG Export Plug-In . SVG Version: 6.00 Build 0)  -->
<!DOCTYPE svg PUBLIC "-//W3C//DTD SVG 1.1//EN" "http://www.w3.org/Graphics/SVG/1.1/DTD/svg11.dtd">
<svg version="1.1" id="Layer_1" xmlns="http://www.w3.org/2000/svg" xmlns:xlink="http://www.w3.org/1999/xlink" x="0px" y="0px"
	 width="399.988px" height="400.001px" viewBox="0 0 399.988 400.001" enable-background="new 0 0 399.988 400.001"
	 xml:space="preserve">
<rect x="0.008" fill="#351A3A" width="399.996" height="399.994"/>
<g id="TtcH9Q.tif_1_">
	<g opacity="0.1">
		<path fill-rule="evenodd" clip-rule="evenodd" d="M292.19,266.904c-8.199,8.021-16.104,15.757-24.253,23.732
			c-49.964-51.463-99.919-102.926-150.063-154.582c7.976-8.083,15.773-15.992,23.84-24.166
			C192.106,163.802,242.054,215.26,292.19,266.904z"/>
		<path fill-rule="evenodd" clip-rule="evenodd" d="M92.25,142.072c-11.8-12.304-23.559-24.079-34.727-36.392
			c-6.319-6.964-8.463-15.848-7.612-25.182c0.339-3.742,1.169-7.624,2.701-11.032c7.013-15.596,25.851-31.592,46.527-26.301
			c6.174,1.582,11.763,4.205,16.252,8.752c11.275,11.42,22.448,22.951,33.983,34.772C130.363,105.123,111.501,123.408,92.25,142.072
			z"/>
		<path fill-rule="evenodd" clip-rule="evenodd" d="M318.198,260.561c11.605,32.6,22.96,64.484,34.528,96.944
			c-30.836-13.96-61.057-27.647-91.959-41.641C279.928,297.423,298.807,279.237,318.198,260.561z"/>
		<path fill-rule="evenodd" clip-rule="evenodd" d="M149.532,105.078c3.135-3.049,6.018-5.849,9.115-8.843
			c50.079,51.599,100.092,103.119,150.258,154.817c-3.077,2.994-5.943,5.782-9.091,8.839
			C249.702,208.275,199.776,156.838,149.532,105.078z"/>
		<path fill-rule="evenodd" clip-rule="evenodd" d="M260.177,297.943c-3.027,2.92-5.754,5.547-8.702,8.4
			c-49.96-51.611-99.749-103.049-149.845-154.809c2.907-2.834,5.679-5.531,8.678-8.442
			C160.271,194.708,210.048,246.146,260.177,297.943z"/>
	</g>
	<g>
		<g>
			<g>
				<path fill-rule="evenodd" clip-rule="evenodd" fill="#E8A215" d="M292.19,262.904c-8.199,8.021-16.104,15.757-24.253,23.732
					c-49.964-51.463-99.919-102.926-150.063-154.582c7.976-8.083,15.773-15.992,23.84-24.166
					C192.106,159.802,242.054,211.26,292.19,262.904z"/>
				<path fill-rule="evenodd" clip-rule="evenodd" fill="#FF5625" d="M92.25,138.072c-11.8-12.304-23.559-24.079-34.727-36.392
					c-6.319-6.964-8.463-15.848-7.612-25.182c0.339-3.742,1.169-7.624,2.701-11.032c7.013-15.596,25.851-31.592,46.527-26.301
					c6.174,1.582,11.763,4.205,16.252,8.752c11.275,11.42,22.448,22.951,33.983,34.772
					C130.363,101.123,111.501,119.408,92.25,138.072z"/>
				<path fill-rule="evenodd" clip-rule="evenodd" fill="#FF5625" d="M318.198,256.561c11.605,32.6,22.96,64.484,34.528,96.944
					c-30.836-13.96-61.057-27.647-91.959-41.641C279.928,293.423,298.807,275.237,318.198,256.561z"/>
				<path fill-rule="evenodd" clip-rule="evenodd" fill="#E8A215" d="M149.532,101.078c3.135-3.049,6.018-5.849,9.115-8.843
					c50.079,51.599,100.092,103.119,150.258,154.817c-3.077,2.994-5.943,5.782-9.091,8.839
					C249.702,204.275,199.776,152.838,149.532,101.078z"/>
				<path fill-rule="evenodd" clip-rule="evenodd" fill="#E8A215" d="M260.177,293.943c-3.027,2.92-5.754,5.547-8.702,8.4
					c-49.96-51.611-99.749-103.049-149.845-154.809c2.907-2.834,5.679-5.531,8.678-8.442
					C160.271,190.708,210.048,242.146,260.177,293.943z"/>
			</g>
		</g>
	</g>
</g>
<path fill="#404066" d="M400,25V0H0.006H0v24.593v350.809v24.593V400h25.012l0,0h350l0,0H400l0,0l0,0v-25l0,0V25L400,25z M375,375
	H25V25h350V375z"/>
</svg>
