<?xml version="1.0" encoding="utf-8"?>
<!-- Generator: Adobe Illustrator 16.0.4, SVG Export Plug-In . SVG Version: 6.00 Build 0)  -->
<!DOCTYPE svg PUBLIC "-//W3C//DTD SVG 1.1//EN" "http://www.w3.org/Graphics/SVG/1.1/DTD/svg11.dtd">
<svg version="1.1" id="Layer_1" xmlns="http://www.w3.org/2000/svg" xmlns:xlink="http://www.w3.org/1999/xlink" x="0px" y="0px"
	 width="399.988px" height="400.001px" viewBox="0 0 399.988 400.001" enable-background="new 0 0 399.988 400.001"
	 xml:space="preserve">
<rect y="-0.474" fill="#351A3A" width="399.988" height="400.476"/>
<g>
	<g opacity="0.1">
		<path d="M126.039,97.563c5.095-0.018,9.247,2.953,9.256,6.637l0.399,142.509c0.014,3.692-4.128,6.688-9.219,6.697l0,0
			c-5.108,0.024-9.251-2.948-9.266-6.642l-0.399-142.505C116.802,100.567,120.931,97.578,126.039,97.563L126.039,97.563z"/>
	</g>
	<g>
		<path fill="#E8A215" d="M126.039,96.237c5.095-0.018,9.247,2.955,9.256,6.637l0.399,142.51c0.014,3.692-4.128,6.688-9.219,6.697
			l0,0c-5.108,0.024-9.251-2.948-9.266-6.642l-0.399-142.505C116.802,99.243,120.931,96.253,126.039,96.237L126.039,96.237z"/>
	</g>
</g>
<g>
	<g opacity="0.1">
		<path d="M163.74,285.845c-0.066-20.708-16.896-37.463-37.606-37.396c-20.718,0.051-37.46,16.893-37.406,37.601
			c0.052,17.242,11.72,31.72,27.574,36.065l0.152,53.92c0.009,3.027,4.463,5.469,9.962,5.456c5.485-0.014,9.941-2.479,9.929-5.513
			l-0.149-53.869C152.111,317.733,163.786,303.148,163.74,285.845z"/>
	</g>
	<g>
		<path fill="#E8A215" d="M163.74,284.52c-0.066-20.708-16.896-37.463-37.606-37.396c-20.718,0.051-37.46,16.893-37.406,37.601
			c0.052,17.242,11.72,31.72,27.574,36.065l0.152,53.92c0.009,3.027,4.463,5.469,9.962,5.456c5.485-0.014,9.941-2.479,9.929-5.513
			l-0.149-53.869C152.111,316.408,163.786,301.823,163.74,284.52z"/>
	</g>
</g>
<g>
	<g opacity="0.1">
		<path d="M90.602,84.331c-0.058-19.69,15.853-35.695,35.533-35.743c19.689-0.054,35.685,15.858,35.737,35.537
			c0.062,19.69-15.849,35.686-35.537,35.742C106.654,119.926,90.654,104.004,90.602,84.331z"/>
	</g>
	<g>
		<path fill="#FF5625" d="M90.602,83.005c-0.058-19.689,15.853-35.695,35.533-35.742c19.689-0.054,35.685,15.858,35.737,35.537
			c0.062,19.689-15.849,35.686-35.537,35.742C106.654,118.601,90.654,102.679,90.602,83.005z"/>
	</g>
</g>
<path fill="#E8A215" d="M132.415,291.319c0,0-16.427-79.363,120.573-83.103v-14.693c-145,0-135.311,91.038-135.311,91.038
	L132.415,291.319z"/>
<g>
	<g opacity="0.1">
		<path d="M286.988,174.952v-20.823v-31.505c0-28.069-23.496-51.298-51.566-51.298h-24.566l22.682-22.842
			c1.026-1.021,3.976-4.477,0.729-7.7c-3.25-3.231-6.705-5.015-7.731-3.989l-29.663,29.867l-5.855,5.855l-5.834,5.902l41.588,41.347
			c1.032,1.022,4.478-0.779,7.71-4.025c3.224-3.242,0.26-6.712-0.771-7.732l-22.813-22.683h20.111
			c28.641,0,39.982,21.712,39.982,41.714v22.673l0.844,23.736c-13.102,1.927-24.064,12.042-26.435,25.797
			c-2.938,17.119,8.551,33.382,25.678,36.336c17.118,2.944,33.387-8.545,36.331-25.678
			C310.042,194.607,301.131,179.991,286.988,174.952z M297.315,208.168c-1.989,11.559-12.964,19.306-24.508,17.322
			c-11.55-1.992-19.302-12.961-17.318-24.507c1.993-11.551,12.962-19.301,24.517-17.323
			C291.547,185.653,299.303,196.628,297.315,208.168z"/>
	</g>
	<g>
		<g>
			<path fill="#E8A215" d="M286.988,173.627v-20.823v-31.505c0-28.069-23.496-51.298-51.566-51.298h-24.566l22.682-22.842
				c1.026-1.021,3.976-4.477,0.729-7.7c-3.25-3.231-6.705-5.015-7.731-3.989l-29.663,29.867l-5.855,5.855l-5.834,5.902
				l41.588,41.347c1.032,1.022,4.478-0.779,7.71-4.025c3.224-3.242,0.26-6.712-0.771-7.732l-22.813-22.683h20.111
				c28.641,0,39.982,21.712,39.982,41.714v22.673l0.844,23.736c-13.102,1.927-24.064,12.042-26.435,25.797
				c-2.938,17.119,8.551,33.382,25.678,36.336c17.118,2.944,33.387-8.545,36.331-25.678
				C310.042,193.282,301.131,178.666,286.988,173.627z M297.315,206.843c-1.989,11.559-12.964,19.306-24.508,17.322
				c-11.55-1.992-19.302-12.961-17.318-24.507c1.993-11.551,12.962-19.301,24.517-17.323
				C291.547,184.328,299.303,195.303,297.315,206.843z"/>
		</g>
	</g>
</g>
<path fill="#404066" d="M399.988,25.002V0.001h-400l0,0v24.594v350.809v24.593v0.005h25l0,0h350l0,0h25l0,0l0,0v-24.999l0,0V25.002
	L399.988,25.002z M374.988,375.001h-350v-350h350V375.001z"/>
</svg>
