<?xml version="1.0" encoding="utf-8"?>
<!-- Generator: Adobe Illustrator 16.0.4, SVG Export Plug-In . SVG Version: 6.00 Build 0)  -->
<!DOCTYPE svg PUBLIC "-//W3C//DTD SVG 1.1//EN" "http://www.w3.org/Graphics/SVG/1.1/DTD/svg11.dtd">
<svg version="1.1" id="Layer_1" xmlns="http://www.w3.org/2000/svg" xmlns:xlink="http://www.w3.org/1999/xlink" x="0px" y="0px"
	 width="1920px" height="1215.934px" viewBox="0 0 1920 1215.934" enable-background="new 0 0 1920 1215.934" xml:space="preserve">
<g>
	<linearGradient id="SVGID_1_" gradientUnits="userSpaceOnUse" x1="960" y1="720.9336" x2="959.9999" y2="-0.0664">
		<stop  offset="0.0608" style="stop-color:#E8A215"/>
		<stop  offset="0.2474" style="stop-color:#FF967B"/>
		<stop  offset="0.5641" style="stop-color:#FF5625"/>
		<stop  offset="1" style="stop-color:#BF2500"/>
	</linearGradient>
	<rect y="-0.066" fill="url(#SVGID_1_)" width="1920" height="721"/>
	<linearGradient id="SVGID_2_" gradientUnits="userSpaceOnUse" x1="1058.5254" y1="783.9316" x2="1058.5254" y2="461.1914">
		<stop  offset="0.3484" style="stop-color:#9595AF"/>
		<stop  offset="0.9333" style="stop-color:#9B1A39"/>
	</linearGradient>
	<path fill="url(#SVGID_2_)" d="M1738.834,529.932c0,0-91.332,17.334-117.332,28c-1.334,4.668-35.336-13.334-48.002-14
		s-38.666-8.666-44.666-8c-6,0.668-16,2-25.332,0c-9.334-2-13.836,1.334-24.252,2c-10.416,0.668-42.414-4.666-47.082-4
		c-4.666,0.668-18.668,9.438-27.334,10.387c-0.666,0.281-73.332-34.387-99.332-35.719c0.666,1.334-16.668-6.766-30,8.283
		c-1.334,1.051-33.597,10.884-60.834,12.218c-0.572,0.666-5.166,7.499-25.166,0.165c0.666,1.334-8.668-6.666-22.668-2.666
		c0.668,0.666-10.199-6-27.766-5.334c-17.566,0.668-20.568-2.084-26.068-2.834s-18.75-3.75-24.5-3.75s-6.25-6.75-17.25-8.75
		s-18.5-4.5-18.5-4.5s-9.25-12.832-18.25-12.498c-9,0.332-13.667-1.014-16-0.008c-2.332,1.008-17.666-11.994-23.332-11.326
		c-5.668,0.666-23.668-12.334-38.334-11.668c-14.668,0.668-30.668-12.666-40.668,2.668c-10,15.332-19.333,11.332-28,13.332
		c-8.666,2-19.333,5.334-30,5.334c-10.666,0-19.333-8-28,0c-2.666,4.166-19.166,4.416-24.666,7.666s-16.5,1.25-22,2.25
		s-38,2.75-42.75,5.5s-36.75,13.25-42,18.75s-15.25,5-25.75,13.75c0,0-41.25,5.654-75.25,2.953c-0.5,0.047-46.5-5.203-94.75-20.203
		c-0.5,0.25-14.5-6.5-19-5.25c0,0-15-6.25-24.25-0.25c-2.25,1.75-24.25-3-27.75-5s-14.497-0.25-23.498-0.75
		c0,0-8.502-2.5-12.252,1.5c0.25-0.25-6.75,1-9.25,3.25s-10.755-2.746-14.75-1.484c-3.995,1.264-12.25,3.234-12.25,3.234
		l381.602,244.086l784.461,26.664l230.988-225.635L1738.834,529.932z"/>
	<linearGradient id="SVGID_3_" gradientUnits="userSpaceOnUse" x1="931.6187" y1="673.4263" x2="931.6187" y2="571.8535">
		<stop  offset="0.2233" style="stop-color:#8282A0"/>
		<stop  offset="1" style="stop-color:#871A3A"/>
	</linearGradient>
	<path fill="url(#SVGID_3_)" d="M724.168,633.932c0,0,28.666-24.668,37.334-25.334c1.332-0.666,15.332-4.971,19.332-10.152
		c4-5.18,49.678-1.143,69.333-12.746c0,0,8.667-19.1,121.335-12.434c8,2.666,8.998,8.865,36.332,13.334
		c27.995,4.576,25.75,13.332,46.375,19.332s58.625,26.518,83.293,52.26c24.666,25.74-250,11.074-250,11.074L766,660.707
		L724.168,633.932z"/>
	<linearGradient id="SVGID_4_" gradientUnits="userSpaceOnUse" x1="1342.7822" y1="714.3027" x2="1342.7822" y2="621.1255">
		<stop  offset="0.2137" style="stop-color:#727293"/>
		<stop  offset="1" style="stop-color:#911A3A"/>
	</linearGradient>
	<path fill="url(#SVGID_4_)" d="M1128.5,660.932c0,0,8.5-9,33.806-16.561c8.134-2.43,13.864-9.373,17.196-10.773
		c0.171-0.086,10.658-3.264,20.998-2.561c6.539,0.443,15.092-4.33,24.75-3.605c7.373,0.553,18.936,4.297,27.75,5
		c6.23,0.498,17.698-1.281,24.511-0.713c7.872,0.656,21.739-13.537,34.739-10.037c6.285,1.693,14.071,7.652,31.5,9.355
		c6.53,0.637,19,9.67,32.586,8.912c11.995-0.668,22.275,5.174,28.164,6.232c7.969,1.436,19.697-0.664,28.002,3.719
		c3.373,1.781,11.978-1.893,14.998,1.137c7,7.02,9.15,1.633,13.495,2.445c54.976,10.291,85.456,20.264,94.507,29.709
		c24.666,25.74-250.936,31.111-250.936,31.111L1184,685.707L1128.5,660.932z"/>
	<linearGradient id="SVGID_5_" gradientUnits="userSpaceOnUse" x1="286.3184" y1="627.2656" x2="286.3184" y2="489.3281">
		<stop  offset="0.2242" style="stop-color:#8B8BA5"/>
		<stop  offset="1" style="stop-color:#961A3A"/>
	</linearGradient>
	<path fill="url(#SVGID_5_)" d="M109.5,532.432c0,0,32-7.5,45.5-7.5s47.166-4,55-6.332c7.834-2.334,51.833-25.334,54.5-28
		s13.667-0.666,16.334,1.666c-0.334-0.666,17.333,1.334,21.333,2.668c4,1.332,19.946,5.998,28.307,5.666
		c8.36-0.334,56.36,18.332,67.36,18c11-0.334,42,14.666,48.333,13.832c6.333-0.832,16.97,14.502,16.97,14.502l-54.635,68.332
		l-98.002,12L109.5,532.432z"/>
	<linearGradient id="SVGID_6_" gradientUnits="userSpaceOnUse" x1="695.2754" y1="658.1914" x2="695.2754" y2="578.6992">
		<stop  offset="0.0888" style="stop-color:#7B7B9B"/>
		<stop  offset="1" style="stop-color:#911A3A"/>
	</linearGradient>
	<path fill="url(#SVGID_6_)" d="M575.717,578.699c0,0,58.117,16.6,86.451,23.584c0,0,14.334,7.318,20,11.984
		c5.666,4.668,37.334,11,38.666,11c1.334,0,18,8.24,28,3.953c2-1.953,12.668,5.047,12.668,5.047s18.666,10,22.332,10.668
		c3.668,0.666,15,2.998,17.668,4.332c2.666,1.334,13.332,8.924,13.332,8.924l-145-16.85L575.717,578.699z"/>
	<linearGradient id="SVGID_7_" gradientUnits="userSpaceOnUse" x1="496.1577" y1="666.4316" x2="496.1577" y2="538.1343">
		<stop  offset="0.235" style="stop-color:#727293"/>
		<stop  offset="1" style="stop-color:#911A3A"/>
	</linearGradient>
	<path fill="url(#SVGID_7_)" d="M345,618.432c0,0,34.5-28,52.5-43.5s16.5-17,31-23.5s17-15,27.5-13s31.5,5.5,45.5,13
		s29.5,5.5,37.5,12s25.5,13.703,34.5,14.852s22.885,10.148,34.443,13.148c11.557,3,28.393,7,36.725,13s-5.668,34.5-5.668,34.5
		l-152,27.5L345,618.432z"/>
	<linearGradient id="SVGID_8_" gradientUnits="userSpaceOnUse" x1="209.75" y1="638.9316" x2="209.75" y2="487.9316">
		<stop  offset="0.2773" style="stop-color:#6C6C8C"/>
		<stop  offset="1" style="stop-color:#911A3A"/>
	</linearGradient>
	<path fill="url(#SVGID_8_)" d="M0,487.932c0,0,10.75,3.5,20.25,6s19.125,9.5,36.625,14.5c0,0,7.229,3.166,13.396,6.998
		c6.166,3.834,8.697,2.168,16.697,4.5c8,2.334,21.684,5.502,29.516,8.168c7.834,2.666,65.175,12,76.675,19.834
		c11.5,7.832,50.005,22.5,59.338,25.5s43.002,18.166,55.002,23.666s26.334,16.668,38.5,17.668c12.168,1,11.335-1.834,26.669,2
		c15.332,3.834,21,7.834,27.166,10.834s19.666,9.832,19.666,9.832l-123.166,1.5l-150.416-23.5L0,605.932V487.932z"/>
	<linearGradient id="SVGID_9_" gradientUnits="userSpaceOnUse" x1="1650.125" y1="783.9316" x2="1650.125" y2="518.1411">
		<stop  offset="0.2405" style="stop-color:#646487"/>
		<stop  offset="1" style="stop-color:#961A3A"/>
	</linearGradient>
	<path fill="url(#SVGID_9_)" d="M1384.5,700.182c0,0,78.5-45.125,116-44.125c1,1.5,35-3.062,54-21.062
		c-0.5,1.5,43.5-28.531,68-35.531s58.5-39.016,64-41.516s47.5-35.508,60.5-38.008c0,1,0-4.504,25.5-0.004c1,0.5,27,8.498,31.5,8.998
		s23.5,3,29.5,4s23.5,4.498,36,9.498s22.5,6.5,27.5,5s11.75-0.5,16.25,1.5s6.75,3,6.75,3v232l-539.75-26.664L1384.5,700.182z"/>
	<linearGradient id="SVGID_10_" gradientUnits="userSpaceOnUse" x1="1083.7861" y1="758.6543" x2="1083.7861" y2="617.6846">
		<stop  offset="0.4844" style="stop-color:#5D5D7F"/>
		<stop  offset="1" style="stop-color:#821A3A"/>
	</linearGradient>
	<path fill="url(#SVGID_10_)" d="M835,669.932c0,0,17-17.5,36-20.5c0,0,24.5-1,35-5c0.5,0,28-18.5,45.5-25c1,1,34.5-8.922,62,9.789
		c2.5,1.711,8,5.711,24.5,8.211s23.5-0.5,29.5,4s21.5,4.252,29,2.377c7.5-1.877,18.5-2.877,33,3.123s17,5.5,60.5,23
		c21,13.5,32,4,35,2.5s6.5-6.711,24.5,4.645s32,14.322,42,15.84c10,1.516,39,18.016,41,20.516s-38,45.223-38,45.223L988,734.432
		l-143.5,7L835,669.932z"/>
	<linearGradient id="SVGID_11_" gradientUnits="userSpaceOnUse" x1="1715.918" y1="757.2676" x2="1715.918" y2="578.2676">
		<stop  offset="0.1209" style="stop-color:#57577A"/>
		<stop  offset="1" style="stop-color:#911A3A"/>
	</linearGradient>
	<path fill="url(#SVGID_11_)" d="M1511.836,731.1c0,0,18.666-11.584,43.666-31.584c5.334-1.332,24.666-9.955,45-18.289
		s49-16.648,56.668-23.314c7.666-6.666,35.332-15.988,45.332-16.322c10-0.332,75-18.326,82.334-20.994
		c7.334-2.666,7.334-9.664,29.334-8.664s25.334-7.33,35-11.664s11.666-8.169,14.666-8.501c3-0.334,15.334-3.833,15.334-3.833h19.33
		c0,0,12.418-6.997,16.086-7.665c3.666-0.666,5.414-2.001,5.414-2.001v157.664l-169.079,21.336l-235.542-8.658L1511.836,731.1z"/>
	<linearGradient id="SVGID_12_" gradientUnits="userSpaceOnUse" x1="644.668" y1="708.4473" x2="644.668" y2="598.4453">
		<stop  offset="0.2098" style="stop-color:#57577A"/>
		<stop  offset="1" style="stop-color:#851A3A"/>
	</linearGradient>
	<path fill="url(#SVGID_12_)" d="M463.137,641.342c0,0,38.029,0.258,52.363,2.592c0.334,0.332,32,4.666,38.334-10
		c0.666,0.332,6.664-4,10.665-2.668c0.335,0,2.101-4.666,11.218-5.666c0.45,0.334,32.449-19.666,34.783-21.666
		c2.333-2,11-6.002,15.333-5.334c4.333,0.666,8.042-1.668,19.042,1.832s6.875,6.125,12.875,8.375s-4.25,4.375,32.5,17.875
		c8.25,3.25,12,9.5,23.75,11s28.5,5.25,28.5,5.25s24.25,8.5,40.25,10s15.5,2.25,21.5,2s6-4.482,27.5,3.26
		c21.5,7.74,4.084,15.75,25.084,20.912s24,13.812,24,13.812L696.5,708.447l-136-11.646L408.502,683.6L463.137,641.342z"/>
	<linearGradient id="SVGID_13_" gradientUnits="userSpaceOnUse" x1="287.8584" y1="699.5151" x2="287.8584" y2="583.1685">
		<stop  offset="0.2098" style="stop-color:#4F4F72"/>
		<stop  offset="1" style="stop-color:#821A3A"/>
	</linearGradient>
	<path fill="url(#SVGID_13_)" d="M0,593.932c0,0,33.25-5,49.75-4.5c0,0,8.291,0.598,14.625-0.035
		c6.334-0.631,52.062-14.633,107.396,1.535c55.332,16.166,57.363,23.5,75.697,25.668c18.334,2.166,5.35-6.668,50.682,0
		c8.834,0.584,34.342,1.832,40.092,10.082c0,0,4.254,4.578,21.004,2.539s17.002-3.664,23.752,0.523s16.751,6.938,29.001,2.438
		s20.751-3.625,37.501,2.312s42.5,8.938,64,21.688s39.25,19.5,59.75,36s-93.5,0-93.5,0l-241-15.5l-152.5-15l-86.25-8V593.932z"/>
	<linearGradient id="SVGID_14_" gradientUnits="userSpaceOnUse" x1="29.395" y1="651.9336" x2="29.395" y2="614.3066">
		<stop  offset="0.4089" style="stop-color:#48486D"/>
		<stop  offset="1" style="stop-color:#691A3A"/>
	</linearGradient>
	<path fill="url(#SVGID_14_)" d="M0,614.307c0,0,24.5,8.938,49.5,17.438s-8.375,10.095-8.375,10.095L7.5,651.934H0V614.307z"/>
	<linearGradient id="SVGID_15_" gradientUnits="userSpaceOnUse" x1="874.0005" y1="730.4316" x2="874.0005" y2="684.1816">
		<stop  offset="0.3043" style="stop-color:#3C3C60"/>
		<stop  offset="1" style="stop-color:#5F1A3A"/>
	</linearGradient>
	<path fill="url(#SVGID_15_)" d="M766,684.182c0,0,35.5,9.5,63.25,2.5s49.75,5,67.5,5.25s21.75,14.25,46.5,15s38.75,12,38.75,12
		l-50.25,11.5l-93.25-4.25l-63-17L766,684.182z"/>
	<linearGradient id="SVGID_16_" gradientUnits="userSpaceOnUse" x1="331.7524" y1="741.2637" x2="331.7524" y2="629.2212">
		<stop  offset="0.2992" style="stop-color:#404066"/>
		<stop  offset="1" style="stop-color:#5A1A3A"/>
	</linearGradient>
	<path fill="url(#SVGID_16_)" d="M0,642.598c0,0,29.588-14,42.588-13.334c1.334-0.334,30.459,1.332,46.459,3.666
		c0.333,0.668,56.396,5.334,75.396,15.334c0,0,16.032,9.334,40.032-2.334c0.666,1,14.016-0.998,35.016-2.332s12.008-8,45.674-1.668
		c0.334,0.334,24.672,11.404,47.338,9.869c1,0.465,21.668,5.799,48.668,13.131c0.666,1,22.335,2.668,26.001,7
		c0.334,0.666,34.931,9.332,50.132,6.666c0.203,0.668,44.201,3,64.869,8.668c0,0.332,30.321-3.334,42.327,0
		c0.006,0,56.673-23.666,97.673-9.334c0.666,0.334,1.333,48.334,1.333,48.334l-331.503,15l-315.08-6.668L0,734.434V642.598z"/>
	<linearGradient id="SVGID_17_" gradientUnits="userSpaceOnUse" x1="463.1372" y1="751.5996" x2="463.1372" y2="693.3896">
		<stop  offset="0.4793" style="stop-color:#404066"/>
		<stop  offset="1" style="stop-color:#551A3A"/>
	</linearGradient>
	<path fill="url(#SVGID_17_)" d="M327.833,693.934c0,0,27.666-2.334,40.333,2.666s37.334,8.334,44.334,8.334
		s64.333-11.211,100.666-5.773c36.334,5.439,83.001,9.771,94.334,25.439c11.333,15.666-198.667,27-198.667,27l-90.501-31.666
		L327.833,693.934z"/>
	<linearGradient id="SVGID_18_" gradientUnits="userSpaceOnUse" x1="1710.25" y1="881.9316" x2="1710.25" y2="718.3027">
		<stop  offset="0.5183" style="stop-color:#333356"/>
		<stop  offset="1" style="stop-color:#4B1A3A"/>
	</linearGradient>
	<path fill="url(#SVGID_18_)" d="M1500.5,718.432c0,0,18.25,4.875,43-0.125c0.25,0,55.75-0.562,87.75,11.438s32,6.469,64.5,14.469
		c0.75,0.75,36-1.266,56.5,3.234s16-0.258,35.75-0.008s16-6.004,44.5-3.504c12,0.5,10.25-2.002,17.25-4.502
		c-0.25-0.25,10.75-6.75,25.75-8s23-4.252,32-1.252s12.5,0.25,12.5,0.25v151.5l-390-61.75L1500.5,718.432z"/>
	<linearGradient id="SVGID_19_" gradientUnits="userSpaceOnUse" x1="1206.7383" y1="763.6816" x2="1206.7383" y2="679.1025">
		<stop  offset="0.3043" style="stop-color:#3C3C60"/>
		<stop  offset="1" style="stop-color:#691A3A"/>
	</linearGradient>
	<path fill="url(#SVGID_19_)" d="M1063.5,705.932c0,0,8.75,4.25,18.75-6.5s12-6.5,16.5-9.5s3.5-11.75,11.25-10.75s16,4,26.25,9
		s17,8.75,38.25,13.5s22.5,5.25,43.5,6.5s26.5,6.5,51.5,3s14,3.5,36-1.5s10.25-6.75,18.75-6.75s16.5-4.75,25-0.5
		s-60.25,48.75-60.25,48.75l-61.5,12.5l-68.5-19.25l-87.75-10L1063.5,705.932z"/>
	<linearGradient id="SVGID_20_" gradientUnits="userSpaceOnUse" x1="1054.208" y1="800.2676" x2="1054.208" y2="696.8003">
		<stop  offset="0.4049" style="stop-color:#38385E"/>
		<stop  offset="1" style="stop-color:#501A3A"/>
	</linearGradient>
	<path fill="url(#SVGID_20_)" d="M863.584,719.932c0,0,23.918,4.668,36.25,2.668c0.666-0.334,59.332-20.668,79.666-21.334
		c-0.332,0.334,11-7.666,39-3c1,0.334,38.668,1.666,54,6.334c15.333,4.666,55.333,21.666,87,23.334c-0.667,0,32.332,7,52.666,16.666
		c20.334,9.668,32.667,15.668,32.667,15.668l-54.667,40l-135.957-2.334l-186.376-47L863.584,719.932z"/>
	<linearGradient id="SVGID_21_" gradientUnits="userSpaceOnUse" x1="495.8237" y1="758.6543" x2="495.8237" y2="708.4463">
		<stop  offset="0.1624" style="stop-color:#353559"/>
		<stop  offset="1" style="stop-color:#551A3A"/>
	</linearGradient>
	<path fill="url(#SVGID_21_)" d="M378.709,714.936c0,0,30.123-4.998,58.79,4.336s74.667,9.66,97.001,8.66
		c0.333,0,26.332-0.666,48.666-11.666c-0.333-1,30-11.668,38.667-6.334s-19.667,18.387-19.667,18.387l-83.333,30.336l-89.667-0.754
		l-61-22.635L378.709,714.936z"/>
	<linearGradient id="SVGID_22_" gradientUnits="userSpaceOnUse" x1="793.5005" y1="856.5996" x2="793.5005" y2="660.7075">
		<stop  offset="0.2649" style="stop-color:#2E2E51"/>
		<stop  offset="1" style="stop-color:#461A3A"/>
	</linearGradient>
	<path fill="url(#SVGID_22_)" d="M380.5,719.432c0,0,59,23.26,125.5,28.631c0.5-0.131,44-5.631,96-36.631c0.5,1,61.5-47.5,103-50
		c1.5,1,14.5-11,98.5,34.5c1,1,37,13.5,68,27.5c1.5,2,77,37,108,42s39.5,11.5,58.5,13s26,4.5,43,5s48.666-22.332,63.333-25.5
		c14.667-3.166,15.335-4.332,29.667-1.5c14.333,2.834,11.166,5.834,24.166,5.668c13-0.168,14,4.5,14,4.5l-25.998,48l-181.625,21.67
		L669.404,856.6l-294.57-48.533L380.5,719.432z"/>
	<linearGradient id="SVGID_23_" gradientUnits="userSpaceOnUse" x1="1746.625" y1="923.9316" x2="1746.625" y2="748.6079">
		<stop  offset="0.7043" style="stop-color:#2E2E51"/>
		<stop  offset="0.9559" style="stop-color:#461A3A"/>
	</linearGradient>
	<path fill="url(#SVGID_23_)" d="M1581.5,749.682c0,0,35.5-5.625,67,8.875c19.5,6.5,30,15.438,64,13.938s4,2.469,39.5,12.469
		c2.5,2.5,26.5,16.484,36.5,21.484s33.5,11.992,46,26.492s38.75,20.496,52.75,23.496s32.75,16.996,32.75,16.996v50.5l-346.75-113.5
		L1581.5,749.682z"/>
	<linearGradient id="SVGID_24_" gradientUnits="userSpaceOnUse" x1="330.2241" y1="837.9316" x2="330.2241" y2="658.1914">
		<stop  offset="0.2649" style="stop-color:#2E2E51"/>
		<stop  offset="1" style="stop-color:#411A3A"/>
	</linearGradient>
	<path fill="url(#SVGID_24_)" d="M0,706.934c0,0,25.582-8,45.916-5.332c-0.334-0.334,32.458-2.334,65.791-13.668
		c0,0,27.73-10,58.73-14c0,0,24.031-7.998,37.697-9.998s14.683-4.334,28.35-4c13.666,0.334,20.174-4.062,28.508-0.033
		c8.334,4.031,15.004,2.779,28.004,13.279s16.502,7.5,24.252,11c0,0,16.001,5.25,18.501,11.75c6,2,15.751,5.75,20.001,8.75
		c0.25,0.5,24.25,9.25,31.75,15.75c0,0,31,19.5,62.5,30c0.5,0.25,46.5,16.75,72.25,23.25c-0.25,0,78.25,27.75,98.5,42.25
		s27,15.75,39.25,19.25s-231-12.25-231-12.25l-260,1l-102.75,14l-66.25-20V706.934z"/>
	<linearGradient id="SVGID_25_" gradientUnits="userSpaceOnUse" x1="318.332" y1="894.5977" x2="318.332" y2="757.9009">
		<stop  offset="0.2649" style="stop-color:#29294C"/>
		<stop  offset="1" style="stop-color:#3D1A3A"/>
	</linearGradient>
	<path fill="url(#SVGID_25_)" d="M76.02,813.17c0,0,18.48-6.57,26.48-10.57c0.333,0.666,21.334-9,30-12.666
		c1.666,0.332,16.666-7.666,32.666-8c0.334,0.666,17.333-3.002,25.666-6.502c-0.332,0.502,15.334-3.166,21.334-3.166
		c0.334,0,10.666-6.332,33-8c0,0,19.333-4.998,42.666-4.666c0.334,0.334,36.334-2,44-1.666c7.667,0.334,37,1.998,47.334,8.666
		c0-0.334,21,12.666,41.666,13c1,0.334,29,8,49,16c1,1,17,10.602,36.666,12.467c19.668,1.867,48.334,3.201,53.001,3.533
		c4.667,0.334,5,14.766,5,14.766l-155.334,35.566l-122,30.668l-86.333,1.998l-128.667-66L76.02,813.17z"/>
	<linearGradient id="SVGID_26_" gradientUnits="userSpaceOnUse" x1="1479" y1="983.9316" x2="1479" y2="692.9155">
		<stop  offset="0.2649" style="stop-color:#29294C"/>
		<stop  offset="1" style="stop-color:#3D1A3A"/>
	</linearGradient>
	<path fill="url(#SVGID_26_)" d="M1038,819.932c0,0,48.5-18.5,66-22c2.5,0,66.5-17.561,76-23.029c9.5-5.471,38-21.971,60.5-30.471
		c1,0,18.5-15.5,47.5-18.5c0,1,33.861-17,51.681-23c1.319,0.5,23.819-16,72.819-7.5c20.5,5.5,33.5-2.375,37-2.438
		s9-1.562,31.5,11.938s70,27.5,70,27.5s37.5,4,43.5,14c0,0,24.5,19,51,22c3,2,13.5,5,30,19c1,0,42,18.5,91.5,24
		c1.5,0,24-1.5,37.5,8.5c2,2.5,8,6.5,24,23.5c0,0,11.75,21.5,37.25,26.5c0,0,48.25,20.5,54.25,31v83l-750.75-23l-122.875-29
		L1038,819.932z"/>
	<linearGradient id="SVGID_27_" gradientUnits="userSpaceOnUse" x1="109.4844" y1="910.9316" x2="109.4844" y2="775.4316">
		<stop  offset="0.1803" style="stop-color:#242447"/>
		<stop  offset="1" style="stop-color:#391A3A"/>
	</linearGradient>
	<path fill="url(#SVGID_27_)" d="M0,775.432c0,0,17.75,18,48.25,27c0,0,12.078,4.336,27.645,10.738
		c16.588,6.824,37.34,15.992,52.043,24.762c1.5,2.5,33.531,7.5,91.031,47.5c0,0.5-45.484,20-45.484,20l-105.492,3.17l-52.746,2.33
		L0,908.602V775.432z"/>
	<linearGradient id="SVGID_28_" gradientUnits="userSpaceOnUse" x1="1004.543" y1="962.9316" x2="1004.543" y2="774.9023">
		<stop  offset="0.2658" style="stop-color:#242447"/>
		<stop  offset="1" style="stop-color:#371A3A"/>
	</linearGradient>
	<path fill="url(#SVGID_28_)" d="M676.187,835.518c0,0,48.646-27.25,107.646-37.916c23.332-3.668,20.999-8.666,37.332-10
		c0.334,0.332,8.334-0.668,27.668-7.334c0.332,0,13.666-1,21.666-4.334c1.666-0.332,12.666-4.666,32,7.334
		c0,1.334,38.999,18.549,80.666,21.941c0.667,0.061,7.666,2.395,32,5.061s37.668,6.666,51.001,11.334
		c13.333,4.666,54.667,28.334,71,33.666c16.333,5.334,58.671,11.996,82.337,26.996s37.666,18.668,50.666,21.668
		s35.666,9.666,49.666,16.666s13.668,17.334,19.668,18.334S1199.5,962.932,1199.5,962.932l-235.332-2.666L778.166,959.6
		l-108.762-48.666L676.187,835.518z"/>
	<linearGradient id="SVGID_29_" gradientUnits="userSpaceOnUse" x1="457.0527" y1="1038.8574" x2="457.0527" y2="808.0664">
		<stop  offset="0.2658" style="stop-color:#202042"/>
		<stop  offset="1" style="stop-color:#351A3A"/>
	</linearGradient>
	<path fill="url(#SVGID_29_)" d="M0,908.602c0,0,29.25-13.17,79.25-11.67c0,0,10.792-6.832,36.625-4.166
		c0.333,0,19.812,1.166,27.312,0.916c0.75-0.25,7.031,5.25,39.531-8.25c-0.25,0,27.516-10.25,35.516-11.5
		c0.75,0.25,13.758-5.5,39.758,0c6.75,1.75,16.004,0.221,23.254-2.389c-0.5,0.389,20.502-12.361,46.752-12.611
		c0.75,0.5,31.501-4.998,51.835-7.998c20.333-3,34.999-8.334,55.667-9.334c20.666-1,48-18.334,76.334-20
		c28.333-1.668,28.999-15.334,50.666-13.334s61.333,18.197,69,18.1c7.667-0.1,56.333,10.234,86,22.568
		c29.666,12.332,43.666,31.332,92.999,49.332s90.333,27.334,101.999,33c11.667,5.666-44,14.666-44,14.666l-209,62.258l-94,30.668
		l-115.583-22.262L0,936.596V908.602z"/>
	<linearGradient id="SVGID_30_" gradientUnits="userSpaceOnUse" x1="1231.958" y1="1084.9316" x2="1231.958" y2="915.0098">
		<stop  offset="0" style="stop-color:#1A1A3A"/>
		<stop  offset="1" style="stop-color:#331A3A"/>
	</linearGradient>
	<path fill="url(#SVGID_30_)" d="M554.999,1025.6c0,0,31.5-30.666,65.001-41.666c0.166,0,17-26.002,45.5-30.752s25.25-17.5,38-19
		s50.5-7.5,83.25-4.75s26.25-5,55.75,3.5c9.25,4.5,23.25-8.75,35.5-7s21.5-2.5,32.25-4s14-4.5,38.75-5.75s70.25-0.75,78.5,1.5
		s35-13.25,92.25,12c28.5,14,75.75,5.25,82,8s57-1,62.75-1s40.5-6.75,55.75-2.25c0.25,0.25,53-0.75,68.5,4s69.5,11.75,79.25,9.25
		s32.75-0.25,41.75,1.75s30.916-8.998,42.916-4.998s30.833,3.166,43.5,0.5c12.668-2.668,52-10.668,68.668-11.668
		c16.666-1,23.416-5.834,49.416,3.666s82.25,18,97.5,18.75s36.5,8.5,70.75,7s18.5,3,37.5,4v118.25l-1376.084-24.334L554.999,1025.6z
		"/>
	<linearGradient id="SVGID_31_" gradientUnits="userSpaceOnUse" x1="334.6982" y1="1087.2695" x2="334.6982" y2="908.6016">
		<stop  offset="0" style="stop-color:#1A1A3A"/>
		<stop  offset="1" style="stop-color:#331A3A"/>
	</linearGradient>
	<path fill="url(#SVGID_31_)" d="M0,908.602c0,0,16.583,14,85.25,9.332c-3.334,0.668,65.458,0.668,134.125,28
		c33.75,2.998,62.729,2,132.729-10c1.334,0,20.031-4,57.365,17.334c-2,0,78.016,37.029,115.35,53.516
		c37.332,16.486,62.008,39.818,125.341,35.818s-49.996,25.334-49.996,25.334l-369.998,12.666l-202.249,6.668L0,1084.932V908.602z"/>
	<path fill="#161635" d="M0,1014.932c0,0,39.25,4,50.5,0.25c0.25-0.25,18.375-9.555,33.125,0.973c24.5,0.277,19.062,11.723,49.062,0
		c-0.25,0.277,4.281-4.412,19.281,0.184c-0.25,0.094,1.766,2.904,18.016,0c0.75,0.344,37.508-12.406,68.008-6.656
		s40.754,7,51.254,6.25s7.752,3.75,18.752,4.5s7.751,6.338,21.501,1.17c13.75-5.17,16.001-8.67,38.501-9.17
		c1.5,0.25,22.75-3.75,43.25,0.75c1,0.25,10.5-7.5,26.5-3.75s59.25,0.25,89.25,8.75s36.198,12.893,65.975,16.822
		c29.775,3.928,7.775,3.928,7.775,3.928l-283.25,11.25L93,1055.433l-80.25-2.499H0V1014.932z"/>
	<path fill="#161635" d="M637.25,1038.182c0,0,78.75-24.75,99.5-24.25s47.75,7.75,70.75,4s15.25,4.484,45.5-4.008
		s37.5-7.492,48.25-6.492s30,2.75,53,1s30.75,0,72.5,5s36,1,72.5,4s42-2.25,74.5,2.75s83.75,7,100.5,4s38.25-2.75,61.75,1.5
		s32.75,1.25,84.75,6s65.25,5.25,117.25,6.5c11.5-0.25,45.75-6,79.5,3.25s70-1.5,95,5.25c8.5,0.75,95,8.5,122.5,5.75
		s85,11.25,85,11.25v7.25l-1300.25-27.5L637.25,1038.182z"/>
	<path fill="#11112D" d="M0,1040.682c0,0,113.75,0.51,179.25,3.943c0-0.068,206.625-9.631,243.625-8.631s83.562,3.32,131.562-0.105
		c2,0.574,130.531-4.441,188.531-2.941s137.016-8.072,219.516-0.289c82.5,7.781,150.508,5.475,222.508,4.377
		c-0.5,1.4,136.504,1.398,169.004,3.898s168.502,12.5,200.502,10c0,0.5,153.752,10.498,223.752,6.498s134.75,7,141.75,9v18.502H0
		V1040.682z"/>
	<path fill="#0A0A1C" d="M0,1067.291c0,0,53.917,3.986,151.917-0.014s288.792-20.006,310.126-19.34
		c21.333,0.668,181.395-8.043,277.395-0.023c24,1.354,130.697,2.361,212.699,8.857c82,6.494,136.682-7.506,258.682-7.506
		s240.676,0.664,302.008,11.332c61.334,10.666,136.422,13.561,213.756,8.445c77.332-5.113,136.418-7.779,193.418,7.553v141.338H0
		V1067.291z"/>
</g>
<rect x="375.132" y="-336.075" fill="none" width="1686.868" height="1476.01"/>
</svg>
