<?xml version="1.0" encoding="utf-8"?>
<!-- Generator: Adobe Illustrator 16.0.4, SVG Export Plug-In . SVG Version: 6.00 Build 0)  -->
<!DOCTYPE svg PUBLIC "-//W3C//DTD SVG 1.1//EN" "http://www.w3.org/Graphics/SVG/1.1/DTD/svg11.dtd">
<svg version="1.1" id="Layer_1" xmlns="http://www.w3.org/2000/svg" xmlns:xlink="http://www.w3.org/1999/xlink" x="0px" y="0px"
	 width="399.988px" height="400.001px" viewBox="0 0 399.988 400.001" enable-background="new 0 0 399.988 400.001"
	 xml:space="preserve">
<rect x="-0.295" y="0.45" fill="#351A3A" width="399.99" height="400"/>
<path fill="#404066" d="M399.988,25.451V0.001H-0.295h0.283v25.041v350.809v24.594v-0.443h23.988l0,0h351l0,0h25.012l0,0l0,0v-24.55
	l0,0V25.451L399.988,25.451z M374.988,375.001h-351v-350h351V375.001z"/>
<g>
	<g opacity="0.1">
		<path d="M124.99,178.551h32.051v102.993H124.99V178.551z M141.016,127.354c10.246,0,18.562,8.32,18.562,18.552
			c0,10.247-8.316,18.577-18.562,18.577c-10.268,0-18.584-8.33-18.584-18.577C122.432,135.675,130.748,127.354,141.016,127.354"/>
		<path d="M177.141,178.551h30.703v14.077h0.436c4.26-8.102,14.715-16.64,30.305-16.64c32.406,0,38.393,21.321,38.393,49.062v56.494
			h-31.99v-50.078c0-11.947-0.248-27.312-16.648-27.312c-16.67,0-19.207,13.002-19.207,26.434v50.957h-31.99V178.551z"/>
	</g>
	<g>
		<g>
			<g>
				<path fill="#E8A215" d="M124.99,174.551h32.051v102.993H124.99V174.551z M141.016,123.354c10.246,0,18.562,8.32,18.562,18.552
					c0,10.247-8.316,18.577-18.562,18.577c-10.268,0-18.584-8.33-18.584-18.577C122.432,131.675,130.748,123.354,141.016,123.354"/>
				<path fill="#E8A215" d="M177.141,174.551h30.703v14.077h0.436c4.26-8.102,14.715-16.64,30.305-16.64
					c32.406,0,38.393,21.321,38.393,49.062v56.494h-31.99v-50.078c0-11.947-0.248-27.312-16.648-27.312
					c-16.67,0-19.207,13.002-19.207,26.434v50.957h-31.99V174.551z"/>
			</g>
		</g>
	</g>
</g>
</svg>
