<?xml version="1.0" encoding="utf-8"?>
<!-- Generator: Adobe Illustrator 16.0.4, SVG Export Plug-In . SVG Version: 6.00 Build 0)  -->
<!DOCTYPE svg PUBLIC "-//W3C//DTD SVG 1.1//EN" "http://www.w3.org/Graphics/SVG/1.1/DTD/svg11.dtd">
<svg version="1.1" id="Layer_1" xmlns="http://www.w3.org/2000/svg" xmlns:xlink="http://www.w3.org/1999/xlink" x="0px" y="0px"
	 width="399.988px" height="400.001px" viewBox="0 0 399.988 400.001" enable-background="new 0 0 399.988 400.001"
	 xml:space="preserve">
<rect x="-0.021" y="0.362" fill="#351A3A" width="399.988" height="400.001"/>
<g>
	<g opacity="0.1">
		<path d="M194.805,235.771l-91.625-88.063V266.91c0,3.881,3.279,7.033,7.326,7.033h178.947c4.039,0,7.324-3.152,7.324-7.033V147.7
			l-91.623,88.071C202.289,238.525,197.656,238.525,194.805,235.771z"/>
		<path d="M205.154,179.944c-2.852-2.748-7.498-2.748-10.35,0l-91.539,87.985c0.516,3.4,3.555,6.014,7.24,6.014h178.947
			c3.678,0,6.717-2.613,7.234-6.014L205.154,179.944z"/>
		<path d="M205.154,189.14c-2.852-2.482-7.498-2.482-10.35,0l-91.539,79.376c0.516,3.072,3.555,5.428,7.24,5.428h178.947
			c3.678,0,6.717-2.355,7.234-5.428L205.154,189.14z"/>
		<path d="M194.887,236.414c2.854,2.75,7.5,2.75,10.352,0l91.539-87.985c-0.518-3.4-3.555-6.01-7.24-6.01H110.59
			c-3.68,0-6.717,2.609-7.234,6.01L194.887,236.414z"/>
		<path d="M194.795,231.477c2.854,2.605,7.5,2.605,10.352,0l91.541-83.364c-0.52-3.221-3.559-5.693-7.244-5.693H110.498
			c-3.678,0-6.717,2.473-7.232,5.693L194.795,231.477z"/>
		<path d="M194.887,227.221c2.854,2.482,7.5,2.482,10.352,0l91.539-79.374c-0.518-3.074-3.555-5.428-7.24-5.428H110.59
			c-3.68,0-6.717,2.354-7.234,5.428L194.887,227.221z"/>
	</g>
	<g>
		<g>
			<g>
				<path fill="#E8A215" d="M194.805,231.771l-91.625-88.063V262.91c0,3.881,3.279,7.033,7.326,7.033h178.947
					c4.039,0,7.324-3.152,7.324-7.033V143.7l-91.623,88.071C202.289,234.525,197.656,234.525,194.805,231.771z"/>
				<path fill="#691A3A" d="M205.154,175.944c-2.852-2.748-7.498-2.748-10.35,0l-91.539,87.985c0.516,3.4,3.555,6.014,7.24,6.014
					h178.947c3.678,0,6.717-2.613,7.234-6.014L205.154,175.944z"/>
				<path fill="#E8A215" d="M205.154,185.14c-2.852-2.482-7.498-2.482-10.35,0l-91.539,79.376c0.516,3.072,3.555,5.428,7.24,5.428
					h178.947c3.678,0,6.717-2.355,7.234-5.428L205.154,185.14z"/>
			</g>
			<path fill="#691A3A" d="M194.887,232.414c2.854,2.75,7.5,2.75,10.352,0l91.539-87.985c-0.518-3.4-3.555-6.01-7.24-6.01H110.59
				c-3.68,0-6.717,2.609-7.234,6.01L194.887,232.414z"/>
			<path fill="#691A3A" d="M194.795,227.477c2.854,2.605,7.5,2.605,10.352,0l91.541-83.364c-0.52-3.221-3.559-5.693-7.244-5.693
				H110.498c-3.678,0-6.717,2.473-7.232,5.693L194.795,227.477z"/>
			<path fill="#E8A215" d="M194.887,223.221c2.854,2.482,7.5,2.482,10.352,0l91.539-79.374c-0.518-3.074-3.555-5.428-7.24-5.428
				H110.59c-3.68,0-6.717,2.354-7.234,5.428L194.887,223.221z"/>
		</g>
	</g>
</g>
<path fill="#404066" d="M400,25.362V0h-0.033h-24.592H24.572H0v24.954v350.81v24.594V400h25l0,0h350l0,0h25l0,0l0,0v-24.638l0,0
	V25.362L400,25.362z M375,375H25V25h350V375z"/>
</svg>
