<?xml version="1.0" encoding="utf-8"?>
<!-- Generator: Adobe Illustrator 16.0.4, SVG Export Plug-In . SVG Version: 6.00 Build 0)  -->
<!DOCTYPE svg PUBLIC "-//W3C//DTD SVG 1.1//EN" "http://www.w3.org/Graphics/SVG/1.1/DTD/svg11.dtd">
<svg version="1.1" id="Layer_1" xmlns="http://www.w3.org/2000/svg" xmlns:xlink="http://www.w3.org/1999/xlink" x="0px" y="0px"
	 width="399.988px" height="400.001px" viewBox="0 0 399.988 400.001" enable-background="new 0 0 399.988 400.001"
	 xml:space="preserve">
<rect x="-0.016" y="0.366" fill="#351A3A" width="399.996" height="399.994"/>
<g>
	<g opacity="0.1">
		<path d="M323.454,363.694H96.113c-21.471,0-37.89-16.419-37.89-37.895c0-21.468,16.419-37.886,37.89-37.886h227.341
			c21.472,0,37.891,16.418,37.891,37.886C361.345,347.275,344.926,363.694,323.454,363.694z M96.113,300.545
			c-13.894,0-25.258,11.361-25.258,25.255s11.364,25.263,25.258,25.263h227.341c13.894,0,25.259-11.369,25.259-25.263
			s-11.365-25.255-25.259-25.255H96.113z M102.426,338.432c-2.525,0-6.312-2.525-6.312-6.32c0-3.787,2.525-6.312,6.312-6.312
			c3.795,0,6.319,2.524,6.319,6.312C108.745,335.906,106.221,338.432,102.426,338.432z"/>
		<path d="M323.454,362.369H96.113c-21.471,0-37.89-16.419-37.89-37.895c0-21.468,16.419-37.886,37.89-37.886h227.341
			c21.472,0,37.891,16.418,37.891,37.886C361.345,345.95,344.926,362.369,323.454,362.369z M96.113,299.22
			c-13.894,0-25.258,11.361-25.258,25.255s11.364,25.263,25.258,25.263h227.341c13.894,0,25.259-11.369,25.259-25.263
			s-11.365-25.255-25.259-25.255H96.113z M102.426,337.106c-2.525,0-6.312-2.525-6.312-6.32c0-3.787,2.525-6.312,6.312-6.312
			c3.795,0,6.319,2.524,6.319,6.312C108.745,334.581,106.221,337.106,102.426,337.106z"/>
		<path d="M323.454,313.168c6.973,0,12.632,5.659,12.632,12.632s-5.659,12.632-12.632,12.632c-6.972,0-12.631-5.659-12.631-12.632
			S316.482,313.168,323.454,313.168z"/>
		<path d="M323.454,311.843c6.973,0,12.632,5.659,12.632,12.632s-5.659,12.632-12.632,12.632c-6.972,0-12.631-5.659-12.631-12.632
			S316.482,311.843,323.454,311.843z"/>
		<path d="M127.688,338.432c-2.524,0-6.316-2.525-6.316-6.32c0-3.787,2.529-6.312,6.316-6.312c3.791,0,6.315,2.524,6.315,6.312
			C134.004,335.906,131.479,338.432,127.688,338.432z M323.454,300.545H96.113c-21.471,0-37.89-16.418-37.89-37.894
			c0-21.468,16.419-37.886,37.89-37.886h227.341c21.472,0,37.891,16.418,37.891,37.886
			C361.345,284.127,344.926,300.545,323.454,300.545z M96.113,237.389c-13.894,0-25.258,11.369-25.258,25.263
			s11.364,25.263,25.258,25.263h227.341c13.894,0,25.259-11.369,25.259-25.263s-11.365-25.263-25.259-25.263H96.113z
			 M102.426,275.282c-2.525,0-6.312-2.524-6.312-6.312c0-3.795,2.525-6.319,6.312-6.319c3.795,0,6.319,2.524,6.319,6.319
			C108.745,272.758,106.221,275.282,102.426,275.282z"/>
		<path d="M127.688,337.106c-2.524,0-6.316-2.525-6.316-6.32c0-3.787,2.529-6.312,6.316-6.312c3.791,0,6.315,2.524,6.315,6.312
			C134.004,334.581,131.479,337.106,127.688,337.106z M323.454,299.22H96.113c-21.471,0-37.89-16.418-37.89-37.894
			c0-21.468,16.419-37.886,37.89-37.886h227.341c21.472,0,37.891,16.418,37.891,37.886
			C361.345,282.802,344.926,299.22,323.454,299.22z M96.113,236.063c-13.894,0-25.258,11.369-25.258,25.263
			s11.364,25.263,25.258,25.263h227.341c13.894,0,25.259-11.369,25.259-25.263s-11.365-25.263-25.259-25.263H96.113z
			 M102.426,273.957c-2.525,0-6.312-2.524-6.312-6.312c0-3.795,2.525-6.319,6.312-6.319c3.795,0,6.319,2.524,6.319,6.319
			C108.745,271.433,106.221,273.957,102.426,273.957z"/>
		<path d="M323.454,250.02c6.973,0,12.632,5.659,12.632,12.632s-5.659,12.631-12.632,12.631c-6.972,0-12.631-5.658-12.631-12.631
			S316.482,250.02,323.454,250.02z"/>
		<path d="M323.454,248.694c6.973,0,12.632,5.659,12.632,12.632s-5.659,12.631-12.632,12.631c-6.972,0-12.631-5.658-12.631-12.631
			S316.482,248.694,323.454,248.694z"/>
		<path d="M128.126,262.84c3.435,0,6.222,2.782,6.222,6.226c0,3.435-2.787,6.217-6.222,6.217s-6.222-2.782-6.222-6.217
			C121.904,265.622,124.691,262.84,128.126,262.84z"/>
		<path d="M128.126,261.515c3.435,0,6.222,2.782,6.222,6.226c0,3.435-2.787,6.217-6.222,6.217s-6.222-2.782-6.222-6.217
			C121.904,264.297,124.691,261.515,128.126,261.515z"/>
		<path d="M276.87,96.325c-13.517-28.449-42.175-46.748-73.401-46.748c-41.261,0-75.656,31.038-79.104,70.998
			c-21.081,3.345-36.762,21.244-36.762,42.347c0,23.099,20.094,42.617,43.876,42.617h143.982c31.153,0,56.502-24.215,56.502-53.986
			C331.964,121.554,307.38,97.06,276.87,96.325z M275.462,188.511H131.479c-14.058,0-26.856-12.794-26.856-26.852
			c0-14.108,12.048-25.589,26.856-25.589c5.011,0,8.51-3.499,8.51-8.514c0-33.61,28.479-60.951,63.479-60.951
			c26.606,0,51.165,16.702,61.187,41.725c1.541,3.087,4.714,5.006,8.277,5.006h2.529c22.142,0,39.483,16.234,39.483,36.954
			C314.945,171.363,297.234,188.511,275.462,188.511z"/>
		<path d="M276.87,95c-13.517-28.448-42.175-46.747-73.401-46.747c-41.261,0-75.656,31.037-79.104,70.997
			c-21.081,3.345-36.762,21.244-36.762,42.347c0,23.099,20.094,42.617,43.876,42.617h143.982c31.153,0,56.502-24.215,56.502-53.986
			C331.964,120.229,307.38,95.734,276.87,95z M275.462,187.186H131.479c-14.058,0-26.856-12.794-26.856-26.852
			c0-14.108,12.048-25.589,26.856-25.589c5.011,0,8.51-3.499,8.51-8.514c0-33.609,28.479-60.951,63.479-60.951
			c26.606,0,51.165,16.702,61.187,41.725c1.541,3.087,4.714,5.006,8.277,5.006h2.529c22.142,0,39.483,16.234,39.483,36.954
			C314.945,170.038,297.234,187.186,275.462,187.186z"/>
	</g>
	<g>
		<g>
			<g>
				<g opacity="0.1">
					<path d="M323.454,359.694H96.113c-21.471,0-37.89-16.419-37.89-37.895c0-21.468,16.419-37.886,37.89-37.886h227.341
						c21.472,0,37.891,16.418,37.891,37.886C361.345,343.275,344.926,359.694,323.454,359.694z M96.113,296.545
						c-13.894,0-25.258,11.361-25.258,25.255s11.364,25.263,25.258,25.263h227.341c13.894,0,25.259-11.369,25.259-25.263
						s-11.365-25.255-25.259-25.255H96.113z M102.426,334.432c-2.525,0-6.312-2.525-6.312-6.32c0-3.787,2.525-6.312,6.312-6.312
						c3.795,0,6.319,2.524,6.319,6.312C108.745,331.906,106.221,334.432,102.426,334.432z"/>
				</g>
				<g>
					<g>
						<path fill="#E8A215" d="M323.454,358.369H96.113c-21.471,0-37.89-16.419-37.89-37.895c0-21.468,16.419-37.886,37.89-37.886
							h227.341c21.472,0,37.891,16.418,37.891,37.886C361.345,341.95,344.926,358.369,323.454,358.369z M96.113,295.22
							c-13.894,0-25.258,11.361-25.258,25.255s11.364,25.263,25.258,25.263h227.341c13.894,0,25.259-11.369,25.259-25.263
							s-11.365-25.255-25.259-25.255H96.113z M102.426,333.106c-2.525,0-6.312-2.525-6.312-6.32c0-3.787,2.525-6.312,6.312-6.312
							c3.795,0,6.319,2.524,6.319,6.312C108.745,330.581,106.221,333.106,102.426,333.106z"/>
					</g>
				</g>
			</g>
			<g>
				<g opacity="0.1">
					<path d="M323.454,309.168c6.973,0,12.632,5.659,12.632,12.632s-5.659,12.632-12.632,12.632
						c-6.972,0-12.631-5.659-12.631-12.632S316.482,309.168,323.454,309.168z"/>
				</g>
				<g>
					<path fill="#E8A215" d="M323.454,307.843c6.973,0,12.632,5.659,12.632,12.632s-5.659,12.632-12.632,12.632
						c-6.972,0-12.631-5.659-12.631-12.632S316.482,307.843,323.454,307.843z"/>
				</g>
			</g>
			<g>
				<g opacity="0.1">
					<path d="M127.688,334.432c-2.524,0-6.316-2.525-6.316-6.32c0-3.787,2.529-6.312,6.316-6.312c3.791,0,6.315,2.524,6.315,6.312
						C134.004,331.906,131.479,334.432,127.688,334.432z M323.454,296.545H96.113c-21.471,0-37.89-16.418-37.89-37.894
						c0-21.468,16.419-37.886,37.89-37.886h227.341c21.472,0,37.891,16.418,37.891,37.886
						C361.345,280.127,344.926,296.545,323.454,296.545z M96.113,233.389c-13.894,0-25.258,11.369-25.258,25.263
						s11.364,25.263,25.258,25.263h227.341c13.894,0,25.259-11.369,25.259-25.263s-11.365-25.263-25.259-25.263H96.113z
						 M102.426,271.282c-2.525,0-6.312-2.524-6.312-6.312c0-3.795,2.525-6.319,6.312-6.319c3.795,0,6.319,2.524,6.319,6.319
						C108.745,268.758,106.221,271.282,102.426,271.282z"/>
				</g>
				<g>
					<g>
						<path fill="#E8A215" d="M127.688,333.106c-2.524,0-6.316-2.525-6.316-6.32c0-3.787,2.529-6.312,6.316-6.312
							c3.791,0,6.315,2.524,6.315,6.312C134.004,330.581,131.479,333.106,127.688,333.106z M323.454,295.22H96.113
							c-21.471,0-37.89-16.418-37.89-37.894c0-21.468,16.419-37.886,37.89-37.886h227.341c21.472,0,37.891,16.418,37.891,37.886
							C361.345,278.802,344.926,295.22,323.454,295.22z M96.113,232.063c-13.894,0-25.258,11.369-25.258,25.263
							s11.364,25.263,25.258,25.263h227.341c13.894,0,25.259-11.369,25.259-25.263s-11.365-25.263-25.259-25.263H96.113z
							 M102.426,269.957c-2.525,0-6.312-2.524-6.312-6.312c0-3.795,2.525-6.319,6.312-6.319c3.795,0,6.319,2.524,6.319,6.319
							C108.745,267.433,106.221,269.957,102.426,269.957z"/>
					</g>
				</g>
			</g>
			<g>
				<g opacity="0.1">
					<path d="M323.454,246.02c6.973,0,12.632,5.659,12.632,12.632s-5.659,12.631-12.632,12.631c-6.972,0-12.631-5.658-12.631-12.631
						S316.482,246.02,323.454,246.02z"/>
				</g>
				<g>
					<path fill="#E8A215" d="M323.454,244.694c6.973,0,12.632,5.659,12.632,12.632s-5.659,12.631-12.632,12.631
						c-6.972,0-12.631-5.658-12.631-12.631S316.482,244.694,323.454,244.694z"/>
				</g>
			</g>
			<g>
				<g opacity="0.1">
					<path d="M128.126,258.84c3.435,0,6.222,2.782,6.222,6.226c0,3.435-2.787,6.217-6.222,6.217s-6.222-2.782-6.222-6.217
						C121.904,261.622,124.691,258.84,128.126,258.84z"/>
				</g>
				<g>
					<path fill="#E8A215" d="M128.126,257.515c3.435,0,6.222,2.782,6.222,6.226c0,3.435-2.787,6.217-6.222,6.217
						s-6.222-2.782-6.222-6.217C121.904,260.297,124.691,257.515,128.126,257.515z"/>
				</g>
			</g>
			<g>
				<g opacity="0.1">
					<path d="M276.87,92.325c-13.517-28.449-42.175-46.748-73.401-46.748c-41.261,0-75.656,31.038-79.104,70.998
						c-21.081,3.345-36.762,21.244-36.762,42.347c0,23.099,20.094,42.617,43.876,42.617h143.982
						c31.153,0,56.502-24.215,56.502-53.986C331.964,117.554,307.38,93.06,276.87,92.325z M275.462,184.511H131.479
						c-14.058,0-26.856-12.794-26.856-26.852c0-14.108,12.048-25.589,26.856-25.589c5.011,0,8.51-3.499,8.51-8.514
						c0-33.61,28.479-60.951,63.479-60.951c26.606,0,51.165,16.702,61.187,41.725c1.541,3.087,4.714,5.006,8.277,5.006h2.529
						c22.142,0,39.483,16.234,39.483,36.954C314.945,167.363,297.234,184.511,275.462,184.511z"/>
				</g>
				<g>
					<g>
						<path fill="#FF5625" d="M276.87,91c-13.517-28.448-42.175-46.747-73.401-46.747c-41.261,0-75.656,31.037-79.104,70.997
							c-21.081,3.345-36.762,21.244-36.762,42.347c0,23.099,20.094,42.617,43.876,42.617h143.982
							c31.153,0,56.502-24.215,56.502-53.986C331.964,116.229,307.38,91.734,276.87,91z M275.462,183.186H131.479
							c-14.058,0-26.856-12.794-26.856-26.852c0-14.108,12.048-25.589,26.856-25.589c5.011,0,8.51-3.499,8.51-8.514
							c0-33.609,28.479-60.951,63.479-60.951c26.606,0,51.165,16.702,61.187,41.725c1.541,3.087,4.714,5.006,8.277,5.006h2.529
							c22.142,0,39.483,16.234,39.483,36.954C314.945,166.038,297.234,183.186,275.462,183.186z"/>
					</g>
				</g>
			</g>
		</g>
	</g>
</g>
<path fill="#404066" d="M399.988,25.366V0H-0.018h0.006v24.959v350.809v24.593V400h24.988l0,0h350l0,0h25.012l0,0l0,0v-24.634l0,0
	V25.366L399.988,25.366z M374.988,375h-350V25h350V375z"/>
</svg>
