<?xml version="1.0" encoding="utf-8"?>
<!-- Generator: Adobe Illustrator 16.0.4, SVG Export Plug-In . SVG Version: 6.00 Build 0)  -->
<!DOCTYPE svg PUBLIC "-//W3C//DTD SVG 1.1//EN" "http://www.w3.org/Graphics/SVG/1.1/DTD/svg11.dtd">
<svg version="1.1" id="Layer_1" xmlns="http://www.w3.org/2000/svg" xmlns:xlink="http://www.w3.org/1999/xlink" x="0px" y="0px"
	 width="399.988px" height="400.001px" viewBox="0 0 399.988 400.001" enable-background="new 0 0 399.988 400.001"
	 xml:space="preserve">
<rect x="-0.095" y="0.001" fill="#351A3A" width="399.996" height="399.994"/>
<g>
	<g opacity="0.1">
		<path d="M39.754,183.962l97.477-40.931v33.833l-43.297,16.798c-2.208,0.789-4.613,1.656-7.218,2.601
			c-2.6,0.948-5.006,1.814-7.213,2.604l-8.045,2.838v0.474l8.045,2.367c2.208,0.789,4.614,1.539,7.213,2.246
			c2.604,0.712,5.01,1.462,7.218,2.251l43.297,15.616v35.252l-97.477-40.935V183.962z"/>
		<path d="M247.504,116.408l-63.173,169.17h-33.126l63.173-169.17H247.504z"/>
		<path d="M306.189,209.042c2.207-0.789,4.613-1.656,7.217-2.604c2.604-0.948,5.006-1.815,7.218-2.604
			c2.682-0.789,5.364-1.655,8.041-2.6v-0.475l-8.041-2.366c-2.212-0.789-4.613-1.578-7.218-2.363
			c-2.604-0.793-5.01-1.582-7.217-2.367l-43.297-15.616v-35.015l97.481,40.931v35.014l-97.481,40.935v-34.07L306.189,209.042z"/>
	</g>
	<g>
		<g>
			<path fill="#E8A215" d="M39.754,179.962l97.477-40.931v33.833l-43.297,16.798c-2.208,0.789-4.613,1.656-7.218,2.601
				c-2.6,0.948-5.006,1.814-7.213,2.604l-8.045,2.838v0.474l8.045,2.367c2.208,0.789,4.614,1.539,7.213,2.246
				c2.604,0.712,5.01,1.462,7.218,2.251l43.297,15.616v35.252l-97.477-40.935V179.962z"/>
			<path fill="#FF5625" d="M247.504,112.408l-63.173,169.17h-33.126l63.173-169.17H247.504z"/>
			<path fill="#E8A215" d="M306.189,205.042c2.207-0.789,4.613-1.656,7.217-2.604c2.604-0.948,5.006-1.815,7.218-2.604
				c2.682-0.789,5.364-1.655,8.041-2.6v-0.475l-8.041-2.366c-2.212-0.789-4.613-1.578-7.218-2.363
				c-2.604-0.793-5.01-1.582-7.217-2.367l-43.297-15.616v-35.015l97.481,40.931v35.014l-97.481,40.935v-34.07L306.189,205.042z"/>
		</g>
	</g>
</g>
<path fill="#404066" d="M399.988,25.001v-25H-0.097h0.085v24.593v350.809v24.593v0.006h24.988l0,0h350l0,0h25.012l0,0l0,0v-25l0,0
	V25.001L399.988,25.001z M374.988,375.001h-350v-350h350V375.001z"/>
</svg>
